<?xml version="1.0" encoding="UTF-8"?><svg id="Layer_1" xmlns="http://www.w3.org/2000/svg" viewBox="0 0 91 103"><defs><style>.cls-1{fill:#050707;}.cls-2{opacity:.6;}.cls-2,.cls-3{fill:#ea9210;}.cls-3{opacity:.8;}.cls-4{fill:#bc172d;opacity:.7;}.cls-5{opacity:.75;}.cls-5,.cls-6{fill:#da0e15;}.cls-6{opacity:.65;}.cls-7{stroke:#1d1d1b;}.cls-7,.cls-8{fill:none;stroke-miterlimit:10;stroke-width:.5px;}.cls-8{stroke:#050707;}</style></defs><path class="cls-2" d="M45.53,70.13c-1.59-1.47-4.61-3.84-9-5-4.2-1.11-7.6-.55-11,0-2.86,.46-7.15,1.49-12,4,1.67,.67,3.33,1.33,5,2,1.95-.61,4.68-1.37,8-2,2.78-.53,5.15-.97,8-1,2.48-.02,6.34,.27,11,2Z"/><path class="cls-3" d="M36.45,52.7c-2.11-2.22-4.47-4.68-8.3-6.7-2.97-1.56-5.53-2.12-7.07-2.44-7.29-1.52-13.79-.09-17.7,1.16,1.54,2.14,3.89,5,7.26,7.81,2.46,2.05,5.41,4.5,9.89,6.1,4.61,1.65,8.75,1.63,15.11,1.62,2.24,0,4.09-.1,5.37-.19-2.85-1.06-5.05-2.17-6.56-2.99-2.72-1.5-3.28-2.16-6.04-3.55-2.83-1.43-5.18-2.21-6-2.48-3.42-1.1-4.39-.9-7.59-1.88-2.06-.63-4.06-1.46-6-2.48,1.97,.56,3.96,1.03,5.96,1.4,2.17,.4,2.69,.38,5.41,.88,2.79,.52,4.22,.79,5.96,1.4,.52,.18,2.25,.81,4.37,2,1.84,1.03,3.06,1.96,3.85,2.55,1.69,1.26,4.21,3.03,7.71,5.1-2-3.23-4.05-5.66-5.63-7.33Z"/><path class="cls-4" d="M70.73,38.43c1.49,2.23,3.44,5.68,4.74,10.19,1.05,3.64,2.19,7.62,1.18,12.46-1.2,5.8-4.86,9.82-8.29,13.59-1.84,2.02-3.54,3.53-4.74,4.53-.05-1.66-.08-4,0-6.8,.12-4.49,.24-8.81,1.18-13.59,.66-3.37,1.96-8.12,4.74-13.59-1.07,1.72-2.35,4-3.55,6.8-.63,1.46-1.61,3.76-2.37,6.8-.86,3.42-.99,6-1.18,10.19-.11,2.33-.17,5.41,0,9.06-.85-2.1-1.88-5.2-2.37-9.06-1.08-8.59,1.24-15.33,2.37-18.12,2.39-5.9,5.85-10.02,8.29-12.46Z"/><path class="cls-2" d="M50.07,28.43c-1.26,1.11-3.05,2.94-4.51,5.64-1.44,2.66-1.9,4.94-2.26,6.77-1.05,5.45-.29,9.83,0,11.28,.68,3.36,1.78,5.66,3.38,9.02,1.62,3.38,3.27,6.04,4.51,7.9-.13-1.03-.25-2.62,0-4.51,.21-1.63,.48-1.87,1.13-4.51,.42-1.73,.96-3.98,1.13-6.77,.07-1.18,.05-2.15,0-3.38-.1-2.37-.37-6.14-1.13-11.28,.32,1.09,.74,2.64,1.13,4.51,.65,3.09,1.18,5.62,1.13,9.02-.03,1.77-.09,4.57-1.13,7.9-.49,1.56-.81,2-1.13,3.38-.63,2.73-.35,5.14,0,6.77,.16-1.95,.54-3.83,1.13-5.64,1.13-3.46,2.22-4.14,3.38-7.9,.31-1,.87-3.02,1.13-5.64,.28-2.9,.06-5.11,0-5.64-.5-4.5-2.14-7.75-3.38-10.15-.93-1.79-2.36-4.19-4.51-6.77Z"/><path class="cls-4" d="M36.19,31.78c.32-.95,.72-2.32,1-4,.31-1.87,.79-4.76,0-8-.56-2.31-1.53-3.78-3-6-1.51-2.29-3.03-3.89-6-7-1.24-1.3-2.93-3.02-5-5,.33,1.05,.9,3.4,0,6-.28,.8-.64,1.47-1,2,1.69,1.16,3.04,2.21,4,3,2.86,2.34,4.48,3.68,6,6,.45,.69,1.33,2.05,2,4,.78,2.28,.94,4.01,1,4,.07-.01,.03-2.78-1-6-.88-2.76-2.11-4.65-3-6-2.48-3.76-5.06-5.94-5-6,.07-.06,2.03,1.63,4,4,1.36,1.63,2.8,3.36,4,6,1.62,3.57,1.86,6.77,2,9,.11,1.66,.06,3.04,0,4Z"/><path class="cls-5" d="M13,3.43c-.29,2.39-.51,5.87,0,10.03,.39,3.15,.71,5.8,2.23,8.92,.49,1.02,2.87,5.68,7.8,8.92,1.7,1.12,2.69,1.4,5.57,3.34,1.96,1.32,3.48,2.53,4.46,3.34-.94-1.31-2.43-3.3-4.46-5.57-4.09-4.59-5.69-5.1-7.8-7.8-4.76-6.09-4.42-13.38-4.46-13.38-.03,0,.25,4.99,3.34,10.03,1.29,2.1,2.94,4,3.34,4.46,.55,.62,.9,.97,4.46,4.46,2.55,2.5,2.82,2.76,3.34,3.34,1.58,1.76,2.67,3.37,3.34,4.46,.25-1.78,.47-4.52,0-7.8-.23-1.56-1.36-8.45-6.69-14.49-.55-.62-2.97-2.65-7.8-6.69-2.77-2.32-5.08-4.23-6.69-5.57Z"/><path class="cls-7" d="M68,42.28c1.26,1.97,2.9,5.01,4,9,.88,3.22,1.85,6.73,1,11-1.02,5.13-4.1,8.67-7,12-1.55,1.78-2.99,3.12-4,4-.04-1.47-.07-3.53,0-6,.1-3.96,.21-7.78,1-12,.56-2.97,1.66-7.17,4-12-.9,1.52-1.98,3.53-3,6-.53,1.29-1.36,3.32-2,6-.72,3.02-.84,5.3-1,9-.09,2.06-.14,4.78,0,8-.72-1.85-1.59-4.59-2-8-.92-7.59,1.05-13.54,2-16,2.02-5.21,4.94-8.84,7-11Z"/><path class="cls-7" d="M50,31.28c-1.12,.98-2.7,2.61-4,5-1.28,2.36-1.69,4.38-2,6-.93,4.83-.26,8.71,0,10,.6,2.98,1.57,5.02,3,8,1.43,3,2.89,5.36,4,7-.12-.91-.22-2.32,0-4,.19-1.45,.43-1.66,1-4,.37-1.53,.85-3.52,1-6,.06-1.04,.05-1.9,0-3-.09-2.1-.33-5.44-1-10,.28,.97,.65,2.34,1,4,.57,2.74,1.04,4.98,1,8-.02,1.57-.08,4.05-1,7-.43,1.38-.72,1.77-1,3-.56,2.42-.31,4.55,0,6,.14-1.73,.48-3.4,1-5,1-3.06,1.97-3.67,3-7,.27-.88,.77-2.67,1-5,.25-2.57,.05-4.53,0-5-.44-3.99-1.9-6.87-3-9-.82-1.59-2.09-3.72-4-6Z"/><path class="cls-7" d="M35,34.28c.32-.95,.72-2.32,1-4,.31-1.87,.79-4.76,0-8-.56-2.31-1.53-3.78-3-6-1.51-2.29-3.03-3.89-6-7-1.24-1.3-2.93-3.02-5-5,.33,1.05,.9,3.4,0,6-.28,.8-.64,1.47-1,2,1.69,1.16,3.04,2.21,4,3,2.86,2.34,4.48,3.68,6,6,.45,.69,1.33,2.05,2,4,.78,2.28,.94,4.01,1,4,.07-.01,.03-2.78-1-6-.88-2.76-2.11-4.65-3-6-2.48-3.76-5.06-5.94-5-6,.07-.06,2.03,1.63,4,4,1.36,1.63,2.8,3.36,4,6,1.62,3.57,1.86,6.77,2,9,.11,1.66,.06,3.04,0,4Z"/><path class="cls-7" d="M15,8.28c-.26,2.14-.46,5.27,0,9,.35,2.83,.64,5.2,2,8,.44,.91,2.57,5.1,7,8,1.53,1,2.42,1.25,5,3,1.76,1.19,3.12,2.27,4,3-.84-1.17-2.18-2.96-4-5-3.67-4.12-5.1-4.57-7-7-4.27-5.46-3.97-12.01-4-12-.03,0,.22,4.48,3,9,1.16,1.89,2.64,3.59,3,4,.49,.55,.81,.87,4,4,2.29,2.24,2.53,2.48,3,3,1.41,1.58,2.39,3.02,3,4,.23-1.6,.42-4.06,0-7-.2-1.4-1.22-7.58-6-13-.49-.56-2.67-2.38-7-6-2.49-2.08-4.55-3.8-6-5Z"/><path class="cls-1" d="M33,40.28c1.44,2.75,5.38,10.12,10,17,2.58,3.83,5,7,5,7,1.29,1.68,2.34,2.97,4,5,2.04,2.49,3.76,4.54,5,6,2.42,2.35,5.42,5.1,9,8,1.41,1.14,4.23,3.38,8,6,3.39,2.35,7.74,5.15,13,8v2c-1.27-.73-2.99-1.74-5-3-6.63-4.16-11.51-7.98-14-10-3.06-2.48-7.67-6.25-13-12-2.7-2.92-8.08-8.78-13-17-2.39-4-5.17-9.39-6-11-1.27-2.46-2.29-4.53-3-6Z"/><path class="cls-8" d="M38,54.28c-1.89-2.14-4-4.5-7.5-6.5-2.72-1.55-5.07-2.15-6.5-2.5-6.73-1.65-12.82-.54-16.5,.5,1.36,2.04,3.46,4.78,6.5,7.5,2.22,1.99,4.89,4.36,9,6,4.24,1.69,8.09,1.81,14,2,2.08,.07,3.81,.04,5,0-2.62-1.08-4.63-2.18-6-3-2.48-1.48-2.98-2.12-5.5-3.5-2.58-1.42-4.74-2.23-5.5-2.5-3.15-1.14-4.06-.98-7-2-1.89-.66-3.73-1.49-5.5-2.5,1.81,.59,3.65,1.09,5.5,1.5,2.01,.45,2.49,.44,5,1,2.58,.57,3.9,.87,5.5,1.5,.47,.19,2.07,.83,4,2,1.68,1.01,2.78,1.92,3.5,2.5,1.53,1.23,3.82,2.96,7,5-1.75-3.07-3.58-5.39-5-7Z"/><path class="cls-8" d="M48,71.28c-1.59-1.47-4.61-3.84-9-5-4.2-1.11-7.6-.55-11,0-2.86,.46-7.15,1.49-12,4,1.67,.67,3.33,1.33,5,2,1.95-.61,4.68-1.37,8-2,2.78-.53,5.15-.97,8-1,2.48-.02,6.34,.27,11,2Z"/><path class="cls-8" d="M56,76.28c-1.88-1.26-4.56-2.79-8-4-1.05-.37-5.38-1.83-11-2-9.16-.27-16.43,3.05-20,5,1.65,1.05,4.02,2.48,7,4,4.22,2.15,6.6,3.36,10,4,1.62,.3,4.98,.76,9,0,6.69-1.26,11.1-5.11,13-7Z"/><path class="cls-6" d="M53.33,75.97c-1.88-1.26-4.56-2.79-8-4-1.05-.37-5.38-1.83-11-2-9.16-.27-16.43,3.05-20,5,1.65,1.05,4.02,2.48,7,4,4.22,2.15,6.6,3.36,10,4,1.62,.3,4.98,.76,9,0,6.69-1.26,11.1-5.11,13-7Z"/></svg>