<?xml version="1.0" encoding="UTF-8"?><svg id="Layer_1" xmlns="http://www.w3.org/2000/svg" viewBox="0 0 208 88"><defs><style>.cls-1{fill:#050707;}.cls-2{fill:#efeeee;}.cls-3{fill:#87182f;}.cls-4{fill:#8c1728;}.cls-5{fill:#bb142c;}.cls-6{fill:#150c0e;}.cls-7{fill:#1d1d1b;}.cls-8{opacity:.3;}.cls-9{opacity:.6;}.cls-10{opacity:.5;}.cls-11{opacity:.7;}</style></defs><g class="cls-10"><path class="cls-4" d="M104.76,37.2c1,1.4,1.12,2.48,1.06,3.19-.11,1.37-.98,2.14-1.06,4.25-.03,.75,.08,.69,0,1.06-.39,1.87-3.04,3.19-5.31,3.19-1.57,0-2.71-.76-3.19-1.06-1.12-.72-1.78-1.59-2.13-2.13,.52,.03,1.27,.06,2.17,.06,.82,0,1.54,0,2.08-.06,.61-.07,3.45-.41,4.25-2.13,.66-1.42-.65-2.55,0-4.25,.42-1.1,1.39-1.75,2.13-2.13Z"/></g><g class="cls-10"><path class="cls-5" d="M106.58,26.95c1.22,4.35,.73,5.93,0,6.53-.26,.21-.67,.4-.93,.93-.31,.61-.13,1.08,0,2.8,.07,1.03,.11,1.55,0,1.87-.37,1.07-1.26,.98-1.87,1.87-.95,1.39,.36,2.87,0,5.6-.16,1.22-.59,2.17-.93,2.8,1.48,.51,2.31,.29,2.8,0,.92-.55,.9-1.57,1.87-1.87,.82-.25,1.28,.35,1.87,0,.69-.42,.28-1.41,.93-1.87,.78-.55,1.88,.57,2.8,0,.5-.31,.52-.76,.93-1.87,.83-2.23,1.44-2.26,1.87-3.73,.47-1.65,.15-3.09,0-3.73-.48-2.1-1.65-3.42-2.8-4.67-1.14-1.24-3.22-3.17-6.53-4.67Z"/></g><g class="cls-10"><path class="cls-4" d="M106.44,35.78c1.36-2.09,1.68-3.39,1.69-4.22,0-.06,0-.17,0-2.53,0-.35,0-.65,0-.84-.56-.56-1.12-1.12-1.69-1.69-.28-.28-.56-.56-.84-.84-1.11-.16-2.71-.57-4.22-1.69-1.15-.86-1.18-1.23-2.53-2.53-.72-.69-2.71-2.6-5.06-2.53-1.02,.03-1.79,.42-2.53,.84-1.58,.9-4.27,2.65-7.59,5.9,1.2,.05,2.99,.23,5.06,.84,2.06,.61,2.16,.98,4.22,1.69,3.73,1.27,4.33,.35,7.59,1.69,2.86,1.17,3.93,2.2,4.22,2.53,1.06,1.22,1.49,2.54,1.69,3.37Z"/></g><g class="cls-10"><path class="cls-5" d="M69.89,21.66c.73,1.03,1.29,1.9,1.69,2.53,1.46,2.33,1.62,3,1.69,3.37,.18,1.02-.09,1.21,0,2.53,.11,1.6,.6,2.79,.84,3.37,1.14,2.74,3.25,4.39,4.22,5.06-.24-.91-.61-2.82,0-5.06,.3-1.09,.63-2.32,1.69-3.37,.77-.77,1.33-.85,1.69-1.69,.49-1.16,.03-2.45,0-2.53-.35-.94-.85-1-.84-1.69,0,0,.01-.3,.84-1.69-1.71-1.11-3.28-1.52-4.22-1.69-1.77-.32-3.19-.14-4.22,0-1.42,.19-2.57,.55-3.37,.84Z"/></g><g class="cls-9"><path class="cls-5" d="M108.98,47.24c-1.7,.98-3.17,1.42-4.57,1.83-2.36,.69-3.55,1.04-4.57,.91-1.55-.19-2.36-.97-5.49-3.66-3.17-2.72-4.76-4.09-5.49-4.57-1.27-.85-3.77-2.53-7.32-3.66-1.79-.57-2.98-.72-4.57-1.83-.28-.19-1.55-1.1-2.74-2.74-1.06-1.46-1.52-2.77-1.83-3.66-.23-.65-.36-1.2-.44-1.68-.32-1.9-.31-2.69-.48-3.81-.11-.75-.63-3.58-2.74-5.49-.86-.77-2-1.41-2.74-1.83-.73-.41-1.37-.71-1.83-.91,.31,.84,.71,2.1,.91,3.66,.27,1.99,.08,3.34,0,4.57,0,0-.25,3.99,.91,8.23,.57,2.08,1.33,4.86,3.66,7.32,1.76,1.86,3.71,2.8,5.49,3.66,3.2,1.54,4.16,1.15,6.4,2.74,1.3,.93,2.11,1.86,3.66,3.66,2.26,2.62,2.25,3.3,3.66,4.57,2.16,1.95,4.62,2.55,5.49,2.74,5.61,1.28,10.7-1.66,10.98-1.83,1.19-.71,2-1.44,3.66-1.83,1.9-.44,3.71-.15,4.57,0,2.2,.38,2.23,.9,3.66,.91,.22,0,2.82,0,4.57-1.83,.92-.95,1-1.78,1.83-4.57,.39-1.32,.98-3.21,1.83-5.49-3.17,3.21-5.62,3.77-7.32,3.66-2.42-.16-4.06-1.77-6.4-.91-1.05,.38-.88,.76-2.74,1.83Z"/></g><g class="cls-9"><path class="cls-4" d="M110.12,52.73c-.77,.85-1.91,2.04-3.37,3.37-1.93,1.76-2.9,2.65-4.22,3.37-2.63,1.45-5.12,1.59-6.75,1.69-1.61,.09-4.03,.23-6.75-.84-1.76-.7-2.86-1.59-5.06-3.37-2.8-2.27-2.96-3.06-5.06-4.22-2.02-1.12-2.37-.67-4.22-1.69-2.51-1.38-3.88-3.35-5.06-5.06-2.46-3.55-3.22-6.88-3.37-7.59-.78-3.65-.37-6.69,0-8.44,1.48,7.12,4.39,10.26,6.75,11.81,3.72,2.45,7.45,1.86,10.97,5.9,1.23,1.41,1.45,2.26,3.37,4.22,1.97,2,3.5,3.56,5.9,4.22,3.3,.9,6.47-.39,7.59-.84,2.39-.97,3.29-2.12,5.9-2.53,1.39-.22,2.57-.12,3.37,0Z"/></g><g class="cls-8"><path class="cls-5" d="M100.13,30.34c1.56,.77,5.13,2.51,6.46,5.73,.39,.94,1.07,2.67,0,4.59-1.27,2.27-4.14,3.22-4.85,3.44-3.63,1.15-7.06,.26-8.08,0-2.78-.72-2.7-1.51-6.46-3.44-5.53-2.83-8.19-2.39-9.69-4.59-1.01-1.47-.89-3.25,0-4.59,1.67-2.49,5.85-3.11,8.08-3.44,7.35-1.08,13.3,1.69,14.54,2.29Z"/></g><g class="cls-10"><path class="cls-5" d="M96.38,34.63c.7,.49,2.31,1.6,2.91,3.64,.18,.6,.48,1.7,0,2.91-.57,1.44-1.87,2.04-2.18,2.18-1.64,.73-3.18,.17-3.64,0-1.25-.45-1.22-.96-2.91-2.18-2.49-1.8-3.69-1.52-4.37-2.91-.45-.94-.4-2.07,0-2.91,.75-1.58,2.64-1.98,3.64-2.18,3.31-.69,6,1.07,6.55,1.46Z"/></g><g class="cls-11"><path class="cls-5" d="M62.53,10.57c-1.05,1.31-.94,2.96-.89,3.57,.23,3.36,3.14,6.73,6.26,7.15,2.19,.3,2.6-1.11,5.36-.89,2.44,.19,2.89,1.35,5.36,1.79,1.06,.19,1.79,.12,6.26-.89,6.87-1.56,7.76-2,9.83-1.79,1.19,.12,3.28,.51,5.36,1.79,4.06,2.49,2.85,5.12,7.15,8.94,2.37,2.1,4.04,2.46,6.26,5.36,1.15,1.51,1.59,2.57,1.79,3.57,.07,.37,.55,2.96-.89,5.36-1.47,2.45-3.74,2.73-3.57,3.57,.19,.97,3.41,1.51,6.26,.89,2.6-.56,4.29-1.95,6.26-3.57,2.7-2.23,4.07-3.35,4.47-5.36,.62-3.11-1.55-5.95-1.79-6.26-1.07-1.37-1.91-1.49-3.57-3.57-.18-.23-1.01-1.28-1.79-2.68-2.1-3.81-.99-5.14-2.68-8.04-1.23-2.11-2.97-3.38-4.47-4.47-2.21-1.61-2.69-1.27-4.47-2.68-2.62-2.07-2.08-3.2-4.47-5.36-2.4-2.17-5.06-2.96-7.15-3.57-1.65-.49-3.62-1.07-6.26-.89-.71,.05-3.33,.27-6.26,1.79-2.9,1.5-2.77,2.55-5.36,3.57-1.76,.7-3.22,.78-5.36,.89-3.51,.19-4.15-.43-7.15,0-1.92,.28-3.46,.52-4.47,1.79Z"/></g><path class="cls-1" d="M79.18,61.39c.08-1.09,.17-2.31-.22-3.81-.3-1.16-.77-1.97-1.05-2.46-1.35-2.3-3.29-3.67-4.56-4.41-.2,.92-.39,2.23-.32,3.8,.05,1.14,.11,2.51,.76,4.09,.67,1.62,1.67,2.71,3.2,4.39,.54,.59,1.01,1.06,1.34,1.38-.4-1.01-.64-1.86-.78-2.46-.26-1.08-.22-1.39-.51-2.45-.3-1.09-.66-1.9-.79-2.18-.53-1.17-.82-1.38-1.32-2.46-.33-.7-.59-1.43-.79-2.18,.32,.66,.68,1.3,1.06,1.92,.41,.67,.54,.8,1.06,1.64,.53,.86,.81,1.31,1.06,1.92,.08,.18,.33,.79,.52,1.64,.17,.73,.22,1.28,.25,1.63,.07,.75,.21,1.84,.5,3.27,.38-1.31,.53-2.43,.59-3.25Z"/><path class="cls-1" d="M77.95,72.24c-.16-.85-.45-2-1.04-3.27-.18-.39-.94-1.97-2.4-3.56-2.38-2.59-5.24-3.71-6.73-4.17,.15,.73,.39,1.77,.77,3,.54,1.74,.84,2.72,1.58,3.82,.35,.53,1.12,1.57,2.41,2.48,2.14,1.5,4.38,1.69,5.41,1.7Z"/><path class="cls-7" d="M115.07,46.73c-1.36,0-2.62-.23-3.27-.66-.26-.17-.42-.37-.47-.6-.1-.49,.35-.78,.97-1.19,.71-.46,1.68-1.09,2.43-2.34,1.28-2.14,.91-4.47,.82-4.91-.21-1.07-.71-2.06-1.65-3.29-1.31-1.71-2.42-2.48-3.6-3.3-.71-.49-1.44-1-2.27-1.73-1.97-1.75-2.74-3.25-3.42-4.58-.73-1.42-1.35-2.65-3.3-3.84-1.86-1.14-3.73-1.53-4.97-1.66-1.44-.15-2.28,.05-5.38,.79-1.01,.24-2.25,.54-3.83,.89-4.28,.97-4.96,1.03-5.99,.85-1.12-.2-1.81-.55-2.47-.89-.71-.36-1.39-.71-2.57-.8-1.29-.1-2.01,.18-2.7,.46-.68,.27-1.32,.52-2.37,.38-3.02-.41-5.86-3.65-6.09-6.94-.04-.61-.15-2.22,.89-3.52,1.03-1.28,2.57-1.51,4.35-1.76,1.56-.23,2.45-.15,3.48-.07,.84,.07,1.79,.15,3.29,.07,2.03-.11,3.37-.18,5-.83,1.24-.49,1.8-.98,2.44-1.55,.59-.53,1.27-1.12,2.6-1.81,2.53-1.31,4.84-1.63,5.99-1.71,2.52-.17,4.44,.4,5.98,.85,2.02,.59,4.53,1.33,6.83,3.42,1.08,.98,1.54,1.74,1.99,2.48,.48,.8,.94,1.56,2.22,2.58,.82,.65,1.33,.89,1.92,1.17,.58,.27,1.24,.58,2.3,1.36,1.45,1.06,3.09,2.25,4.28,4.28,.78,1.34,.95,2.33,1.12,3.39,.19,1.16,.39,2.36,1.41,4.21,.67,1.22,1.39,2.15,1.67,2.5,.85,1.06,1.47,1.58,2.02,2.04,.46,.38,.89,.74,1.36,1.34,.39,.5,2.31,3.14,1.73,6.08-.39,1.97-1.7,3.04-4.29,5.18-1.87,1.54-3.49,2.88-5.99,3.42-.78,.17-1.62,.25-2.42,.25Zm-19.56-28.55c.28,0,.56,.02,.88,.05,1.29,.13,3.22,.54,5.15,1.72,2.05,1.25,2.7,2.53,3.45,4,.66,1.29,1.41,2.75,3.32,4.45,.81,.72,1.53,1.22,2.23,1.7,1.21,.84,2.35,1.63,3.7,3.39,.98,1.29,1.5,2.32,1.73,3.46,.13,.66,.46,3-.87,5.21-.8,1.33-1.86,2.02-2.56,2.47-.53,.34-.83,.55-.79,.75,.02,.11,.12,.22,.28,.33,.84,.55,3.19,.82,5.37,.35,2.41-.52,3.99-1.82,5.81-3.33,2.52-2.08,3.78-3.12,4.15-4.94,.56-2.81-1.42-5.44-1.65-5.73-.44-.56-.84-.89-1.3-1.28-.56-.47-1.2-1-2.08-2.1-.28-.36-1.02-1.32-1.71-2.56-1.06-1.91-1.27-3.2-1.46-4.34-.17-1.02-.33-1.98-1.07-3.25-1.14-1.95-2.74-3.12-4.16-4.15-1.03-.75-1.64-1.04-2.23-1.32-.58-.28-1.14-.54-2-1.22-1.34-1.06-1.84-1.89-2.32-2.69-.43-.71-.87-1.44-1.91-2.38-2.23-2.02-4.69-2.75-6.67-3.33-1.58-.47-3.38-1-5.83-.84-1.12,.07-3.36,.39-5.82,1.66-1.28,.67-1.94,1.24-2.51,1.75-.65,.57-1.25,1.11-2.57,1.63-1.69,.67-3.13,.75-5.12,.86-1.54,.08-2.5,0-3.35-.07-1-.08-1.87-.15-3.38,.06-1.7,.25-3.16,.46-4.08,1.61l-.16-.13,.16,.13c-.94,1.17-.84,2.66-.8,3.23,.21,3.11,2.89,6.17,5.72,6.56,.95,.13,1.51-.1,2.16-.36,.7-.28,1.5-.6,2.89-.49,1.26,.1,1.97,.46,2.73,.84,.64,.32,1.29,.66,2.36,.85,.96,.17,1.62,.12,5.82-.84,1.58-.36,2.82-.65,3.82-.89,2.51-.6,3.56-.85,4.65-.85Z"/><path class="cls-7" d="M95.9,61.41c-1.45,0-3.22-.17-5.14-.93-1.8-.71-2.92-1.62-5.14-3.42-1.18-.96-1.9-1.66-2.48-2.22-.81-.79-1.35-1.31-2.53-1.97-1-.55-1.58-.71-2.15-.86-.56-.15-1.14-.31-2.07-.82-2.58-1.42-3.95-3.4-5.17-5.16-2.32-3.35-3.17-6.5-3.42-7.71-.6-2.8-.6-5.76,0-8.57l.31-1.47,.31,1.47c1.16,5.58,3.38,9.48,6.61,11.61,1.43,.94,2.89,1.43,4.3,1.91,2.23,.75,4.54,1.53,6.73,4.05,.5,.57,.83,1.05,1.18,1.55,.51,.74,1.04,1.5,2.18,2.66,1.92,1.96,3.44,3.5,5.76,4.13,3.19,.87,6.24-.37,7.39-.83,.88-.36,1.54-.73,2.19-1.1,1.08-.61,2.09-1.19,3.79-1.45,1.13-.18,2.3-.18,3.47,0l.59,.09-.4,.44c-1.07,1.17-2.21,2.32-3.39,3.39-1.95,1.78-2.92,2.67-4.28,3.42-2.69,1.48-5.21,1.63-6.88,1.73-.51,.03-1.09,.06-1.75,.06Zm-27.75-29.99c-.3,2.25-.21,4.57,.26,6.77,.25,1.17,1.07,4.23,3.32,7.48,1.18,1.7,2.51,3.62,4.95,4.96,.87,.48,1.39,.62,1.93,.77,.6,.16,1.22,.33,2.29,.92,1.26,.7,1.85,1.27,2.67,2.07,.57,.55,1.28,1.24,2.44,2.18,2.18,1.76,3.27,2.65,4.98,3.33,2.65,1.05,5.03,.91,6.61,.82,1.61-.09,4.05-.24,6.62-1.65,1.29-.71,2.25-1.59,4.16-3.33,1.01-.93,2-1.9,2.94-2.9-.9-.09-1.8-.06-2.67,.07-1.58,.25-2.51,.77-3.58,1.38-.66,.38-1.35,.76-2.26,1.13-1.2,.49-4.4,1.78-7.79,.86-2.48-.68-4.06-2.28-6.05-4.3-1.18-1.2-1.73-1.98-2.25-2.74-.34-.49-.66-.95-1.13-1.49-2.08-2.39-4.2-3.11-6.46-3.87-1.45-.49-2.95-1-4.45-1.98-3.06-2.02-5.26-5.54-6.53-10.48Z"/><path class="cls-7" d="M83.8,54.41c-.73,1.05-1.67,2.57-2.5,4.5-.3,.7-1.56,3.73-2,8-.31,2.95-.08,5.24,0,6,.86,7.78,5.28,12.82,5,13-.28,.18-5.7-4.55-7-12-.75-4.31,.13-8.11,1-12,.85-3.79,2.03-6.85,3-9,.83,.5,1.67,1,2.5,1.5Z"/><path class="cls-7" d="M106.81,37.1l-.11-.48c-.3-1.27-.85-2.37-1.64-3.28-.25-.28-1.27-1.3-4.14-2.47-1.65-.67-2.62-.76-3.65-.86-.98-.09-2.1-.2-3.93-.82-.97-.33-1.5-.58-2.01-.83-.57-.27-1.11-.53-2.2-.85-1.62-.48-3.31-.76-5.01-.84l-.48-.02,.35-.34c2.56-2.51,5.13-4.51,7.63-5.94,.74-.42,1.56-.84,2.63-.87,.04,0,.09,0,.13,0,2.38,0,4.34,1.88,5.08,2.59,.58,.56,.93,.96,1.21,1.28,.38,.44,.66,.76,1.3,1.23,1.15,.86,2.54,1.41,4.12,1.65h.07s2.64,2.65,2.64,2.65v.93c0,2.16,0,2.44,0,2.52-.01,1.16-.59,2.62-1.72,4.35l-.27,.41Zm-22.19-10.83c1.57,.11,3.13,.38,4.63,.83,1.12,.33,1.68,.6,2.26,.88,.5,.24,1.02,.49,1.97,.81,1.79,.61,2.83,.71,3.84,.8,1.06,.1,2.06,.19,3.77,.89,2.95,1.21,4.04,2.29,4.3,2.59,.74,.85,1.28,1.85,1.61,2.99,.92-1.48,1.39-2.73,1.4-3.7,0-.09,0-.37,0-2.53v-.76l-2.42-2.42c-1.62-.25-3.05-.83-4.24-1.72-.68-.51-.98-.85-1.37-1.3-.29-.33-.61-.71-1.18-1.25-.71-.68-2.58-2.47-4.79-2.47-.04,0-.08,0-.12,0-.97,.03-1.71,.4-2.43,.82-2.36,1.35-4.78,3.21-7.2,5.54Z"/><path class="cls-7" d="M105.81,48.87c-.45,0-.95-.1-1.51-.29l-.24-.08,.12-.22c.43-.79,.71-1.61,.82-2.46,.15-1.1-.02-1.96-.16-2.72-.17-.9-.32-1.68,.2-2.43,.27-.39,.59-.59,.87-.77,.35-.22,.63-.4,.79-.87,.09-.26,.05-.76-.01-1.6-.03-.41-.06-.75-.09-1.02-.08-.77-.12-1.16,.11-1.62,.21-.42,.5-.62,.73-.79,.06-.04,.12-.08,.17-.12,.82-.68,.8-2.59-.07-5.69l-.12-.43,.41,.19c2.33,1.05,4.34,2.48,5.97,4.27,1,1.09,2.13,2.32,2.58,4.31,.13,.58,.44,1.94,0,3.48-.19,.67-.43,1.03-.7,1.44-.29,.43-.61,.93-.99,1.95-.09,.25-.16,.46-.22,.64-.19,.56-.3,.91-.71,1.16-.5,.31-1.03,.16-1.51,.02-.4-.12-.75-.22-1.01-.03-.22,.15-.27,.41-.32,.7-.06,.35-.14,.75-.54,.99-.35,.21-.66,.12-.94,.05-.25-.07-.49-.13-.79-.03-.4,.12-.57,.4-.79,.75-.2,.31-.42,.66-.85,.92-.34,.2-.74,.31-1.2,.31Zm-1.14-.61c.9,.27,1.61,.25,2.12-.06,.34-.21,.52-.49,.71-.79,.24-.37,.48-.75,1.02-.92,.42-.13,.76-.04,1.03,.03,.28,.07,.43,.1,.61,0,.23-.14,.28-.36,.34-.71,.06-.34,.13-.72,.49-.97,.43-.3,.93-.16,1.37-.03,.42,.12,.82,.24,1.17,.02,.27-.17,.35-.41,.53-.93,.06-.18,.13-.4,.23-.65,.4-1.06,.75-1.6,1.03-2.03,.26-.4,.47-.72,.65-1.33,.41-1.44,.12-2.72,0-3.27-.43-1.88-1.52-3.07-2.48-4.12-1.5-1.64-3.32-2.97-5.43-3.98,.81,3.05,.75,4.91-.19,5.69-.06,.05-.12,.09-.19,.14-.2,.15-.44,.31-.6,.63-.18,.35-.15,.65-.07,1.39,.03,.28,.06,.62,.09,1.03,.07,.92,.1,1.43-.01,1.77-.21,.61-.59,.86-.97,1.09-.27,.17-.53,.33-.75,.65-.42,.61-.3,1.24-.13,2.12,.14,.75,.32,1.69,.17,2.85-.11,.81-.36,1.61-.75,2.38Z"/><path class="cls-7" d="M80.96,27.71l.48-.55c.43-.49,.7-1.03,.8-1.58,.15-.89-.17-1.58-.48-2.26-.31-.66-.6-1.29-.36-1.99,.31-.92,1.29-1.29,2.65-1.82,1.06-.41,1.73-.47,2.65-.55,.61-.05,1.36-.12,2.45-.31h0c1-.17,1.56-.32,2.06-.45,.63-.16,1.12-.29,2.18-.4,1.21-.12,2.43-.12,3.42,0,.92,.11,2.07,.24,3.44,.86,.4,.18,1.47,.72,2.58,1.72,1.09,.97,1.95,2.13,2.58,3.44,.39,.82,.68,1.69,.86,2.58l.05,.27-.27-.02c-1.23-.08-2.39-.37-3.45-.86-1.58-.74-2.49-1.72-3.37-2.67-.92-.99-1.79-1.93-3.35-2.38-.51-.15-1.88-.54-3.24,0-.96,.38-1.42,1-2.02,1.8-.35,.47-.74,.99-1.29,1.53-1.26,1.23-2.93,2.11-4.97,2.61l-3.41,1.03Zm8.27-8.64c-1.1,.19-1.87,.26-2.48,.31-.92,.08-1.53,.14-2.54,.52-1.3,.5-2.16,.83-2.41,1.56-.18,.55,.06,1.07,.34,1.68,.32,.7,.69,1.49,.51,2.51-.08,.44-.24,.86-.5,1.26l2.1-.63c1.98-.48,3.59-1.32,4.79-2.5,.52-.52,.89-1.01,1.25-1.48,.61-.82,1.13-1.52,2.2-1.94,1.5-.59,2.96-.17,3.51,0,1.67,.48,2.58,1.46,3.54,2.5,.85,.92,1.73,1.87,3.24,2.58,.93,.44,1.95,.71,3.02,.8-.17-.76-.43-1.5-.77-2.21-.6-1.26-1.44-2.37-2.48-3.31-1.07-.96-2.09-1.48-2.48-1.65-1.3-.59-2.42-.72-3.31-.83-.96-.11-2.15-.11-3.33,0-1.02,.1-1.5,.22-2.11,.38-.51,.13-1.08,.28-2.09,.46h0Z"/><path class="cls-7" d="M79.42,37.07l-.47-.33c-1.38-.96-3.24-2.63-4.29-5.15-.24-.58-.75-1.8-.86-3.44-.04-.64,0-1.01,.03-1.35,.04-.36,.07-.65-.03-1.16-.05-.3-.16-.91-1.66-3.3-.53-.84-1.09-1.69-1.68-2.52l-.16-.22,.26-.1c1.1-.41,2.25-.7,3.42-.85,.97-.13,2.44-.33,4.28,0,1.52,.28,2.96,.85,4.29,1.72l.17,.11-.1,.17c-.76,1.26-.81,1.59-.81,1.6,0,.28,.11,.42,.29,.66,.16,.21,.37,.48,.54,.94,.02,.06,.53,1.43,0,2.69-.25,.58-.59,.83-.98,1.13-.22,.16-.47,.35-.75,.63-1.02,1.02-1.34,2.22-1.63,3.28-.55,2.02-.3,3.81,0,4.95l.15,.56Zm-8.46-17.27c.53,.76,1.05,1.54,1.53,2.31,1.54,2.46,1.65,3.1,1.72,3.45,.1,.58,.07,.9,.03,1.28-.03,.32-.07,.67-.03,1.28,.1,1.57,.59,2.74,.83,3.31,.9,2.16,2.42,3.68,3.69,4.64-.24-1.18-.36-2.81,.13-4.61,.3-1.11,.65-2.37,1.74-3.47,.3-.3,.56-.49,.79-.67,.38-.28,.65-.48,.85-.95,.47-1.1,0-2.36,0-2.37-.15-.4-.32-.62-.48-.83-.2-.25-.38-.49-.38-.94,0-.09,.07-.43,.77-1.62-1.24-.77-2.57-1.29-3.97-1.55-1.78-.32-3.21-.13-4.15,0-1.04,.14-2.08,.39-3.07,.74Z"/><path class="cls-7" d="M101.01,50.28h0c-1.27,0-2.21-.6-2.61-.86-.72-.46-1.33-1.07-1.78-1.77l-.22-.35,.41,.02c.56,.03,1.15,.07,1.71,.04h.19c.57,0,1.06,0,1.43-.04,1.69-.2,2.83-.75,3.21-1.57,.23-.49,.12-.93,0-1.44-.13-.55-.29-1.17,0-1.92,.28-.73,.88-1.34,1.79-1.8l.16-.08,.11,.15c.66,.92,.95,1.82,.88,2.67-.04,.5-.2,.9-.36,1.32-.22,.55-.44,1.13-.48,2.04-.01,.28,0,.41,.01,.5,.01,.12,.02,.21-.02,.38-.33,1.62-2.55,2.7-4.42,2.7Zm-3.81-2.51c.38,.51,.85,.94,1.38,1.28,.4,.26,1.27,.81,2.42,.81h0c1.67,0,3.72-.97,4-2.36,.02-.12,.02-.16,.01-.25-.01-.11-.03-.25-.01-.56,.04-.99,.29-1.62,.51-2.18,.16-.41,.3-.77,.34-1.2,.06-.7-.18-1.45-.7-2.24-.72,.4-1.2,.9-1.42,1.49-.24,.62-.11,1.13,.02,1.67,.13,.54,.27,1.1-.02,1.72-.45,.96-1.67,1.59-3.54,1.81-.4,.05-.9,.04-1.48,.05h-.22c-.43,0-.86,0-1.28-.03Z"/><path d="M91.01,36.32c-.19,0-.4-.02-.62-.05l-.17-.03v-.17c-.03-.43-.14-.91-.33-1.42-.23-.6-.5-1.06-.75-1.46-.28-.46-.5-.83-.54-1.23-.04-.4,.13-.63,.27-.75,.27-.22,.7-.27,1.18-.13,.79,.23,1.97,1.07,2.58,2.07,.43,.71,.39,1.22,.37,1.6h0c-.06,.87-.6,1.16-.89,1.31-.31,.17-.68,.25-1.11,.25Zm-.39-.45c.52,.06,.96,0,1.3-.18,.27-.14,.63-.33,.67-.97h0c.02-.36,.05-.76-.31-1.36-.54-.9-1.63-1.68-2.33-1.88-.34-.1-.64-.08-.79,.05-.1,.08-.14,.21-.12,.39,.03,.31,.23,.64,.48,1.05,.24,.4,.54,.89,.78,1.52,.18,.48,.3,.94,.34,1.37Z"/><path d="M95.36,36.74c-.84,0-1.72-.13-2.63-.38l-.4-.11,.32-.26c.35-.28,.6-.62,.74-.99,.17-.44,.14-.8,.11-1.13-.03-.4-.06-.77,.29-1.08,.61-.55,1.85-.44,2.75-.12,1.09,.4,2.26,1.34,2.32,2.24,.05,.68-.53,1.04-.91,1.28h0c-.82,.51-1.82,.54-2.43,.55-.06,0-.12,0-.18,0Zm-2.15-.69c.8,.19,1.58,.28,2.32,.27,.59-.01,1.49-.03,2.21-.49h0c.42-.26,.74-.5,.71-.89-.05-.63-.98-1.48-2.05-1.87-.93-.34-1.93-.32-2.32,.03-.19,.17-.18,.36-.15,.74,.03,.35,.06,.78-.14,1.31-.13,.33-.32,.63-.58,.9Z"/><path d="M100.81,40.87c-.42,0-.9-.12-1.31-.23h0c-1.18-.3-2.15-.84-2.74-1.17-.88-.49-1.68-1.05-2.39-1.66l-.61-.52,.78,.16c.61,.12,1.16,.17,1.64,.14,.55-.03,.83-.15,1.08-.26,.29-.12,.57-.24,1.1-.15,.94,.17,2.04,.86,2.63,1.45,.56,.55,.85,1.17,.76,1.62-.05,.24-.2,.42-.44,.53-.15,.06-.33,.09-.52,.09Zm-5.56-2.89c.53,.41,1.11,.79,1.72,1.13,.6,.33,1.51,.84,2.63,1.13h0c.51,.13,1.2,.31,1.56,.16,.11-.05,.17-.11,.19-.22,.06-.3-.2-.79-.65-1.24-.54-.54-1.56-1.19-2.41-1.34-.41-.07-.59,0-.86,.12-.27,.11-.6,.25-1.22,.29-.3,.02-.62,0-.97-.03Z"/><path d="M91.53,42.34s-.08,0-.12,0c-.82-.04-1.89-.45-2.27-1.08-.29-.48-.08-.89,.06-1.16h0c.31-.59,.93-.86,1.3-1.01,.54-.23,1.18-.36,1.88-.4h.27s-.09,.24-.09,.24c-.1,.29-.12,.59-.06,.9,.07,.37,.23,.63,.37,.87,.17,.28,.33,.54,.24,.86-.16,.55-.91,.79-1.58,.79Zm.62-3.28c-.56,.05-1.07,.16-1.51,.35-.35,.15-.87,.37-1.12,.85h0c-.15,.3-.25,.53-.08,.81,.28,.47,1.17,.87,1.98,.91,.66,.04,1.24-.2,1.33-.53,.05-.16-.04-.31-.2-.58-.15-.25-.34-.56-.42-.99-.05-.28-.05-.56,0-.83Z"/><path d="M97.37,44.46c-.15,0-.3-.02-.45-.05-.78-.17-1.38-.7-1.86-1.13h0c-.97-.87-1.37-1.75-1.61-2.27-.36-.8-.54-1.59-.54-2.37v-.43s.34,.27,.34,.27c.54,.43,1.12,.78,1.72,1.05,.7,.32,1.21,.42,1.65,.52,.5,.1,.93,.19,1.4,.55,.89,.67,1.24,1.73,1.12,2.44-.07,.44-.33,.84-.71,1.1-.31,.21-.67,.32-1.06,.32Zm-2.03-1.49c.44,.4,1,.89,1.67,1.03,.44,.09,.86,.02,1.19-.21,.29-.19,.48-.5,.54-.82,.1-.57-.21-1.48-.96-2.04-.4-.29-.75-.37-1.23-.47-.45-.09-1-.21-1.74-.55-.5-.23-.99-.51-1.45-.84,.05,.57,.21,1.16,.48,1.75,.24,.53,.6,1.32,1.51,2.13h0Z"/><path d="M91,36.52l-.38-.17c-.61-.27-1.25-.46-1.88-.58-.74-.13-1.25-.11-1.7-.1-.5,.02-.93,.03-1.46-.18-1-.41-1.57-1.32-1.61-2-.03-.42,.12-.83,.42-1.16,.34-.38,.84-.6,1.41-.62,.79-.02,1.51,.34,2.03,.61h0c1.12,.58,1.7,1.29,2.04,1.72,.52,.65,.87,1.34,1.03,2.06l.09,.41Zm-3.49-1.27c.36,0,.78,.02,1.3,.12,.53,.09,1.05,.24,1.57,.44-.17-.51-.45-1-.83-1.48-.34-.43-.86-1.08-1.9-1.61h0c-.51-.26-1.14-.6-1.82-.57-.45,.02-.85,.18-1.11,.48-.22,.24-.33,.54-.31,.85,.03,.54,.52,1.3,1.35,1.64,.44,.18,.8,.17,1.28,.15,.15,0,.31-.01,.48-.01Z"/><path d="M88.35,39.36s-.05,0-.08,0c-.85-.03-2.04-.5-2.77-.95-.6-.37-1.25-.95-1.27-1.45,0-.18,.07-.34,.21-.45,.32-.24,.9-.2,1.63-.12h0c1.11,.12,2.14,.48,2.75,.69,.93,.32,1.82,.72,2.66,1.18l.83,.45-.94-.05c-.55-.03-1.03,0-1.42,.08-.43,.09-.6,.22-.77,.35-.19,.15-.38,.28-.82,.28Zm-3.13-2.62c-.23,0-.43,.02-.53,.1-.03,.03-.05,.05-.04,.09,0,.22,.39,.69,1.08,1.11,.79,.49,1.89,.87,2.57,.89,.35,.02,.46-.07,.64-.2,.19-.14,.42-.31,.94-.42,.2-.04,.41-.07,.65-.09-.59-.28-1.2-.53-1.83-.75-.64-.22-1.6-.56-2.66-.67h0c-.24-.03-.54-.06-.8-.06Z"/><g><path class="cls-2" d="M93.84,36.09c.39,.22,1.76,1,1.9,2.05,.09,.66-.32,1.25-1.12,1.48-.97,.28-2.2-.07-3.02-.57-1.73-1.06-1.38-2.65-1.34-2.79,.06-.22,.15-.56,.56-.74,.54-.24,1.28-.06,1.64,.02,.16,.04,.73,.18,1.39,.55Z"/><path class="cls-6" d="M93.86,39.93c-.89,0-1.78-.34-2.37-.7-1.84-1.13-1.48-2.83-1.44-3.02,.06-.23,.16-.66,.68-.88,.61-.26,1.39-.08,1.77,0,.27,.06,.82,.22,1.44,.57l-.1,.18,.1-.18c1.22,.7,1.9,1.44,2.01,2.2,.11,.79-.39,1.46-1.27,1.71-.27,.08-.54,.11-.82,.11Zm-2.39-4.31c-.2,0-.4,.03-.57,.1-.3,.13-.38,.36-.44,.6-.04,.16-.34,1.58,1.25,2.56,.76,.46,1.93,.81,2.86,.55,.68-.19,1.05-.67,.97-1.25-.09-.63-.69-1.27-1.8-1.89h0c-.58-.33-1.08-.47-1.33-.53-.2-.05-.57-.13-.93-.13Z"/></g><path class="cls-7" d="M97.79,56.48c-.88,0-1.8-.09-2.74-.3-2.04-.47-3.78-1.34-5.16-2.58-.7-.63-1.03-1.1-1.48-1.76-.41-.59-.92-1.33-1.91-2.48-1.44-1.67-2.16-2.5-3.34-3.34-1.14-.81-1.91-1.05-2.88-1.35-.79-.25-1.68-.53-2.99-1.16-1.63-.78-3.47-1.67-5.12-3.42-2.18-2.31-2.9-4.92-3.42-6.83-1.07-3.91-.85-7.63-.85-7.66,.01-.2,.03-.39,.04-.6,.07-.97,.16-2.08-.04-3.58-.15-1.13-.43-2.25-.83-3.33l-.17-.47,.46,.2c.57,.25,1.15,.54,1.71,.85,.7,.4,1.76,.99,2.57,1.71,1.91,1.72,2.45,4.2,2.6,5.19,.06,.41,.1,.77,.14,1.17,.06,.6,.13,1.29,.3,2.34,.08,.48,.21,.98,.4,1.51,.26,.74,.68,1.97,1.66,3.32,1,1.38,2.07,2.19,2.48,2.48,1.11,.77,1.99,1.03,3.11,1.35,.33,.09,.67,.19,1.05,.31,3.3,1.05,5.67,2.64,6.8,3.4,.68,.46,2.15,1.72,5.08,4.23l.58,.5c2.39,2.05,3.11,2.67,4.37,2.83,.91,.11,1.98-.2,4.13-.84,1.21-.36,2.59-.76,4.17-1.67h0c.85-.49,1.22-.81,1.52-1.06,.31-.26,.53-.45,1.04-.64,1.4-.51,2.52-.13,3.7,.28,.72,.24,1.46,.5,2.29,.55,2.07,.14,4.27-.98,6.58-3.31l.69-.7-.34,.92c-.62,1.68-1.19,3.38-1.68,5.05-.14,.48-.26,.9-.37,1.27-.46,1.61-.65,2.28-1.37,3.03-1.66,1.73-4.11,1.74-4.37,1.75-.72,0-1.08-.15-1.54-.33-.41-.16-.91-.35-1.87-.52-.71-.12-2.39-.41-4.13,0-1.14,.27-1.85,.72-2.59,1.21-.23,.15-.47,.3-.72,.46-.17,.1-3.43,2.01-7.54,2.01Zm-30.17-38.07c.32,.96,.55,1.95,.69,2.95,.21,1.55,.12,2.67,.04,3.67-.02,.2-.03,.4-.04,.59,0,.04-.21,3.69,.84,7.52,.51,1.87,1.21,4.43,3.32,6.66,1.6,1.69,3.4,2.56,5,3.33,1.28,.62,2.16,.89,2.93,1.14,1.01,.32,1.81,.57,3,1.41,1.22,.87,1.95,1.72,3.41,3.41,1,1.16,1.52,1.91,1.94,2.51,.44,.63,.76,1.09,1.42,1.69,1.32,1.2,2.99,2.03,4.97,2.48,5.13,1.17,9.77-1.55,9.97-1.66,.25-.15,.48-.3,.71-.45,.78-.5,1.51-.98,2.73-1.26,1.83-.42,3.56-.13,4.3,0,1,.17,1.53,.38,1.95,.54,.43,.17,.75,.29,1.39,.3,.24,0,2.52-.02,4.06-1.62,.65-.68,.82-1.27,1.27-2.86,.1-.37,.22-.79,.37-1.27,.41-1.39,.87-2.8,1.38-4.21-2.17,1.99-4.26,2.93-6.25,2.8-.89-.06-1.66-.32-2.4-.57-1.16-.4-2.16-.74-3.42-.28-.45,.16-.62,.31-.91,.56-.3,.25-.7,.6-1.58,1.11h0c-1.63,.93-3.03,1.34-4.26,1.71-2.2,.65-3.31,.98-4.3,.85-1.39-.17-2.14-.81-4.59-2.93l-.58-.5c-2.91-2.5-4.38-3.76-5.04-4.2-1.21-.81-3.45-2.32-6.69-3.35-.37-.12-.71-.22-1.04-.31-1.11-.32-2.07-.59-3.24-1.41-.43-.3-1.54-1.15-2.58-2.58-1.01-1.4-1.45-2.67-1.72-3.43-.19-.56-.33-1.07-.41-1.58-.18-1.07-.25-1.76-.31-2.37-.04-.39-.07-.75-.13-1.15-.14-.94-.66-3.31-2.46-4.94-.77-.69-1.81-1.27-2.49-1.66-.4-.23-.81-.44-1.22-.63Z"/><g class="cls-8"><path class="cls-4" d="M93.63,36.6c.31,.18,1.38,.79,1.5,1.61,.07,.52-.26,.98-.88,1.16-.77,.22-1.73-.05-2.38-.45-1.36-.84-1.09-2.09-1.06-2.2,.04-.18,.11-.44,.44-.58,.42-.19,1.01-.05,1.29,.01,.13,.03,.58,.14,1.09,.44Z"/></g><g class="cls-8"><path class="cls-3" d="M93.5,35.99c.31,.18,1.38,.79,1.5,1.61,.07,.52-.26,.98-.88,1.16-.77,.22-1.73-.05-2.38-.45-1.36-.84-1.09-2.09-1.06-2.2,.04-.18,.11-.44,.44-.58,.42-.19,1.01-.05,1.29,.01,.13,.03,.58,.14,1.09,.44Z"/></g><g class="cls-8"><path class="cls-3" d="M93.32,36.46c.17,.1,.78,.44,.85,.91,.04,.29-.14,.56-.5,.66-.43,.12-.98-.03-1.34-.25-.77-.47-.61-1.18-.6-1.24,.02-.1,.06-.25,.25-.33,.24-.1,.57-.03,.73,0,.07,.02,.32,.08,.62,.25Z"/></g><g><path class="cls-7" d="M8.27,59.05L3.43,34.37h2.76c2.76,14.04,3.4,14.8,5.72,14.8,2.64,0,3.72-.8,6.6-15.84h2.64l-5.32,25.72h-7.56Z"/><path class="cls-7" d="M22.71,34.01h3.56v24.72h-3.56v-24.72Z"/><path class="cls-7" d="M29.87,32.89h3.16v8.48c0,10.44,.96,11.16,8.92,11.16v5.96h-12.08v-25.6Z"/><path class="cls-7" d="M44.15,58.77v-25.56c11.36,0,16.76,.6,16.76,10.4,0,14.04-1.2,15.16-16.76,15.16Zm7.4-16.72c-4.08,0-4.8,1.32-4.8,5.8,0,4.76,.72,5.72,3.92,5.72,6.24,0,7.16-1.28,7.16-5.24,0-4.76-.84-6.28-6.28-6.28Z"/></g><g><path class="cls-7" d="M133.91,58.32v-6.2c10,0,11.48-.08,11.48-1.32,0-1.12-.68-1.64-4.8-1.64-5.2,0-7.48-1.48-7.48-7.52s4.52-8.44,14.84-8.44v9.48c-10.6,0-11.16,.72-11.16,2.08,0,1.08,.48,1.44,4.04,1.44,5.6,0,7.56,1.8,7.56,5.08,0,6.08-4.08,7.04-14.48,7.04Z"/><path class="cls-7" d="M167.11,58.76h-4.68c-.84-6.04-1.96-6.6-5.72-6.6-2.64,0-3.48,.92-3.48,6.28h-2.24v-25.6h3.36c0,10.24,.36,12.12,1.72,12.12,1.44,0,2.8-2.48,7.64-12.56h4.24l-7,13.04c4.12,1.48,4.84,3.92,6.16,13.32Z"/><path class="cls-7" d="M177.03,59.28c-7.4,0-7.88-4.72-7.88-25.12h3.28c0,13.04,.32,16.16,4.88,16.16,5.2,0,5.16-3.28,5.16-17.12h2.44c0,21.52-.6,26.08-7.88,26.08Z"/><path class="cls-7" d="M187.91,57.84v-25.56c11.36,0,16.76,.6,16.76,10.4,0,14.04-1.2,15.16-16.76,15.16Zm7.4-16.72c-4.08,0-4.8,1.32-4.8,5.8,0,4.76,.72,5.72,3.92,5.72,6.24,0,7.16-1.28,7.16-5.24,0-4.76-.84-6.28-6.28-6.28Z"/></g></svg>