<svg width="300" height="300" viewBox="0 0 300 300" fill="none" xmlns="http://www.w3.org/2000/svg">
<rect width="300" height="300" rx="15" fill="#F7E6CF"/>
<path fill-rule="evenodd" clip-rule="evenodd" d="M85.0835 141.792C85.0835 136.587 87.1511 131.595 90.8315 127.915C94.5119 124.234 99.5036 122.167 104.708 122.167H196.292C201.497 122.167 206.488 124.234 210.169 127.915C213.849 131.595 215.917 136.587 215.917 141.792V148.333H85.0835V141.792ZM85.0835 161.417V207.208C85.0835 212.413 87.1511 217.405 90.8315 221.085C94.5119 224.766 99.5036 226.833 104.708 226.833H196.292C201.497 226.833 206.488 224.766 210.169 221.085C213.849 217.405 215.917 212.413 215.917 207.208V161.417H85.0835ZM117.792 174.5C116.057 174.5 114.393 175.189 113.166 176.416C111.939 177.643 111.25 179.307 111.25 181.042C111.25 182.777 111.939 184.44 113.166 185.667C114.393 186.894 116.057 187.583 117.792 187.583H150.5C152.235 187.583 153.899 186.894 155.126 185.667C156.353 184.44 157.042 182.777 157.042 181.042C157.042 179.307 156.353 177.643 155.126 176.416C153.899 175.189 152.235 174.5 150.5 174.5H117.792Z" fill="#CF2E2E"/>
<path d="M130.594 50.909C130.594 44.21 130 43.088 116.635 43.088V65.528C128.317 65.528 129.703 63.647 129.703 59.555C129.703 57.212 129.109 56.189 127.459 55.595C129.703 55.298 130.594 53.549 130.594 50.909ZM127.69 52.625C127.69 54.11 126.634 54.77 123.301 54.77C119.935 54.77 119.275 53.945 119.275 52.625C119.275 51.338 119.539 50.513 123.301 50.513C127.03 50.513 127.69 51.14 127.69 52.625ZM126.7 58.532C126.7 59.72 125.71 60.446 122.476 60.446C119.242 60.446 118.615 59.555 118.615 58.532C118.615 57.476 118.879 56.618 122.476 56.618C126.073 56.618 126.7 57.311 126.7 58.532ZM133.73 65.264H145.214V60.941C136.865 60.941 136.172 60.479 136.172 59.06C136.172 57.575 136.799 57.179 143.894 57.179V55.034C136.172 55.034 135.743 54.539 135.743 53.186C135.743 51.965 136.403 51.602 144.917 51.602V44.771H133.73V65.264ZM160.195 50.315V44.375H147.358V51.206C152.704 51.206 152.77 51.503 152.77 65.462H154.816C154.816 50.645 154.816 50.315 160.195 50.315ZM173.219 65.099H175.397L171.206 43.649H163.979L160.184 64.142H163.352C163.946 61.766 164.375 60.809 167.939 60.809C172.229 60.809 172.658 61.832 173.219 65.099ZM170.249 54.869C171.173 57.839 170.018 58.598 166.982 58.598C164.111 58.598 163.418 57.575 164.111 54.869C164.936 51.569 166.19 51.305 166.982 51.305C167.807 51.305 169.292 51.734 170.249 54.869ZM177.54 64.439H187.506V59.522C180.939 59.522 180.147 58.928 180.147 50.315V43.319H177.54V64.439Z" fill="#CF2E2E"/>
</svg>
