<svg width="300" height="300" viewBox="0 0 300 300" fill="none" xmlns="http://www.w3.org/2000/svg">
<rect width="300" height="300" rx="15" fill="#F7E6CF"/>
<path d="M196.292 128.167H183.208V121.625C183.208 119.89 182.519 118.226 181.292 116.999C180.065 115.772 178.402 115.083 176.667 115.083C174.932 115.083 173.268 115.772 172.041 116.999C170.814 118.226 170.125 119.89 170.125 121.625V128.167H130.875V121.625C130.875 119.89 130.186 118.226 128.959 116.999C127.732 115.772 126.068 115.083 124.333 115.083C122.598 115.083 120.934 115.772 119.708 116.999C118.481 118.226 117.792 119.89 117.792 121.625V128.167H104.708C99.5034 128.167 94.5117 130.234 90.8313 133.915C87.1509 137.595 85.0833 142.587 85.0833 147.792V226.292C85.0833 231.496 87.1509 236.488 90.8313 240.169C94.5117 243.849 99.5034 245.917 104.708 245.917H196.292C201.496 245.917 206.488 243.849 210.169 240.169C213.849 236.488 215.917 231.496 215.917 226.292V147.792C215.917 142.587 213.849 137.595 210.169 133.915C206.488 130.234 201.496 128.167 196.292 128.167V128.167ZM202.833 226.292C202.833 228.027 202.144 229.69 200.917 230.917C199.69 232.144 198.027 232.833 196.292 232.833H104.708C102.973 232.833 101.309 232.144 100.083 230.917C98.8558 229.69 98.1666 228.027 98.1666 226.292V180.5H202.833V226.292ZM202.833 167.417H98.1666V147.792C98.1666 146.057 98.8558 144.393 100.083 143.166C101.309 141.939 102.973 141.25 104.708 141.25H117.792V147.792C117.792 149.527 118.481 151.19 119.708 152.417C120.934 153.644 122.598 154.333 124.333 154.333C126.068 154.333 127.732 153.644 128.959 152.417C130.186 151.19 130.875 149.527 130.875 147.792V141.25H170.125V147.792C170.125 149.527 170.814 151.19 172.041 152.417C173.268 153.644 174.932 154.333 176.667 154.333C178.402 154.333 180.065 153.644 181.292 152.417C182.519 151.19 183.208 149.527 183.208 147.792V141.25H196.292C198.027 141.25 199.69 141.939 200.917 143.166C202.144 144.393 202.833 146.057 202.833 147.792V167.417Z" fill="#CF2E2E"/>
<path d="M98.2801 60.901L102.669 39.682H100.491C98.1151 52.09 97.2241 52.75 95.0461 52.75C93.1321 52.75 92.6041 52.123 90.3271 40.54H88.0501L92.0431 60.901H98.2801ZM115.66 61.264H127.309V57.865C118.96 57.865 118.267 57.337 118.267 55.753C118.267 54.136 118.927 53.641 125.989 53.641V51.265C118.267 51.265 117.838 50.704 117.838 49.219C117.838 47.866 118.498 47.437 127.045 47.437V40.276H110.611L102.79 60.142H105.958C107.014 57.766 107.641 56.809 111.205 56.809C115.495 56.809 115.726 57.832 115.66 61.099V61.264ZM114.703 50.869C115.033 53.839 113.713 54.598 110.677 54.598C107.806 54.598 107.278 53.542 108.532 50.869C110.248 47.173 111.469 46.645 112.228 46.645C113.053 46.645 114.307 47.536 114.703 50.869ZM130.112 60.439H140.078V55.522C133.511 55.522 132.719 54.928 132.719 46.315V39.319H130.112V60.439ZM154.726 60.34V50.374H150.865C150.865 55.687 150.04 56.611 147.499 56.611C144.727 56.611 143.737 55.159 143.737 52.453C143.737 48.229 144.562 47.305 148.687 47.305H153.67V40.012C153.67 40.012 151.855 39.583 148.654 39.583C142.879 39.583 141.427 42.883 141.427 48.757C141.427 59.119 143.242 60.736 148.357 60.736C151.789 60.736 154.726 60.34 154.726 60.34ZM178.951 48.163C178.951 40.078 174.496 39.583 165.124 39.583V60.67C177.961 60.67 178.951 59.746 178.951 48.163ZM176.41 52.057C176.41 55.324 175.651 56.38 170.503 56.38C167.863 56.38 167.269 55.588 167.269 51.661C167.269 47.965 167.863 46.876 171.229 46.876C175.717 46.876 176.41 48.13 176.41 52.057ZM193.641 61.099H195.819L191.628 39.649H184.401L180.606 60.142H183.774C184.368 57.766 184.797 56.809 188.361 56.809C192.651 56.809 193.08 57.832 193.641 61.099ZM190.671 50.869C191.595 53.839 190.44 54.598 187.404 54.598C184.533 54.598 183.84 53.575 184.533 50.869C185.358 47.569 186.612 47.305 187.404 47.305C188.229 47.305 189.714 47.734 190.671 50.869ZM210.766 60.34V50.374H206.905C206.905 55.687 206.08 56.611 203.539 56.611C200.767 56.611 199.777 55.159 199.777 52.453C199.777 48.229 200.602 47.305 204.727 47.305H209.71V40.012C209.71 40.012 207.895 39.583 204.694 39.583C198.919 39.583 197.467 42.883 197.467 48.757C197.467 59.119 199.282 60.736 204.397 60.736C207.829 60.736 210.766 60.34 210.766 60.34Z" fill="#CF2E2E"/>
</svg>
