<svg width="300" height="300" viewBox="0 0 300 300" fill="none" xmlns="http://www.w3.org/2000/svg">
<rect width="300" height="300" rx="15" fill="#F7E6CF"/>
<g clip-path="url(#clip0_124_8662)">
<path d="M127.019 174.466C119.731 177.086 114.841 184.796 115.333 193.045C117.649 189.856 121.185 187.103 125.469 185.293L127.019 174.466V174.466ZM104.462 186.965L98.0166 141.957C97.9577 141.551 98.0735 141.3 98.0654 141.292C109.798 133.254 123.074 129.004 136.458 129.004C136.785 129.004 137.114 129.047 137.443 129.052C140.276 125.674 143.888 123.328 147.922 122.533C151.759 121.776 155.651 121.392 159.537 121.199C157.507 117.701 154.564 115.124 151.052 114.429C146.195 113.474 141.314 113 136.456 113C120.884 113 105.52 117.869 91.7442 127.307C86.8347 130.671 84.2042 137.692 85.2138 144.737L91.6589 189.746C94.5493 209.935 119.351 225.369 133.187 225.369C133.917 225.369 134.559 225.254 135.221 225.169C132.475 220.886 129.342 215.019 127.197 208.225C117.527 204.97 105.654 195.282 104.462 186.965V186.965ZM124.276 152.5C124.128 151.467 123.823 150.527 123.45 149.642C121.774 151.876 119.251 153.591 116.275 154.235C113.3 154.882 110.452 154.335 108.256 152.939C108.15 153.927 108.126 154.94 108.274 155.973C109.054 161.413 113.267 165.046 117.687 164.089C122.105 163.131 125.056 157.941 124.276 152.5V152.5ZM208.256 143.313C190.182 130.932 169.372 126.412 148.948 130.438C143.401 131.531 138.979 137.022 137.971 144.068L131.526 189.076C128.4 210.902 150.88 238.287 163.682 241.065C176.485 243.846 205.215 227.578 208.341 205.752L214.786 160.744C215.796 153.696 213.165 146.675 208.256 143.313V143.313ZM152.754 167.584C153.534 162.143 157.747 158.51 162.167 159.47C166.587 160.431 169.536 165.618 168.758 171.059C168.61 172.092 168.305 173.032 167.932 173.917C166.256 171.683 163.733 169.968 160.757 169.324C157.782 168.677 154.934 169.224 152.738 170.62C152.63 169.63 152.606 168.617 152.754 167.584ZM167.068 217.419C155.759 214.964 148.072 202.558 148.982 189.111C153.167 195.515 160.4 200.688 169.191 202.596C177.982 204.504 186.217 202.688 191.927 198.434C189.046 211.456 178.376 219.873 167.068 217.419V217.419ZM193.535 179.473C191.86 177.239 189.335 175.524 186.359 174.88C183.383 174.233 180.536 174.78 178.34 176.176C178.234 175.188 178.21 174.175 178.358 173.142C179.138 167.702 183.351 164.069 187.771 165.026C192.189 165.987 195.14 171.174 194.362 176.615C194.214 177.651 193.909 178.591 193.535 179.473Z" fill="#CF2E2E"/>
</g>
<path d="M20.472 58.901L24.861 37.682H22.683C20.307 50.09 19.416 50.75 17.238 50.75C15.324 50.75 14.796 50.123 12.519 38.54H10.242L14.235 58.901H20.472ZM37.8519 59.264H49.5009V55.865C41.1519 55.865 40.4589 55.337 40.4589 53.753C40.4589 52.136 41.1189 51.641 48.1809 51.641V49.265C40.4589 49.265 40.0299 48.704 40.0299 47.219C40.0299 45.866 40.6899 45.437 49.2369 45.437V38.276H32.8029L24.9819 58.142H28.1499C29.2059 55.766 29.8329 54.809 33.3969 54.809C37.6869 54.809 37.9179 55.832 37.8519 59.099V59.264ZM36.8949 48.869C37.2249 51.839 35.9049 52.598 32.8689 52.598C29.9979 52.598 29.4699 51.542 30.7239 48.869C32.4399 45.173 33.6609 44.645 34.4199 44.645C35.2449 44.645 36.4989 45.536 36.8949 48.869ZM52.3036 58.439H62.2696V53.522C55.7026 53.522 54.9106 52.928 54.9106 44.315V37.319H52.3036V58.439ZM76.9179 58.34V48.374H73.0569C73.0569 53.687 72.2319 54.611 69.6909 54.611C66.9189 54.611 65.9289 53.159 65.9289 50.453C65.9289 46.229 66.7539 45.305 70.8789 45.305H75.8619V38.012C75.8619 38.012 74.0469 37.583 70.8459 37.583C65.0709 37.583 63.6189 40.883 63.6189 46.757C63.6189 57.119 65.4339 58.736 70.5489 58.736C73.9809 58.736 76.9179 58.34 76.9179 58.34ZM97.8428 45.437V38.441H87.3158V58.604H89.7578C89.7578 52.136 90.1208 51.641 97.4798 51.641V49.265C89.7578 49.265 89.3288 48.77 89.3288 47.219C89.3288 45.965 89.7578 45.437 97.8428 45.437ZM114.798 48.935C114.798 38.309 112.752 37.484 106.845 37.484C101.433 37.484 100.146 40.817 100.146 46.229C100.146 56.063 101.4 58.769 108.066 58.769C112.059 58.769 114.798 57.185 114.798 48.935ZM112.389 49.727C112.389 52.796 111.102 54.446 107.043 54.446C102.984 54.446 102.192 52.4 102.192 49.727C102.192 47.054 102.489 45.074 107.043 45.074C111.597 45.074 112.389 46.658 112.389 49.727ZM126.939 60.254H132.219L127.368 54.644C130.239 54.182 131.493 51.707 131.493 47.285C131.493 38.639 130.701 37.913 117.93 37.913V59.363H119.943C119.943 55.568 120.174 54.908 121.329 54.908C122.649 54.908 123.672 56.063 126.939 60.254ZM129.051 48.539C129.051 50.849 127.962 51.971 124.464 51.971C120.966 51.971 120.273 50.552 120.273 48.539C120.273 46.493 120.57 45.14 124.464 45.14C128.391 45.14 129.051 46.196 129.051 48.539ZM134.703 59.264H146.187V54.941C137.838 54.941 137.145 54.479 137.145 53.06C137.145 51.575 137.772 51.179 144.867 51.179V49.034C137.145 49.034 136.716 48.539 136.716 47.186C136.716 45.965 137.376 45.602 145.89 45.602V38.771H134.703V59.264ZM160.937 53.258C160.937 50.552 159.32 49.067 154.7 49.067C151.763 49.067 151.367 48.77 151.367 47.879C151.367 46.757 151.829 46.163 160.574 46.163V38.342C152.06 38.342 148.331 40.157 148.331 45.305C148.331 50.288 150.212 51.509 154.502 51.509C157.901 51.509 158.462 51.938 158.462 52.862C158.462 53.885 157.241 53.951 148.991 53.951V59.066C157.571 59.066 160.937 58.274 160.937 53.258ZM175.75 44.315V38.375H162.913V45.206C168.259 45.206 168.325 45.503 168.325 59.462H170.371C170.371 44.645 170.371 44.315 175.75 44.315ZM178.545 58.637H181.482V38.243H178.545V58.637ZM185.103 58.439H195.069V53.522C188.502 53.522 187.71 52.928 187.71 44.315V37.319H185.103V58.439ZM197.558 58.439H207.524V53.522C200.957 53.522 200.165 52.928 200.165 44.315V37.319H197.558V58.439ZM210.013 58.637H212.95V38.243H210.013V58.637ZM229.737 58.901V36.593H226.8C226.8 46.13 226.503 48.44 225.249 48.44C223.896 48.44 221.388 43.985 218.55 37.913H216.57V59.561H218.55C218.55 52.895 218.682 51.245 219.804 51.245C220.926 51.245 222.609 53.72 226.437 58.901H229.737ZM246.18 58.34V48.374H242.319C242.319 53.687 241.494 54.611 238.953 54.611C236.181 54.611 235.191 53.159 235.191 50.453C235.191 46.229 236.016 45.305 240.141 45.305H245.124V38.012C245.124 38.012 243.309 37.583 240.108 37.583C234.333 37.583 232.881 40.883 232.881 46.757C232.881 57.119 234.696 58.736 239.811 58.736C243.243 58.736 246.18 58.34 246.18 58.34ZM249.575 58.637L256.34 38.243H254.591L247.826 58.637H249.575ZM258.479 59.264H269.963V54.941C261.614 54.941 260.921 54.479 260.921 53.06C260.921 51.575 261.548 51.179 268.643 51.179V49.034C260.921 49.034 260.492 48.539 260.492 47.186C260.492 45.965 261.152 45.602 269.666 45.602V38.771H258.479V59.264ZM281.941 60.254H287.221L282.37 54.644C285.241 54.182 286.495 51.707 286.495 47.285C286.495 38.639 285.703 37.913 272.932 37.913V59.363H274.945C274.945 55.568 275.176 54.908 276.331 54.908C277.651 54.908 278.674 56.063 281.941 60.254ZM284.053 48.539C284.053 50.849 282.964 51.971 279.466 51.971C275.968 51.971 275.275 50.552 275.275 48.539C275.275 46.493 275.572 45.14 279.466 45.14C283.393 45.14 284.053 46.196 284.053 48.539Z" fill="#CF2E2E"/>
<defs>
<clipPath id="clip0_124_8662">
<rect width="130" height="128.375" fill="white" transform="translate(85 113)"/>
</clipPath>
</defs>
</svg>
