<svg width="300" height="300" viewBox="0 0 300 300" fill="none" xmlns="http://www.w3.org/2000/svg">
<rect width="300" height="300" rx="15" fill="#F7E6CF"/>
<g clip-path="url(#clip0_124_8660)">
<path d="M201.932 130.159C203.087 129.654 203.995 128.711 204.454 127.537C204.914 126.363 204.889 125.054 204.384 123.899L194.861 102.12C193.851 99.8093 191.964 97.9947 189.616 97.0753C187.268 96.1558 184.651 96.2068 182.34 97.2171L77.7994 142.925C75.4889 143.936 73.6743 145.822 72.7549 148.17C71.8355 150.518 71.8865 153.136 72.8967 155.446L82.4192 177.225C82.9243 178.381 83.8677 179.288 85.0417 179.748C86.2158 180.207 87.5244 180.182 88.6796 179.677C90.9901 178.667 93.6073 178.616 95.9554 179.535C98.3035 180.454 100.19 182.269 101.2 184.58C102.211 186.89 102.262 189.507 101.342 191.855C100.423 194.203 98.6082 196.09 96.2977 197.1C95.1424 197.605 94.2351 198.549 93.7754 199.723C93.3157 200.897 93.3412 202.205 93.8463 203.361L103.369 225.14C104.379 227.45 106.266 229.265 108.614 230.184C110.962 231.104 113.579 231.053 115.89 230.043L220.43 184.334C222.741 183.324 224.555 181.437 225.475 179.089C226.394 176.741 226.343 174.124 225.333 171.814L215.811 150.034C215.305 148.879 214.362 147.972 213.188 147.512C212.014 147.052 210.705 147.078 209.55 147.583C207.24 148.593 204.623 148.644 202.274 147.725C199.926 146.805 198.04 144.991 197.029 142.68C196.019 140.37 195.968 137.753 196.888 135.404C197.807 133.056 199.622 131.17 201.932 130.159V130.159ZM208.756 157.633L216.621 175.623L186.13 188.954L180.417 175.887L171.705 179.696L177.419 192.763L112.081 221.331L104.215 203.341C107.517 200.736 109.863 197.11 110.885 193.03C111.907 188.95 111.547 184.646 109.862 180.792C108.177 176.938 105.262 173.752 101.573 171.732C97.8836 169.711 93.6287 168.971 89.474 169.627L81.6084 151.637L146.946 123.069L152.66 136.137L161.372 132.328L155.658 119.26L186.149 105.929L194.015 123.919C190.712 126.523 188.367 130.15 187.345 134.23C186.323 138.31 186.683 142.614 188.368 146.467C190.053 150.321 192.968 153.508 196.657 155.528C200.346 157.548 204.601 158.289 208.756 157.633V157.633Z" fill="#CF2E2E"/>
<path d="M156.469 144.848L165.181 141.039L176.608 167.175L167.896 170.984L156.469 144.848Z" fill="#CF2E2E"/>
</g>
<path d="M64.3353 62.901L68.7243 41.682H66.5463C64.1703 54.09 63.2793 54.75 61.1013 54.75C59.1873 54.75 58.6593 54.123 56.3823 42.54H54.1053L58.0983 62.901H64.3353ZM81.7152 63.264H93.3642V59.865C85.0152 59.865 84.3222 59.337 84.3222 57.753C84.3222 56.136 84.9822 55.641 92.0442 55.641V53.265C84.3222 53.265 83.8932 52.704 83.8932 51.219C83.8932 49.866 84.5532 49.437 93.1002 49.437V42.276H76.6662L68.8452 62.142H72.0132C73.0692 59.766 73.6962 58.809 77.2602 58.809C81.5502 58.809 81.7812 59.832 81.7152 63.099V63.264ZM80.7582 52.869C81.0882 55.839 79.7682 56.598 76.7322 56.598C73.8612 56.598 73.3332 55.542 74.5872 52.869C76.3032 49.173 77.5242 48.645 78.2832 48.645C79.1082 48.645 80.3622 49.536 80.7582 52.869ZM96.1669 62.439H106.133V57.522C99.5659 57.522 98.7739 56.928 98.7739 48.315V41.319H96.1669V62.439ZM120.781 62.34V52.374H116.92C116.92 57.687 116.095 58.611 113.554 58.611C110.782 58.611 109.792 57.159 109.792 54.453C109.792 50.229 110.617 49.305 114.742 49.305H119.725V42.012C119.725 42.012 117.91 41.583 114.709 41.583C108.934 41.583 107.482 44.883 107.482 50.757C107.482 61.119 109.297 62.736 114.412 62.736C117.844 62.736 120.781 62.34 120.781 62.34ZM145.138 48.909C145.138 42.21 144.544 41.088 131.179 41.088V63.528C142.861 63.528 144.247 61.647 144.247 57.555C144.247 55.212 143.653 54.189 142.003 53.595C144.247 53.298 145.138 51.549 145.138 48.909ZM142.234 50.625C142.234 52.11 141.178 52.77 137.845 52.77C134.479 52.77 133.819 51.945 133.819 50.625C133.819 49.338 134.083 48.513 137.845 48.513C141.574 48.513 142.234 49.14 142.234 50.625ZM141.244 56.532C141.244 57.72 140.254 58.446 137.02 58.446C133.786 58.446 133.159 57.555 133.159 56.532C133.159 55.476 133.423 54.618 137.02 54.618C140.617 54.618 141.244 55.311 141.244 56.532ZM148.275 62.637H151.212V42.243H148.275V62.637ZM154.832 62.439H164.798V57.522C158.231 57.522 157.439 56.928 157.439 48.315V41.319H154.832V62.439ZM167.287 62.439H177.253V57.522C170.686 57.522 169.894 56.928 169.894 48.315V41.319H167.287V62.439ZM179.742 63.264H191.226V58.941C182.877 58.941 182.184 58.479 182.184 57.06C182.184 55.575 182.811 55.179 189.906 55.179V53.034C182.184 53.034 181.755 52.539 181.755 51.186C181.755 49.965 182.415 49.602 190.929 49.602V42.771H179.742V63.264ZM206.207 48.315V42.375H193.37V49.206C198.716 49.206 198.782 49.503 198.782 63.462H200.828C200.828 48.645 200.828 48.315 206.207 48.315ZM221.377 54.453V41.847H219.232C219.232 50.361 219.067 52.209 215.833 52.209C212.863 52.209 212.335 51.681 212.335 43.035L208.507 43.002C208.507 53.1 209.299 53.859 214.381 54.519C217.747 54.915 218.044 55.179 218.044 55.971C218.044 57.06 214.942 57.357 209.134 57.357V64.188C219.76 64.188 221.377 62.505 221.377 54.453ZM238.404 51.285C238.404 42.639 237.612 41.913 224.841 41.913V63.363H229.032C229.032 59.403 229.329 58.908 232.398 58.908C236.358 58.908 238.404 57.687 238.404 51.285ZM236.226 52.605C236.226 54.882 235.071 55.938 231.408 55.938C227.778 55.938 227.052 54.585 227.052 52.605C227.052 50.592 227.349 49.305 231.408 49.305C235.5 49.305 236.226 50.295 236.226 52.605ZM241.389 63.264H252.873V58.941C244.524 58.941 243.831 58.479 243.831 57.06C243.831 55.575 244.458 55.179 251.553 55.179V53.034C243.831 53.034 243.402 52.539 243.402 51.186C243.402 49.965 244.062 49.602 252.576 49.602V42.771H241.389V63.264Z" fill="#CF2E2E"/>
<defs>
<clipPath id="clip0_124_8660">
<rect width="157" height="157" fill="white" transform="translate(70 85)"/>
</clipPath>
</defs>
</svg>
