<svg width="1078" height="970" viewBox="0 0 1078 970" fill="none" xmlns="http://www.w3.org/2000/svg">
<rect width="1078" height="970" fill="url(#paint0_linear_55_5024)"/>
<path d="M452.288 82.395C452.288 62.753 448.506 61.228 437.587 61.228C427.583 61.228 425.204 67.389 425.204 77.393C425.204 95.571 427.522 100.573 439.844 100.573C447.225 100.573 452.288 97.645 452.288 82.395ZM447.835 83.859C447.835 89.532 445.456 92.582 437.953 92.582C430.45 92.582 428.986 88.8 428.986 83.859C428.986 78.918 429.535 75.258 437.953 75.258C446.371 75.258 447.835 78.186 447.835 83.859ZM472.29 100.512H475.95C475.95 77.82 475.584 73.306 468.081 72.635C462.347 72.147 460.151 72.635 460.151 68.792H456.979V101.61H461.188C461.188 85.872 461.554 82.7 466.922 82.7C471.558 82.7 472.29 85.689 472.29 100.512ZM499.102 81.846V71.415C483.486 71.415 479.765 74.404 479.765 81.846C479.765 87.763 482.327 89.471 488.122 89.471C493.002 89.471 494.283 89.471 494.283 91.484C494.283 93.192 492.514 93.558 480.07 93.558V101.549C495.808 101.549 498.126 99.109 498.126 91.85C498.126 86.848 495.747 85.75 489.22 85.75C485.011 85.75 484.401 85.262 484.401 83.798C484.401 82.395 487.024 81.846 499.102 81.846ZM519.554 104.721H521.994L521.323 59.947H515.528C515.528 72.208 514.491 71.964 510.831 71.964C504.914 71.964 501.925 74.038 501.925 84.835C501.925 98.682 504.426 100.634 513.088 100.634C518.517 100.634 519.554 100.939 519.554 104.721ZM518.944 88.617C518.944 92.521 518.517 95.327 512.478 95.327C506.439 95.327 505.402 93.131 505.402 88.617C505.402 84.103 507.11 81.785 512.478 81.785C517.846 81.785 518.944 84.713 518.944 88.617ZM541.536 104.172H545.44V87.519C545.44 71.964 544.586 70.134 527.994 70.134V78.857C536.534 78.857 540.072 79.65 540.072 81.175C540.072 82.212 539.218 82.578 535.863 82.578C529.702 82.578 526.713 83.92 526.713 92.46C526.713 99.231 529.153 100.817 535.009 100.817C541.048 100.817 541.536 101.793 541.536 104.172ZM542.329 89.349C542.329 91.667 541.414 92.887 536.595 92.887C531.837 92.887 530.312 92.033 530.312 89.349C530.312 86.665 531.288 85.689 536.595 85.689C541.963 85.689 542.329 87.031 542.329 89.349ZM568.324 88.739V68.731H564.42C564.42 72.147 562.224 72.452 557.161 72.452C551 72.452 548.865 77.698 548.865 85.323C548.865 95.754 552.22 97.706 557.588 97.706C561.187 97.706 561.797 98.072 561.797 99.414C561.797 100.573 560.577 101 550.329 101V108.442C566.921 108.442 568.324 106.917 568.324 88.739ZM565.274 88.434C565.274 91.789 564.908 94.229 559.235 94.229C553.623 94.229 552.586 92.338 552.586 88.434C552.586 84.591 554.172 83.188 559.235 83.188C564.298 83.188 565.274 85.079 565.274 88.434ZM608.031 75.441C608.031 64.583 602.724 62.448 584.607 62.448V76.539C596.807 76.539 600.65 77.332 600.65 79.406C600.65 81.663 599.491 82.395 593.086 82.395H585.766V86.177H591.439C599.491 86.177 600.65 87.153 600.65 88.617C600.65 90.203 597.905 91.545 585.339 91.545V100.756C603.151 100.756 606.201 97.767 606.201 91.24C606.201 87.763 605.103 85.445 601.87 84.347C606.201 83.493 608.031 80.138 608.031 75.441ZM612.764 100.329L625.269 62.631H622.036L609.531 100.329H612.764ZM653.379 74.77C653.379 67.145 651.61 60.984 639.898 60.984C628.247 60.984 626.478 67.145 626.478 74.77C626.478 78.552 628.064 82.7 631.846 83.249C629.04 84.286 628.064 86.726 628.064 90.325C628.064 95.327 629.65 100.634 639.898 100.634C650.207 100.634 651.793 95.327 651.793 90.325C651.793 86.726 650.817 84.286 648.011 83.249C651.793 82.7 653.379 78.552 653.379 74.77ZM647.767 77.271C647.767 79.223 646.486 80.809 640.081 80.809C633.615 80.809 631.602 79.528 631.602 77.271C631.602 75.014 632.883 73.733 640.081 73.733C647.218 73.733 647.767 75.258 647.767 77.271ZM647.218 87.824C647.218 89.593 646.181 90.935 640.874 90.935C635.567 90.935 633.92 89.837 633.92 87.824C633.92 85.811 634.957 84.774 640.874 84.774C646.791 84.774 647.218 86.055 647.218 87.824Z" fill="black"/>
<path d="M127.757 588V583.73L141.809 567.77H127.757V563.5H147.567V567.77L133.514 583.73H147.567V588H127.757ZM160.448 588.455C158.838 588.455 157.368 588.041 156.038 587.212C154.719 586.384 153.663 585.27 152.87 583.87C152.088 582.47 151.698 580.924 151.698 579.232C151.698 577.961 151.925 576.771 152.38 575.662C152.835 574.542 153.459 573.562 154.253 572.722C155.058 571.871 155.991 571.206 157.053 570.727C158.114 570.249 159.246 570.01 160.448 570.01C161.813 570.01 163.061 570.302 164.193 570.885C165.336 571.457 166.304 572.244 167.098 573.247C167.891 574.251 168.468 575.394 168.83 576.677C169.192 577.961 169.273 579.302 169.075 580.702H156.283C156.446 581.356 156.714 581.945 157.088 582.47C157.461 582.983 157.933 583.397 158.505 583.712C159.077 584.016 159.724 584.173 160.448 584.185C161.194 584.197 161.871 584.022 162.478 583.66C163.096 583.287 163.609 582.785 164.018 582.155L168.375 583.17C167.663 584.722 166.602 585.993 165.19 586.985C163.778 587.965 162.198 588.455 160.448 588.455ZM156.143 577.5H164.753C164.624 576.8 164.35 576.17 163.93 575.61C163.522 575.038 163.014 574.583 162.408 574.245C161.801 573.907 161.148 573.737 160.448 573.737C159.748 573.737 159.1 573.907 158.505 574.245C157.91 574.572 157.403 575.021 156.983 575.592C156.574 576.152 156.294 576.788 156.143 577.5ZM174.099 588V563.5H183.024C184.319 563.5 185.486 563.768 186.524 564.305C187.574 564.83 188.402 565.588 189.009 566.58C189.627 567.56 189.936 568.721 189.936 570.062C189.936 570.657 189.849 571.258 189.674 571.865C189.499 572.472 189.231 573.02 188.869 573.51C188.507 573.988 188.041 574.344 187.469 574.577C188.227 574.764 188.846 575.102 189.324 575.592C189.802 576.082 190.176 576.66 190.444 577.325C190.712 577.978 190.893 578.649 190.986 579.337C191.091 580.014 191.144 580.644 191.144 581.227C191.144 582.522 190.823 583.677 190.181 584.692C189.54 585.707 188.676 586.512 187.591 587.107C186.518 587.702 185.328 588 184.021 588H174.099ZM178.369 584.342H183.584C184.284 584.342 184.914 584.173 185.474 583.835C186.034 583.497 186.483 583.03 186.821 582.435C187.16 581.84 187.329 581.163 187.329 580.405C187.329 579.752 187.16 579.133 186.821 578.55C186.483 577.967 186.034 577.494 185.474 577.132C184.914 576.771 184.284 576.59 183.584 576.59H178.369V584.342ZM178.369 572.985H182.534C183.397 572.985 184.132 572.717 184.739 572.18C185.357 571.643 185.666 570.932 185.666 570.045C185.666 569.1 185.357 568.388 184.739 567.91C184.132 567.42 183.397 567.175 182.534 567.175H178.369V572.985ZM206.772 588.455C204.812 588.455 203.091 587.977 201.609 587.02C200.139 586.063 198.996 584.78 198.179 583.17C197.363 581.548 196.954 579.752 196.954 577.78V563.5H201.224V577.78C201.224 578.947 201.44 580.02 201.872 581C202.315 581.968 202.945 582.744 203.762 583.327C204.59 583.899 205.593 584.185 206.772 584.185C207.962 584.185 208.965 583.899 209.782 583.327C210.598 582.744 211.217 581.968 211.637 581C212.068 580.02 212.284 578.947 212.284 577.78V563.5H216.554V577.78C216.554 579.262 216.321 580.65 215.854 581.945C215.388 583.228 214.723 584.36 213.859 585.34C212.996 586.32 211.963 587.084 210.762 587.632C209.572 588.181 208.242 588.455 206.772 588.455Z" fill="black"/>
<path d="M128.025 381L119.135 356.5H123.667L130.755 376.012L137.86 356.5H142.375L133.485 381H128.025ZM158.628 381.455C156.971 381.455 155.413 381.128 153.955 380.475C152.497 379.81 151.213 378.894 150.105 377.727C148.997 376.561 148.128 375.213 147.498 373.685C146.868 372.145 146.553 370.5 146.553 368.75C146.553 367 146.868 365.361 147.498 363.832C148.128 362.292 148.997 360.939 150.105 359.772C151.213 358.606 152.497 357.696 153.955 357.042C155.413 356.377 156.971 356.045 158.628 356.045C160.296 356.045 161.859 356.377 163.318 357.042C164.776 357.696 166.059 358.606 167.168 359.772C168.276 360.939 169.139 362.292 169.758 363.832C170.388 365.361 170.703 367 170.703 368.75C170.703 370.5 170.388 372.145 169.758 373.685C169.139 375.213 168.276 376.561 167.168 377.727C166.059 378.894 164.776 379.81 163.318 380.475C161.859 381.128 160.296 381.455 158.628 381.455ZM158.628 377.185C159.701 377.185 160.71 376.963 161.655 376.52C162.6 376.077 163.428 375.47 164.14 374.7C164.863 373.918 165.423 373.02 165.82 372.005C166.228 370.99 166.433 369.905 166.433 368.75C166.433 367.595 166.228 366.51 165.82 365.495C165.412 364.468 164.846 363.57 164.123 362.8C163.411 362.03 162.583 361.423 161.638 360.98C160.704 360.537 159.701 360.315 158.628 360.315C157.554 360.315 156.545 360.537 155.6 360.98C154.655 361.423 153.821 362.036 153.098 362.817C152.386 363.587 151.826 364.48 151.418 365.495C151.021 366.51 150.823 367.595 150.823 368.75C150.823 369.917 151.027 371.007 151.435 372.022C151.843 373.037 152.403 373.936 153.115 374.717C153.838 375.487 154.667 376.094 155.6 376.537C156.545 376.969 157.554 377.185 158.628 377.185ZM174.253 381L183.213 368.68L174.358 356.5H179.626L185.856 365.075L192.103 356.5H197.371L188.516 368.68L197.476 381H192.173L185.856 372.32L179.556 381H174.253ZM202.38 382.96L203.465 377.045H207.735L205.233 382.96H202.38ZM78.9615 398.5V402.77H71.4715V423H67.2015V402.77H59.7115V398.5H78.9615ZM89.9414 423.455C88.3314 423.455 86.8614 423.041 85.5314 422.212C84.2131 421.384 83.1572 420.27 82.3639 418.87C81.5822 417.47 81.1914 415.924 81.1914 414.232C81.1914 412.961 81.4189 411.771 81.8739 410.662C82.3289 409.542 82.9531 408.562 83.7464 407.722C84.5514 406.871 85.4847 406.206 86.5464 405.727C87.6081 405.249 88.7397 405.01 89.9414 405.01C91.3064 405.01 92.5547 405.302 93.6864 405.885C94.8297 406.457 95.7981 407.244 96.5914 408.247C97.3847 409.251 97.9622 410.394 98.3239 411.677C98.6856 412.961 98.7672 414.302 98.5689 415.702H85.7764C85.9397 416.356 86.2081 416.945 86.5814 417.47C86.9547 417.983 87.4272 418.397 87.9989 418.712C88.5706 419.016 89.2181 419.173 89.9414 419.185C90.6881 419.197 91.3647 419.022 91.9714 418.66C92.5897 418.287 93.1031 417.785 93.5114 417.155L97.8689 418.17C97.1572 419.722 96.0956 420.993 94.6839 421.985C93.2722 422.965 91.6914 423.455 89.9414 423.455ZM85.6364 412.5H94.2464C94.1181 411.8 93.8439 411.17 93.4239 410.61C93.0156 410.038 92.5081 409.583 91.9014 409.245C91.2947 408.907 90.6414 408.737 89.9414 408.737C89.2414 408.737 88.5939 408.907 87.9989 409.245C87.4039 409.572 86.8964 410.021 86.4764 410.592C86.0681 411.152 85.7881 411.788 85.6364 412.5ZM117.13 405.5H121.4V423H117.13L116.937 420.83C116.459 421.612 115.823 422.247 115.03 422.737C114.248 423.216 113.32 423.455 112.247 423.455C110.952 423.455 109.739 423.21 108.607 422.72C107.475 422.23 106.478 421.553 105.615 420.69C104.763 419.827 104.092 418.829 103.602 417.697C103.124 416.566 102.885 415.352 102.885 414.057C102.885 412.809 103.112 411.637 103.567 410.54C104.034 409.443 104.681 408.481 105.51 407.652C106.338 406.824 107.295 406.177 108.38 405.71C109.465 405.243 110.631 405.01 111.88 405.01C113.035 405.01 114.067 405.267 114.977 405.78C115.899 406.293 116.68 406.947 117.322 407.74L117.13 405.5ZM112.142 419.342C113.052 419.342 113.857 419.115 114.557 418.66C115.257 418.205 115.805 417.592 116.202 416.822C116.599 416.041 116.797 415.183 116.797 414.25C116.797 413.305 116.599 412.447 116.202 411.677C115.805 410.896 115.251 410.277 114.54 409.822C113.84 409.367 113.04 409.14 112.142 409.14C111.244 409.14 110.421 409.373 109.675 409.84C108.94 410.295 108.35 410.907 107.907 411.677C107.475 412.447 107.26 413.305 107.26 414.25C107.26 415.195 107.481 416.052 107.925 416.822C108.368 417.592 108.957 418.205 109.692 418.66C110.439 419.115 111.255 419.342 112.142 419.342ZM136.717 409.77H133.322V423H129.052V409.77H126.462V405.5H129.052V400.005H133.322V405.5H136.717V409.77ZM149.621 423.455C148.011 423.455 146.541 423.041 145.211 422.212C143.892 421.384 142.836 420.27 142.043 418.87C141.261 417.47 140.871 415.924 140.871 414.232C140.871 412.961 141.098 411.771 141.553 410.662C142.008 409.542 142.632 408.562 143.426 407.722C144.231 406.871 145.164 406.206 146.226 405.727C147.287 405.249 148.419 405.01 149.621 405.01C150.986 405.01 152.234 405.302 153.366 405.885C154.509 406.457 155.477 407.244 156.271 408.247C157.064 409.251 157.641 410.394 158.003 411.677C158.365 412.961 158.446 414.302 158.248 415.702H145.456C145.619 416.356 145.887 416.945 146.261 417.47C146.634 417.983 147.106 418.397 147.678 418.712C148.25 419.016 148.897 419.173 149.621 419.185C150.367 419.197 151.044 419.022 151.651 418.66C152.269 418.287 152.782 417.785 153.191 417.155L157.548 418.17C156.836 419.722 155.775 420.993 154.363 421.985C152.951 422.965 151.371 423.455 149.621 423.455ZM145.316 412.5H153.926C153.797 411.8 153.523 411.17 153.103 410.61C152.695 410.038 152.187 409.583 151.581 409.245C150.974 408.907 150.321 408.737 149.621 408.737C148.921 408.737 148.273 408.907 147.678 409.245C147.083 409.572 146.576 410.021 146.156 410.592C145.747 411.152 145.467 411.788 145.316 412.5ZM163.563 423L163.545 405.5H167.815L167.833 407.057C168.428 406.427 169.139 405.932 169.968 405.57C170.796 405.197 171.689 405.01 172.645 405.01C173.287 405.01 173.929 405.103 174.57 405.29L172.89 409.595C172.447 409.42 172.004 409.332 171.56 409.332C170.872 409.332 170.242 409.502 169.67 409.84C169.11 410.167 168.661 410.616 168.323 411.187C167.996 411.747 167.833 412.372 167.833 413.06V423H163.563ZM195.014 411.94V423H190.744V413.06C190.744 412.372 190.574 411.747 190.236 411.187C189.898 410.616 189.443 410.167 188.871 409.84C188.311 409.502 187.687 409.332 186.999 409.332C186.31 409.332 185.68 409.502 185.109 409.84C184.549 410.167 184.099 410.616 183.761 411.187C183.434 411.747 183.271 412.372 183.271 413.06V423H179.001L178.984 396.75H183.254L183.271 407.057C183.866 406.427 184.578 405.932 185.406 405.57C186.234 405.197 187.127 405.01 188.084 405.01C189.355 405.01 190.516 405.325 191.566 405.955C192.616 406.573 193.45 407.407 194.069 408.457C194.699 409.496 195.014 410.657 195.014 411.94ZM200.25 416.525V405.5H204.52V415.405C204.52 416.093 204.689 416.723 205.028 417.295C205.366 417.855 205.815 418.304 206.375 418.642C206.947 418.969 207.571 419.132 208.248 419.132C208.948 419.132 209.578 418.969 210.138 418.642C210.698 418.304 211.147 417.855 211.485 417.295C211.824 416.723 211.993 416.093 211.993 415.405V405.5H216.263L216.28 423H212.01L211.993 421.407C211.386 422.037 210.669 422.539 209.84 422.912C209.012 423.274 208.125 423.455 207.18 423.455C205.909 423.455 204.748 423.146 203.698 422.527C202.648 421.897 201.808 421.063 201.178 420.025C200.559 418.975 200.25 417.808 200.25 416.525ZM227.396 423.315C226.486 423.257 225.605 423.076 224.753 422.772C223.913 422.457 223.167 422.032 222.513 421.495C221.86 420.958 221.358 420.317 221.008 419.57L224.613 418.03C224.753 418.263 224.981 418.514 225.296 418.782C225.611 419.039 225.984 419.255 226.416 419.43C226.859 419.605 227.343 419.692 227.868 419.692C228.312 419.692 228.732 419.634 229.128 419.517C229.537 419.389 229.863 419.197 230.108 418.94C230.365 418.683 230.493 418.351 230.493 417.942C230.493 417.511 230.342 417.178 230.038 416.945C229.747 416.7 229.373 416.519 228.918 416.402C228.475 416.274 228.043 416.157 227.623 416.052C226.515 415.831 225.482 415.487 224.526 415.02C223.581 414.553 222.817 413.952 222.233 413.217C221.662 412.471 221.376 411.572 221.376 410.522C221.376 409.367 221.679 408.37 222.286 407.53C222.904 406.69 223.703 406.042 224.683 405.587C225.675 405.132 226.742 404.905 227.886 404.905C229.274 404.905 230.546 405.197 231.701 405.78C232.867 406.352 233.789 407.162 234.466 408.212L231.088 410.207C230.925 409.927 230.697 409.671 230.406 409.437C230.114 409.192 229.782 408.994 229.408 408.842C229.035 408.679 228.644 408.586 228.236 408.562C227.711 408.539 227.232 408.586 226.801 408.702C226.369 408.819 226.019 409.017 225.751 409.297C225.494 409.577 225.366 409.951 225.366 410.417C225.366 410.861 225.541 411.193 225.891 411.415C226.241 411.625 226.661 411.788 227.151 411.905C227.652 412.022 228.131 412.15 228.586 412.29C229.612 412.628 230.575 413.042 231.473 413.532C232.383 414.022 233.112 414.623 233.661 415.335C234.209 416.047 234.472 416.898 234.448 417.89C234.448 419.022 234.11 420.013 233.433 420.865C232.757 421.705 231.882 422.347 230.808 422.79C229.747 423.233 228.609 423.408 227.396 423.315ZM247.32 423.455C245.71 423.455 244.24 423.041 242.91 422.212C241.591 421.384 240.536 420.27 239.742 418.87C238.961 417.47 238.57 415.924 238.57 414.232C238.57 412.961 238.797 411.771 239.252 410.662C239.707 409.542 240.331 408.562 241.125 407.722C241.93 406.871 242.863 406.206 243.925 405.727C244.986 405.249 246.118 405.01 247.32 405.01C248.685 405.01 249.933 405.302 251.065 405.885C252.208 406.457 253.176 407.244 253.97 408.247C254.763 409.251 255.341 410.394 255.702 411.677C256.064 412.961 256.146 414.302 255.947 415.702H243.155C243.318 416.356 243.586 416.945 243.96 417.47C244.333 417.983 244.806 418.397 245.377 418.712C245.949 419.016 246.596 419.173 247.32 419.185C248.066 419.197 248.743 419.022 249.35 418.66C249.968 418.287 250.481 417.785 250.89 417.155L255.247 418.17C254.536 419.722 253.474 420.993 252.062 421.985C250.651 422.965 249.07 423.455 247.32 423.455ZM243.015 412.5H251.625C251.496 411.8 251.222 411.17 250.802 410.61C250.394 410.038 249.886 409.583 249.28 409.245C248.673 408.907 248.02 408.737 247.32 408.737C246.62 408.737 245.972 408.907 245.377 409.245C244.782 409.572 244.275 410.021 243.855 410.592C243.446 411.152 243.166 411.788 243.015 412.5ZM270.625 409.77H267.23V423H262.96V409.77H260.37V405.5H262.96V400.005H267.23V405.5H270.625V409.77Z" fill="black"/>
<path d="M128.025 756L119.135 731.5H123.667L130.755 751.012L137.86 731.5H142.375L133.485 756H128.025ZM158.628 756.455C156.971 756.455 155.413 756.128 153.955 755.475C152.497 754.81 151.213 753.894 150.105 752.727C148.997 751.561 148.128 750.213 147.498 748.685C146.868 747.145 146.553 745.5 146.553 743.75C146.553 742 146.868 740.361 147.498 738.832C148.128 737.292 148.997 735.939 150.105 734.772C151.213 733.606 152.497 732.696 153.955 732.042C155.413 731.377 156.971 731.045 158.628 731.045C160.296 731.045 161.859 731.377 163.318 732.042C164.776 732.696 166.059 733.606 167.168 734.772C168.276 735.939 169.139 737.292 169.758 738.832C170.388 740.361 170.703 742 170.703 743.75C170.703 745.5 170.388 747.145 169.758 748.685C169.139 750.213 168.276 751.561 167.168 752.727C166.059 753.894 164.776 754.81 163.318 755.475C161.859 756.128 160.296 756.455 158.628 756.455ZM158.628 752.185C159.701 752.185 160.71 751.963 161.655 751.52C162.6 751.077 163.428 750.47 164.14 749.7C164.863 748.918 165.423 748.02 165.82 747.005C166.228 745.99 166.433 744.905 166.433 743.75C166.433 742.595 166.228 741.51 165.82 740.495C165.412 739.468 164.846 738.57 164.123 737.8C163.411 737.03 162.583 736.423 161.638 735.98C160.704 735.537 159.701 735.315 158.628 735.315C157.554 735.315 156.545 735.537 155.6 735.98C154.655 736.423 153.821 737.036 153.098 737.817C152.386 738.587 151.826 739.48 151.418 740.495C151.021 741.51 150.823 742.595 150.823 743.75C150.823 744.917 151.027 746.007 151.435 747.022C151.843 748.037 152.403 748.936 153.115 749.717C153.838 750.487 154.667 751.094 155.6 751.537C156.545 751.969 157.554 752.185 158.628 752.185ZM174.253 756L183.213 743.68L174.358 731.5H179.626L185.856 740.075L192.103 731.5H197.371L188.516 743.68L197.476 756H192.173L185.856 747.32L179.556 756H174.253ZM202.38 757.96L203.465 752.045H207.735L205.233 757.96H202.38ZM78.9615 773.5V777.77H71.4715V798H67.2015V777.77H59.7115V773.5H78.9615ZM89.9414 798.455C88.3314 798.455 86.8614 798.041 85.5314 797.212C84.2131 796.384 83.1572 795.27 82.3639 793.87C81.5822 792.47 81.1914 790.924 81.1914 789.232C81.1914 787.961 81.4189 786.771 81.8739 785.662C82.3289 784.542 82.9531 783.562 83.7464 782.722C84.5514 781.871 85.4847 781.206 86.5464 780.727C87.6081 780.249 88.7397 780.01 89.9414 780.01C91.3064 780.01 92.5547 780.302 93.6864 780.885C94.8297 781.457 95.7981 782.244 96.5914 783.247C97.3847 784.251 97.9622 785.394 98.3239 786.677C98.6856 787.961 98.7672 789.302 98.5689 790.702H85.7764C85.9397 791.356 86.2081 791.945 86.5814 792.47C86.9547 792.983 87.4272 793.397 87.9989 793.712C88.5706 794.016 89.2181 794.173 89.9414 794.185C90.6881 794.197 91.3647 794.022 91.9714 793.66C92.5897 793.287 93.1031 792.785 93.5114 792.155L97.8689 793.17C97.1572 794.722 96.0956 795.993 94.6839 796.985C93.2722 797.965 91.6914 798.455 89.9414 798.455ZM85.6364 787.5H94.2464C94.1181 786.8 93.8439 786.17 93.4239 785.61C93.0156 785.038 92.5081 784.583 91.9014 784.245C91.2947 783.907 90.6414 783.737 89.9414 783.737C89.2414 783.737 88.5939 783.907 87.9989 784.245C87.4039 784.572 86.8964 785.021 86.4764 785.592C86.0681 786.152 85.7881 786.788 85.6364 787.5ZM117.13 780.5H121.4V798H117.13L116.937 795.83C116.459 796.612 115.823 797.247 115.03 797.737C114.248 798.216 113.32 798.455 112.247 798.455C110.952 798.455 109.739 798.21 108.607 797.72C107.475 797.23 106.478 796.553 105.615 795.69C104.763 794.827 104.092 793.829 103.602 792.697C103.124 791.566 102.885 790.352 102.885 789.057C102.885 787.809 103.112 786.637 103.567 785.54C104.034 784.443 104.681 783.481 105.51 782.652C106.338 781.824 107.295 781.177 108.38 780.71C109.465 780.243 110.631 780.01 111.88 780.01C113.035 780.01 114.067 780.267 114.977 780.78C115.899 781.293 116.68 781.947 117.322 782.74L117.13 780.5ZM112.142 794.342C113.052 794.342 113.857 794.115 114.557 793.66C115.257 793.205 115.805 792.592 116.202 791.822C116.599 791.041 116.797 790.183 116.797 789.25C116.797 788.305 116.599 787.447 116.202 786.677C115.805 785.896 115.251 785.277 114.54 784.822C113.84 784.367 113.04 784.14 112.142 784.14C111.244 784.14 110.421 784.373 109.675 784.84C108.94 785.295 108.35 785.907 107.907 786.677C107.475 787.447 107.26 788.305 107.26 789.25C107.26 790.195 107.481 791.052 107.925 791.822C108.368 792.592 108.957 793.205 109.692 793.66C110.439 794.115 111.255 794.342 112.142 794.342ZM136.717 784.77H133.322V798H129.052V784.77H126.462V780.5H129.052V775.005H133.322V780.5H136.717V784.77ZM149.621 798.455C148.011 798.455 146.541 798.041 145.211 797.212C143.892 796.384 142.836 795.27 142.043 793.87C141.261 792.47 140.871 790.924 140.871 789.232C140.871 787.961 141.098 786.771 141.553 785.662C142.008 784.542 142.632 783.562 143.426 782.722C144.231 781.871 145.164 781.206 146.226 780.727C147.287 780.249 148.419 780.01 149.621 780.01C150.986 780.01 152.234 780.302 153.366 780.885C154.509 781.457 155.477 782.244 156.271 783.247C157.064 784.251 157.641 785.394 158.003 786.677C158.365 787.961 158.446 789.302 158.248 790.702H145.456C145.619 791.356 145.887 791.945 146.261 792.47C146.634 792.983 147.106 793.397 147.678 793.712C148.25 794.016 148.897 794.173 149.621 794.185C150.367 794.197 151.044 794.022 151.651 793.66C152.269 793.287 152.782 792.785 153.191 792.155L157.548 793.17C156.836 794.722 155.775 795.993 154.363 796.985C152.951 797.965 151.371 798.455 149.621 798.455ZM145.316 787.5H153.926C153.797 786.8 153.523 786.17 153.103 785.61C152.695 785.038 152.187 784.583 151.581 784.245C150.974 783.907 150.321 783.737 149.621 783.737C148.921 783.737 148.273 783.907 147.678 784.245C147.083 784.572 146.576 785.021 146.156 785.592C145.747 786.152 145.467 786.788 145.316 787.5ZM163.563 798L163.545 780.5H167.815L167.833 782.057C168.428 781.427 169.139 780.932 169.968 780.57C170.796 780.197 171.689 780.01 172.645 780.01C173.287 780.01 173.929 780.103 174.57 780.29L172.89 784.595C172.447 784.42 172.004 784.332 171.56 784.332C170.872 784.332 170.242 784.502 169.67 784.84C169.11 785.167 168.661 785.616 168.323 786.187C167.996 786.747 167.833 787.372 167.833 788.06V798H163.563ZM195.014 786.94V798H190.744V788.06C190.744 787.372 190.574 786.747 190.236 786.187C189.898 785.616 189.443 785.167 188.871 784.84C188.311 784.502 187.687 784.332 186.999 784.332C186.31 784.332 185.68 784.502 185.109 784.84C184.549 785.167 184.099 785.616 183.761 786.187C183.434 786.747 183.271 787.372 183.271 788.06V798H179.001L178.984 771.75H183.254L183.271 782.057C183.866 781.427 184.578 780.932 185.406 780.57C186.234 780.197 187.127 780.01 188.084 780.01C189.355 780.01 190.516 780.325 191.566 780.955C192.616 781.573 193.45 782.407 194.069 783.457C194.699 784.496 195.014 785.657 195.014 786.94ZM200.25 791.525V780.5H204.52V790.405C204.52 791.093 204.689 791.723 205.028 792.295C205.366 792.855 205.815 793.304 206.375 793.642C206.947 793.969 207.571 794.132 208.248 794.132C208.948 794.132 209.578 793.969 210.138 793.642C210.698 793.304 211.147 792.855 211.485 792.295C211.824 791.723 211.993 791.093 211.993 790.405V780.5H216.263L216.28 798H212.01L211.993 796.407C211.386 797.037 210.669 797.539 209.84 797.912C209.012 798.274 208.125 798.455 207.18 798.455C205.909 798.455 204.748 798.146 203.698 797.527C202.648 796.897 201.808 796.063 201.178 795.025C200.559 793.975 200.25 792.808 200.25 791.525ZM227.396 798.315C226.486 798.257 225.605 798.076 224.753 797.772C223.913 797.457 223.167 797.032 222.513 796.495C221.86 795.958 221.358 795.317 221.008 794.57L224.613 793.03C224.753 793.263 224.981 793.514 225.296 793.782C225.611 794.039 225.984 794.255 226.416 794.43C226.859 794.605 227.343 794.692 227.868 794.692C228.312 794.692 228.732 794.634 229.128 794.517C229.537 794.389 229.863 794.197 230.108 793.94C230.365 793.683 230.493 793.351 230.493 792.942C230.493 792.511 230.342 792.178 230.038 791.945C229.747 791.7 229.373 791.519 228.918 791.402C228.475 791.274 228.043 791.157 227.623 791.052C226.515 790.831 225.482 790.487 224.526 790.02C223.581 789.553 222.817 788.952 222.233 788.217C221.662 787.471 221.376 786.572 221.376 785.522C221.376 784.367 221.679 783.37 222.286 782.53C222.904 781.69 223.703 781.042 224.683 780.587C225.675 780.132 226.742 779.905 227.886 779.905C229.274 779.905 230.546 780.197 231.701 780.78C232.867 781.352 233.789 782.162 234.466 783.212L231.088 785.207C230.925 784.927 230.697 784.671 230.406 784.437C230.114 784.192 229.782 783.994 229.408 783.842C229.035 783.679 228.644 783.586 228.236 783.562C227.711 783.539 227.232 783.586 226.801 783.702C226.369 783.819 226.019 784.017 225.751 784.297C225.494 784.577 225.366 784.951 225.366 785.417C225.366 785.861 225.541 786.193 225.891 786.415C226.241 786.625 226.661 786.788 227.151 786.905C227.652 787.022 228.131 787.15 228.586 787.29C229.612 787.628 230.575 788.042 231.473 788.532C232.383 789.022 233.112 789.623 233.661 790.335C234.209 791.047 234.472 791.898 234.448 792.89C234.448 794.022 234.11 795.013 233.433 795.865C232.757 796.705 231.882 797.347 230.808 797.79C229.747 798.233 228.609 798.408 227.396 798.315ZM247.32 798.455C245.71 798.455 244.24 798.041 242.91 797.212C241.591 796.384 240.536 795.27 239.742 793.87C238.961 792.47 238.57 790.924 238.57 789.232C238.57 787.961 238.797 786.771 239.252 785.662C239.707 784.542 240.331 783.562 241.125 782.722C241.93 781.871 242.863 781.206 243.925 780.727C244.986 780.249 246.118 780.01 247.32 780.01C248.685 780.01 249.933 780.302 251.065 780.885C252.208 781.457 253.176 782.244 253.97 783.247C254.763 784.251 255.341 785.394 255.702 786.677C256.064 787.961 256.146 789.302 255.947 790.702H243.155C243.318 791.356 243.586 791.945 243.96 792.47C244.333 792.983 244.806 793.397 245.377 793.712C245.949 794.016 246.596 794.173 247.32 794.185C248.066 794.197 248.743 794.022 249.35 793.66C249.968 793.287 250.481 792.785 250.89 792.155L255.247 793.17C254.536 794.722 253.474 795.993 252.062 796.985C250.651 797.965 249.07 798.455 247.32 798.455ZM243.015 787.5H251.625C251.496 786.8 251.222 786.17 250.802 785.61C250.394 785.038 249.886 784.583 249.28 784.245C248.673 783.907 248.02 783.737 247.32 783.737C246.62 783.737 245.972 783.907 245.377 784.245C244.782 784.572 244.275 785.021 243.855 785.592C243.446 786.152 243.166 786.788 243.015 787.5ZM270.625 784.77H267.23V798H262.96V784.77H260.37V780.5H262.96V775.005H267.23V780.5H270.625V784.77Z" fill="black"/>
<path d="M401.132 590L404.592 565.36H401.452L402.852 562H408.412L404.492 590H401.132ZM410.341 590L427.981 565.36H411.941L412.401 562H432.341L431.881 565.36L414.181 590H410.341ZM432.544 590.52C432.037 590.52 431.631 590.34 431.324 589.98C431.031 589.62 430.917 589.18 430.984 588.66C431.051 588.167 431.284 587.74 431.684 587.38C432.097 587.02 432.564 586.84 433.084 586.84C433.604 586.84 434.017 587.02 434.324 587.38C434.631 587.74 434.744 588.167 434.664 588.66C434.597 589.18 434.357 589.62 433.944 589.98C433.531 590.34 433.064 590.52 432.544 590.52ZM446.739 590.52C445.046 590.52 443.593 590.14 442.379 589.38C441.179 588.607 440.299 587.58 439.739 586.3C439.179 585.007 439.006 583.573 439.219 582H442.579C442.446 582.947 442.546 583.813 442.879 584.6C443.213 585.373 443.746 585.993 444.479 586.46C445.213 586.927 446.126 587.16 447.219 587.16C448.166 587.16 449.079 586.927 449.959 586.46C450.839 585.993 451.586 585.373 452.199 584.6C452.826 583.813 453.206 582.947 453.339 582C453.499 580.813 453.326 579.827 452.819 579.04C452.326 578.24 451.573 577.647 450.559 577.26C449.559 576.86 448.366 576.66 446.979 576.66L447.359 573.96C449.253 573.96 450.826 573.567 452.079 572.78C453.346 571.993 454.079 570.833 454.279 569.3C454.399 568.487 454.286 567.74 453.939 567.06C453.593 566.38 453.093 565.84 452.439 565.44C451.786 565.027 451.053 564.82 450.239 564.82C449.399 564.82 448.573 565.027 447.759 565.44C446.946 565.84 446.253 566.38 445.679 567.06C445.106 567.74 444.759 568.487 444.639 569.3H441.279C441.426 568.22 441.793 567.207 442.379 566.26C442.966 565.313 443.693 564.48 444.559 563.76C445.439 563.04 446.399 562.48 447.439 562.08C448.493 561.667 449.566 561.46 450.659 561.46C452.086 561.46 453.366 561.813 454.499 562.52C455.633 563.227 456.493 564.173 457.079 565.36C457.666 566.547 457.853 567.86 457.639 569.3C457.453 570.593 456.959 571.787 456.159 572.88C455.359 573.973 454.359 574.74 453.159 575.18C454.093 575.513 454.839 576.033 455.399 576.74C455.973 577.433 456.366 578.233 456.579 579.14C456.793 580.047 456.833 581 456.699 582C456.473 583.56 455.866 584.987 454.879 586.28C453.893 587.573 452.679 588.607 451.239 589.38C449.813 590.14 448.313 590.52 446.739 590.52ZM468.682 590.52C467.016 590.52 465.569 590.147 464.342 589.4C463.129 588.64 462.142 587.593 461.382 586.26C460.636 584.927 460.136 583.387 459.882 581.64C459.642 579.88 459.662 578 459.942 576C460.222 574 460.729 572.12 461.462 570.36C462.209 568.6 463.149 567.06 464.282 565.74C465.416 564.407 466.696 563.367 468.122 562.62C469.549 561.86 471.096 561.48 472.762 561.48C474.416 561.48 475.849 561.86 477.062 562.62C478.289 563.367 479.269 564.407 480.002 565.74C480.749 567.06 481.249 568.6 481.502 570.36C481.756 572.12 481.742 574 481.462 576C481.182 578 480.669 579.88 479.922 581.64C479.176 583.387 478.242 584.927 477.122 586.26C476.016 587.593 474.742 588.64 473.302 589.4C471.876 590.147 470.336 590.52 468.682 590.52ZM469.142 587.16C470.822 587.16 472.296 586.647 473.562 585.62C474.829 584.58 475.862 583.213 476.662 581.52C477.462 579.827 478.002 577.987 478.282 576C478.589 573.907 478.569 572.02 478.222 570.34C477.876 568.647 477.202 567.307 476.202 566.32C475.216 565.333 473.909 564.84 472.282 564.84C471.002 564.84 469.842 565.14 468.802 565.74C467.776 566.34 466.869 567.16 466.082 568.2C465.309 569.24 464.676 570.433 464.182 571.78C463.689 573.113 463.336 574.52 463.122 576C462.842 577.987 462.869 579.833 463.202 581.54C463.536 583.233 464.189 584.593 465.162 585.62C466.149 586.647 467.476 587.16 469.142 587.16Z" fill="black"/>
<path d="M389.679 776L390.079 773.02C391.252 772.1 392.559 771.073 393.999 769.94C395.439 768.793 396.879 767.6 398.319 766.36C399.772 765.107 401.119 763.867 402.359 762.64C403.599 761.413 404.619 760.253 405.419 759.16C406.232 758.053 406.699 757.087 406.819 756.26C406.952 755.273 406.832 754.373 406.459 753.56C406.099 752.733 405.546 752.073 404.799 751.58C404.066 751.087 403.206 750.84 402.219 750.84C401.232 750.84 400.292 751.087 399.399 751.58C398.519 752.073 397.779 752.733 397.179 753.56C396.579 754.373 396.206 755.273 396.059 756.26H392.699C392.939 754.62 393.546 753.14 394.519 751.82C395.506 750.487 396.712 749.433 398.139 748.66C399.579 747.873 401.099 747.48 402.699 747.48C404.299 747.48 405.699 747.873 406.899 748.66C408.112 749.447 409.019 750.507 409.619 751.84C410.219 753.16 410.406 754.633 410.179 756.26C410.046 757.193 409.672 758.2 409.059 759.28C408.459 760.347 407.686 761.447 406.739 762.58C405.806 763.713 404.752 764.86 403.579 766.02C402.406 767.167 401.192 768.3 399.939 769.42C398.686 770.54 397.439 771.613 396.199 772.64H408.219L407.759 776H389.679ZM421.034 776.52C419.367 776.52 417.92 776.147 416.694 775.4C415.48 774.64 414.494 773.593 413.734 772.26C412.987 770.927 412.487 769.387 412.234 767.64C411.994 765.88 412.014 764 412.294 762C412.574 760 413.08 758.12 413.814 756.36C414.56 754.6 415.5 753.06 416.634 751.74C417.767 750.407 419.047 749.367 420.474 748.62C421.9 747.86 423.447 747.48 425.114 747.48C426.767 747.48 428.2 747.86 429.414 748.62C430.64 749.367 431.62 750.407 432.354 751.74C433.1 753.06 433.6 754.6 433.854 756.36C434.107 758.12 434.094 760 433.814 762C433.534 764 433.02 765.88 432.274 767.64C431.527 769.387 430.594 770.927 429.474 772.26C428.367 773.593 427.094 774.64 425.654 775.4C424.227 776.147 422.687 776.52 421.034 776.52ZM421.494 773.16C423.174 773.16 424.647 772.647 425.914 771.62C427.18 770.58 428.214 769.213 429.014 767.52C429.814 765.827 430.354 763.987 430.634 762C430.94 759.907 430.92 758.02 430.574 756.34C430.227 754.647 429.554 753.307 428.554 752.32C427.567 751.333 426.26 750.84 424.634 750.84C423.354 750.84 422.194 751.14 421.154 751.74C420.127 752.34 419.22 753.16 418.434 754.2C417.66 755.24 417.027 756.433 416.534 757.78C416.04 759.113 415.687 760.52 415.474 762C415.194 763.987 415.22 765.833 415.554 767.54C415.887 769.233 416.54 770.593 417.514 771.62C418.5 772.647 419.827 773.16 421.494 773.16ZM436.38 776.52C435.873 776.52 435.467 776.34 435.16 775.98C434.867 775.62 434.753 775.18 434.82 774.66C434.887 774.167 435.12 773.74 435.52 773.38C435.933 773.02 436.4 772.84 436.92 772.84C437.44 772.84 437.853 773.02 438.16 773.38C438.467 773.74 438.58 774.167 438.5 774.66C438.433 775.18 438.193 775.62 437.78 775.98C437.367 776.34 436.9 776.52 436.38 776.52ZM452.635 776.52C450.969 776.52 449.522 776.147 448.295 775.4C447.082 774.64 446.095 773.593 445.335 772.26C444.589 770.927 444.089 769.387 443.835 767.64C443.595 765.88 443.615 764 443.895 762C444.175 760 444.682 758.12 445.415 756.36C446.162 754.6 447.102 753.06 448.235 751.74C449.369 750.407 450.649 749.367 452.075 748.62C453.502 747.86 455.049 747.48 456.715 747.48C458.369 747.48 459.802 747.86 461.015 748.62C462.242 749.367 463.222 750.407 463.955 751.74C464.702 753.06 465.202 754.6 465.455 756.36C465.709 758.12 465.695 760 465.415 762C465.135 764 464.622 765.88 463.875 767.64C463.129 769.387 462.195 770.927 461.075 772.26C459.969 773.593 458.695 774.64 457.255 775.4C455.829 776.147 454.289 776.52 452.635 776.52ZM453.095 773.16C454.775 773.16 456.249 772.647 457.515 771.62C458.782 770.58 459.815 769.213 460.615 767.52C461.415 765.827 461.955 763.987 462.235 762C462.542 759.907 462.522 758.02 462.175 756.34C461.829 754.647 461.155 753.307 460.155 752.32C459.169 751.333 457.862 750.84 456.235 750.84C454.955 750.84 453.795 751.14 452.755 751.74C451.729 752.34 450.822 753.16 450.035 754.2C449.262 755.24 448.629 756.433 448.135 757.78C447.642 759.113 447.289 760.52 447.075 762C446.795 763.987 446.822 765.833 447.155 767.54C447.489 769.233 448.142 770.593 449.115 771.62C450.102 772.647 451.429 773.16 453.095 773.16ZM475.995 776.52C474.328 776.52 472.881 776.147 471.655 775.4C470.441 774.64 469.455 773.593 468.695 772.26C467.948 770.927 467.448 769.387 467.195 767.64C466.955 765.88 466.975 764 467.255 762C467.535 760 468.041 758.12 468.775 756.36C469.521 754.6 470.461 753.06 471.595 751.74C472.728 750.407 474.008 749.367 475.435 748.62C476.861 747.86 478.408 747.48 480.075 747.48C481.728 747.48 483.161 747.86 484.375 748.62C485.601 749.367 486.581 750.407 487.315 751.74C488.061 753.06 488.561 754.6 488.815 756.36C489.068 758.12 489.055 760 488.775 762C488.495 764 487.981 765.88 487.235 767.64C486.488 769.387 485.555 770.927 484.435 772.26C483.328 773.593 482.055 774.64 480.615 775.4C479.188 776.147 477.648 776.52 475.995 776.52ZM476.455 773.16C478.135 773.16 479.608 772.647 480.875 771.62C482.141 770.58 483.175 769.213 483.975 767.52C484.775 765.827 485.315 763.987 485.595 762C485.901 759.907 485.881 758.02 485.535 756.34C485.188 754.647 484.515 753.307 483.515 752.32C482.528 751.333 481.221 750.84 479.595 750.84C478.315 750.84 477.155 751.14 476.115 751.74C475.088 752.34 474.181 753.16 473.395 754.2C472.621 755.24 471.988 756.433 471.495 757.78C471.001 759.113 470.648 760.52 470.435 762C470.155 763.987 470.181 765.833 470.515 767.54C470.848 769.233 471.501 770.593 472.475 771.62C473.461 772.647 474.788 773.16 476.455 773.16Z" fill="black"/>
<path d="M406.151 401L409.611 376.36H406.471L407.871 373H413.431L409.511 401H406.151ZM423.32 401.52C421.547 401.52 419.987 401.08 418.64 400.2C417.293 399.32 416.28 398.147 415.6 396.68C414.933 395.2 414.727 393.567 414.98 391.78C415.127 390.78 415.367 389.907 415.7 389.16C416.047 388.413 416.513 387.607 417.1 386.74L426.94 373H430.84L423.8 382.82C425 382.46 426.16 382.333 427.28 382.44C428.4 382.547 429.427 382.853 430.36 383.36C431.307 383.867 432.113 384.533 432.78 385.36C433.46 386.187 433.953 387.147 434.26 388.24C434.567 389.32 434.627 390.5 434.44 391.78C434.253 393.127 433.82 394.387 433.14 395.56C432.473 396.733 431.627 397.767 430.6 398.66C429.587 399.553 428.453 400.253 427.2 400.76C425.947 401.267 424.653 401.52 423.32 401.52ZM423.78 398.16C425.007 398.16 426.147 397.86 427.2 397.26C428.253 396.66 429.12 395.873 429.8 394.9C430.493 393.927 430.92 392.887 431.08 391.78C431.24 390.62 431.107 389.56 430.68 388.6C430.253 387.64 429.593 386.873 428.7 386.3C427.82 385.713 426.793 385.42 425.62 385.42C424.393 385.42 423.26 385.72 422.22 386.32C421.18 386.92 420.313 387.7 419.62 388.66C418.927 389.62 418.5 390.66 418.34 391.78C418.18 392.993 418.32 394.08 418.76 395.04C419.213 396 419.88 396.76 420.76 397.32C421.653 397.88 422.66 398.16 423.78 398.16ZM437.681 401.52C437.174 401.52 436.767 401.34 436.461 400.98C436.167 400.62 436.054 400.18 436.121 399.66C436.187 399.167 436.421 398.74 436.821 398.38C437.234 398.02 437.701 397.84 438.221 397.84C438.741 397.84 439.154 398.02 439.461 398.38C439.767 398.74 439.881 399.167 439.801 399.66C439.734 400.18 439.494 400.62 439.081 400.98C438.667 401.34 438.201 401.52 437.681 401.52ZM446.776 401L450.236 376.36H447.096L448.496 373H454.056L450.136 401H446.776ZM463.945 401.52C462.212 401.52 460.698 401.1 459.405 400.26C458.125 399.42 457.172 398.3 456.545 396.9C455.918 395.487 455.718 393.933 455.945 392.24H459.305C459.158 393.32 459.285 394.313 459.685 395.22C460.085 396.113 460.698 396.827 461.525 397.36C462.352 397.893 463.312 398.16 464.405 398.16C465.485 398.16 466.512 397.893 467.485 397.36C468.458 396.827 469.272 396.113 469.925 395.22C470.592 394.313 470.998 393.32 471.145 392.24C471.305 391.16 471.192 390.167 470.805 389.26C470.432 388.353 469.805 387.633 468.925 387.1C468.045 386.553 466.925 386.28 465.565 386.28H458.645L463.225 373H476.505L476.045 376.36H465.485L463.245 382.92L466.165 382.94C468.072 382.98 469.685 383.407 471.005 384.22C472.338 385.02 473.318 386.113 473.945 387.5C474.572 388.873 474.758 390.453 474.505 392.24C474.332 393.507 473.925 394.707 473.285 395.84C472.645 396.96 471.838 397.947 470.865 398.8C469.892 399.653 468.812 400.32 467.625 400.8C466.452 401.28 465.225 401.52 463.945 401.52Z" fill="black"/>
<path d="M140.203 276.835L147.518 241.47H143.888C139.928 262.15 138.443 263.25 134.813 263.25C131.623 263.25 130.743 262.205 126.948 242.9H123.153L129.808 276.835H140.203ZM165.566 258.685C165.566 253.185 163.366 249.28 158.086 249.28C150.001 249.28 147.526 254.34 147.526 262.645C147.526 276.285 148.956 278.76 164.521 278.76V271.61C155.006 271.61 152.806 270.785 152.806 269.41C152.806 268.365 153.411 267.98 157.591 267.98C163.751 267.98 165.566 266 165.566 258.685ZM162.156 261.38C162.156 263.635 161.276 264.68 156.161 264.68C151.101 264.68 150.771 263.305 150.771 261.38C150.771 259.455 151.651 258.08 156.161 258.08C160.726 258.08 162.156 259.18 162.156 261.38ZM183.648 276.56H186.948C186.948 256.1 186.618 252.03 179.853 251.425C174.683 250.985 172.703 251.425 172.703 247.96H169.843V277.55H173.638C173.638 263.36 173.968 260.5 178.808 260.5C182.988 260.5 183.648 263.195 183.648 276.56ZM204.742 279.695H208.757V249.72H204.742C204.742 263.635 204.412 267.595 199.297 267.595C194.842 267.595 194.182 263.8 194.182 250.655H190.662C190.662 271.115 191.047 275.955 198.197 276.615C203.587 277.11 204.742 277.715 204.742 279.695ZM230.824 258.685C230.824 253.185 228.624 249.28 223.344 249.28C215.259 249.28 212.784 254.34 212.784 262.645C212.784 276.285 214.214 278.76 229.779 278.76V271.61C220.264 271.61 218.064 270.785 218.064 269.41C218.064 268.365 218.669 267.98 222.849 267.98C229.009 267.98 230.824 266 230.824 258.685ZM227.414 261.38C227.414 263.635 226.534 264.68 221.419 264.68C216.359 264.68 216.029 263.305 216.029 261.38C216.029 259.455 216.909 258.08 221.419 258.08C225.984 258.08 227.414 259.18 227.414 261.38Z" fill="black"/>
<path d="M389.57 252.525V242.625H368.175V254.01C377.085 254.01 377.195 254.505 377.195 277.77H380.605C380.605 253.075 380.605 252.525 389.57 252.525ZM398.739 244.99C398.739 243.45 398.519 241.745 395.274 241.745C392.029 241.745 391.479 243.23 391.479 244.99C391.479 246.75 392.359 248.07 395.274 248.07C398.134 248.07 398.739 246.53 398.739 244.99ZM392.799 275.845H397.254V251.59H392.799V275.845ZM416.627 280.355H418.827L418.222 239.985H412.997C412.997 251.04 412.062 250.82 408.762 250.82C403.427 250.82 400.732 252.69 400.732 262.425C400.732 274.91 402.987 276.67 410.797 276.67C415.692 276.67 416.627 276.945 416.627 280.355ZM416.077 265.835C416.077 269.355 415.692 271.885 410.247 271.885C404.802 271.885 403.867 269.905 403.867 265.835C403.867 261.765 405.407 259.675 410.247 259.675C415.087 259.675 416.077 262.315 416.077 265.835ZM440.242 259.73V250.325C426.162 250.325 422.807 253.02 422.807 259.73C422.807 265.065 425.117 266.605 430.342 266.605C434.742 266.605 435.897 266.605 435.897 268.42C435.897 269.96 434.302 270.29 423.082 270.29V277.495C437.272 277.495 439.362 275.295 439.362 268.75C439.362 264.24 437.217 263.25 431.332 263.25C427.537 263.25 426.987 262.81 426.987 261.49C426.987 260.225 429.352 259.73 440.242 259.73ZM461.872 264.845C461.872 253.02 459.617 251.37 451.917 251.37C447.022 251.37 446.087 251.095 446.087 247.85H443.942V285.635H448.892C448.892 276.395 449.772 275.845 453.952 275.845C459.177 275.845 461.872 274.085 461.872 264.845ZM458.792 265.34C458.792 269.41 457.252 271.555 452.412 271.555C447.627 271.555 446.637 268.86 446.637 265.34C446.637 261.765 447.022 259.235 452.412 259.235C457.802 259.235 458.792 261.215 458.792 265.34ZM479.432 279.695H483.447V249.72H479.432C479.432 263.635 479.102 267.595 473.987 267.595C469.532 267.595 468.872 263.8 468.872 250.655H465.352C465.352 271.115 465.737 275.955 472.887 276.615C478.277 277.11 479.432 277.715 479.432 279.695ZM502.435 276.56H505.735C505.735 256.1 505.405 252.03 498.64 251.425C493.47 250.985 491.49 251.425 491.49 247.96H488.63V277.55H492.425C492.425 263.36 492.755 260.5 497.595 260.5C501.775 260.5 502.435 263.195 502.435 276.56ZM522.759 277.44H527.984C526.389 266.55 526.224 262.81 521.274 261.82L527.599 250.05H522.319C519.404 256.54 517.919 259.29 516.214 259.29C514.234 259.29 513.849 257.695 513.849 239.93H510.329V276.23H512.914C512.914 270.18 513.409 269.08 516.984 269.08C520.284 269.08 521.879 270.07 522.759 277.44ZM542.389 256.54V253.515C535.459 253.515 534.744 252.91 534.744 243.89H530.894V265.01C530.894 273.425 530.894 277.495 541.289 277.495V269.63C535.679 269.63 534.744 269.245 534.744 262.205C534.744 257.2 535.734 256.54 542.389 256.54Z" fill="black"/>
<path d="M695.351 254.395V242.735H677.806V276.34H681.876C681.876 265.56 682.481 264.735 694.746 264.735V260.775C681.876 260.775 681.161 259.95 681.161 257.365C681.161 255.275 681.876 254.395 695.351 254.395ZM716.239 264.57C716.239 251.425 713.709 249.61 706.449 249.61C699.739 249.61 698.144 254.505 698.144 261.215C698.144 273.37 699.684 276.725 707.934 276.725C712.884 276.725 716.239 274.745 716.239 264.57ZM713.269 265.89C713.269 269.795 711.784 271.83 706.999 271.83C702.269 271.83 701.334 269.245 701.334 265.89C701.334 262.48 701.719 260.005 706.999 260.005C712.334 260.005 713.269 261.985 713.269 265.89ZM730.518 260.72V251.81C726.008 251.81 725.568 251.26 725.568 248.84H720.508V277.33H724.083V271.995C724.083 261.435 724.743 260.72 730.518 260.72ZM750.606 258.685C750.606 253.185 748.406 249.28 743.126 249.28C735.041 249.28 732.566 254.34 732.566 262.645C732.566 276.285 733.996 278.76 749.561 278.76V271.61C740.046 271.61 737.846 270.785 737.846 269.41C737.846 268.365 738.451 267.98 742.631 267.98C748.791 267.98 750.606 266 750.606 258.685ZM747.196 261.38C747.196 263.635 746.316 264.68 741.201 264.68C736.141 264.68 735.811 263.305 735.811 261.38C735.811 259.455 736.691 258.08 741.201 258.08C745.766 258.08 747.196 259.18 747.196 261.38ZM771.163 259.73V250.325C757.083 250.325 753.728 253.02 753.728 259.73C753.728 265.065 756.038 266.605 761.263 266.605C765.663 266.605 766.818 266.605 766.818 268.42C766.818 269.96 765.223 270.29 754.003 270.29V277.495C768.193 277.495 770.283 275.295 770.283 268.75C770.283 264.24 768.138 263.25 762.253 263.25C758.458 263.25 757.908 262.81 757.908 261.49C757.908 260.225 760.273 259.73 771.163 259.73ZM786.084 256.54V253.515C779.154 253.515 778.439 252.91 778.439 243.89H774.589V265.01C774.589 273.425 774.589 277.495 784.984 277.495V269.63C779.374 269.63 778.439 269.245 778.439 262.205C778.439 257.2 779.429 256.54 786.084 256.54ZM794.705 244.99C794.705 243.45 794.485 241.745 791.24 241.745C787.995 241.745 787.445 243.23 787.445 244.99C787.445 246.75 788.325 248.07 791.24 248.07C794.1 248.07 794.705 246.53 794.705 244.99ZM788.765 275.845H793.22V251.59H788.765V275.845ZM805.112 277.275V269.08C801.592 269.08 801.427 268.2 801.427 255.44V240.095H797.852V264.515C797.852 276.065 798.732 277.275 805.112 277.275ZM815.532 277.275V269.08C812.012 269.08 811.847 268.2 811.847 255.44V240.095H808.272V264.515C808.272 276.065 809.152 277.275 815.532 277.275ZM824.192 244.99C824.192 243.45 823.972 241.745 820.727 241.745C817.482 241.745 816.932 243.23 816.932 244.99C816.932 246.75 817.812 248.07 820.727 248.07C823.587 248.07 824.192 246.53 824.192 244.99ZM818.252 275.845H822.707V251.59H818.252V275.845ZM841.144 276.56H844.444C844.444 256.1 844.114 252.03 837.349 251.425C832.179 250.985 830.199 251.425 830.199 247.96H827.339V277.55H831.134C831.134 263.36 831.464 260.5 836.304 260.5C840.484 260.5 841.144 263.195 841.144 276.56ZM865.374 265.945V247.905H861.854C861.854 250.985 859.874 251.26 855.309 251.26C849.754 251.26 847.829 255.99 847.829 262.865C847.829 272.27 850.854 274.03 855.694 274.03C858.939 274.03 859.489 274.36 859.489 275.57C859.489 276.615 858.389 277 849.149 277V283.71C864.109 283.71 865.374 282.335 865.374 265.945ZM862.624 265.67C862.624 268.695 862.294 270.895 857.179 270.895C852.119 270.895 851.184 269.19 851.184 265.67C851.184 262.205 852.614 260.94 857.179 260.94C861.744 260.94 862.624 262.645 862.624 265.67Z" fill="black"/>
<path d="M641.683 567L635.418 542.5H639.828L644.098 559.247L648.368 542.5H652.27L656.54 559.247L660.793 542.5H665.203L658.973 567H654.125L650.31 552.16L646.548 567H641.683ZM686.846 555.94V567H682.576V557.06C682.576 556.372 682.406 555.747 682.068 555.187C681.73 554.616 681.275 554.167 680.703 553.84C680.143 553.502 679.519 553.332 678.831 553.332C678.142 553.332 677.512 553.502 676.941 553.84C676.381 554.167 675.931 554.616 675.593 555.187C675.266 555.747 675.103 556.372 675.103 557.06V567H670.833L670.816 540.75H675.086L675.103 551.057C675.698 550.427 676.41 549.932 677.238 549.57C678.066 549.197 678.959 549.01 679.916 549.01C681.187 549.01 682.348 549.325 683.398 549.955C684.448 550.573 685.282 551.407 685.901 552.457C686.531 553.496 686.846 554.657 686.846 555.94ZM705.635 549.5H709.905V567H705.635L705.443 564.83C704.965 565.612 704.329 566.247 703.535 566.737C702.754 567.216 701.826 567.455 700.753 567.455C699.458 567.455 698.245 567.21 697.113 566.72C695.981 566.23 694.984 565.553 694.12 564.69C693.269 563.827 692.598 562.829 692.108 561.697C691.63 560.566 691.39 559.352 691.39 558.057C691.39 556.809 691.618 555.637 692.073 554.54C692.54 553.443 693.187 552.481 694.015 551.652C694.844 550.824 695.8 550.177 696.885 549.71C697.97 549.243 699.137 549.01 700.385 549.01C701.54 549.01 702.573 549.267 703.483 549.78C704.405 550.293 705.186 550.947 705.828 551.74L705.635 549.5ZM700.648 563.342C701.558 563.342 702.363 563.115 703.063 562.66C703.763 562.205 704.311 561.592 704.708 560.822C705.105 560.041 705.303 559.183 705.303 558.25C705.303 557.305 705.105 556.447 704.708 555.677C704.311 554.896 703.757 554.277 703.045 553.822C702.345 553.367 701.546 553.14 700.648 553.14C699.75 553.14 698.927 553.373 698.18 553.84C697.445 554.295 696.856 554.907 696.413 555.677C695.981 556.447 695.765 557.305 695.765 558.25C695.765 559.195 695.987 560.052 696.43 560.822C696.874 561.592 697.463 562.205 698.198 562.66C698.945 563.115 699.761 563.342 700.648 563.342ZM725.223 553.77H721.828V567H717.558V553.77H714.968V549.5H717.558V544.005H721.828V549.5H725.223V553.77ZM746.647 545.825V549.5H751.425V553.77H746.647V567H742.377V553.77H740.47V549.5H742.377V545.825C742.377 544.822 742.622 543.906 743.112 543.077C743.614 542.237 744.285 541.572 745.125 541.082C745.965 540.581 746.892 540.33 747.907 540.33C748.642 540.33 749.371 540.482 750.095 540.785C750.818 541.088 751.46 541.555 752.02 542.185L748.94 545.195C748.835 544.997 748.683 544.851 748.485 544.757C748.298 544.652 748.106 544.6 747.907 544.6C747.569 544.6 747.271 544.722 747.015 544.967C746.77 545.201 746.647 545.487 746.647 545.825ZM756.62 549.5H760.89V567H756.62V549.5ZM758.79 547.242C758.16 547.242 757.629 547.038 757.198 546.63C756.766 546.21 756.55 545.685 756.55 545.055C756.55 544.437 756.766 543.917 757.198 543.497C757.629 543.077 758.154 542.867 758.773 542.867C759.391 542.867 759.91 543.077 760.33 543.497C760.762 543.917 760.978 544.437 760.978 545.055C760.978 545.685 760.768 546.21 760.348 546.63C759.928 547.038 759.409 547.242 758.79 547.242ZM767.428 567L767.41 549.5H771.68L771.698 551.057C772.293 550.427 773.004 549.932 773.833 549.57C774.661 549.197 775.553 549.01 776.51 549.01C777.152 549.01 777.793 549.103 778.435 549.29L776.755 553.595C776.312 553.42 775.868 553.332 775.425 553.332C774.737 553.332 774.107 553.502 773.535 553.84C772.975 554.167 772.526 554.616 772.188 555.187C771.861 555.747 771.698 556.372 771.698 557.06V567H767.428ZM789.728 567.455C788.118 567.455 786.648 567.041 785.318 566.212C784 565.384 782.944 564.27 782.151 562.87C781.369 561.47 780.978 559.924 780.978 558.232C780.978 556.961 781.206 555.771 781.661 554.662C782.116 553.542 782.74 552.562 783.533 551.722C784.338 550.871 785.271 550.206 786.333 549.727C787.395 549.249 788.526 549.01 789.728 549.01C791.093 549.01 792.341 549.302 793.473 549.885C794.616 550.457 795.585 551.244 796.378 552.247C797.171 553.251 797.749 554.394 798.111 555.677C798.472 556.961 798.554 558.302 798.356 559.702H785.563C785.726 560.356 785.995 560.945 786.368 561.47C786.741 561.983 787.214 562.397 787.786 562.712C788.357 563.016 789.005 563.173 789.728 563.185C790.475 563.197 791.151 563.022 791.758 562.66C792.376 562.287 792.89 561.785 793.298 561.155L797.656 562.17C796.944 563.722 795.882 564.993 794.471 565.985C793.059 566.965 791.478 567.455 789.728 567.455ZM785.423 556.5H794.033C793.905 555.8 793.631 555.17 793.211 554.61C792.802 554.038 792.295 553.583 791.688 553.245C791.081 552.907 790.428 552.737 789.728 552.737C789.028 552.737 788.381 552.907 787.786 553.245C787.191 553.572 786.683 554.021 786.263 554.592C785.855 555.152 785.575 555.788 785.423 556.5ZM808.952 567.315C808.042 567.257 807.161 567.076 806.31 566.772C805.47 566.457 804.723 566.032 804.07 565.495C803.416 564.958 802.915 564.317 802.565 563.57L806.17 562.03C806.31 562.263 806.537 562.514 806.852 562.782C807.167 563.039 807.54 563.255 807.972 563.43C808.415 563.605 808.9 563.692 809.425 563.692C809.868 563.692 810.288 563.634 810.685 563.517C811.093 563.389 811.42 563.197 811.665 562.94C811.921 562.683 812.05 562.351 812.05 561.942C812.05 561.511 811.898 561.178 811.595 560.945C811.303 560.7 810.93 560.519 810.475 560.402C810.031 560.274 809.6 560.157 809.18 560.052C808.071 559.831 807.039 559.487 806.082 559.02C805.137 558.553 804.373 557.952 803.79 557.217C803.218 556.471 802.932 555.572 802.932 554.522C802.932 553.367 803.235 552.37 803.842 551.53C804.46 550.69 805.26 550.042 806.24 549.587C807.231 549.132 808.299 548.905 809.442 548.905C810.83 548.905 812.102 549.197 813.257 549.78C814.424 550.352 815.345 551.162 816.022 552.212L812.645 554.207C812.481 553.927 812.254 553.671 811.962 553.437C811.67 553.192 811.338 552.994 810.965 552.842C810.591 552.679 810.2 552.586 809.792 552.562C809.267 552.539 808.789 552.586 808.357 552.702C807.925 552.819 807.575 553.017 807.307 553.297C807.05 553.577 806.922 553.951 806.922 554.417C806.922 554.861 807.097 555.193 807.447 555.415C807.797 555.625 808.217 555.788 808.707 555.905C809.209 556.022 809.687 556.15 810.142 556.29C811.169 556.628 812.131 557.042 813.03 557.532C813.94 558.022 814.669 558.623 815.217 559.335C815.765 560.047 816.028 560.898 816.005 561.89C816.005 563.022 815.666 564.013 814.99 564.865C814.313 565.705 813.438 566.347 812.365 566.79C811.303 567.233 810.165 567.408 808.952 567.315ZM841.688 553.77H838.293V567H834.023V553.77H831.433V549.5H834.023V544.005H838.293V549.5H841.688V553.77ZM854.592 567.455C852.982 567.455 851.512 567.041 850.182 566.212C848.863 565.384 847.807 564.276 847.014 562.887C846.232 561.487 845.842 559.942 845.842 558.25C845.842 556.967 846.069 555.771 846.524 554.662C846.979 553.542 847.603 552.562 848.397 551.722C849.202 550.871 850.135 550.206 851.197 549.727C852.258 549.249 853.39 549.01 854.592 549.01C856.202 549.01 857.666 549.424 858.984 550.252C860.314 551.081 861.37 552.195 862.152 553.595C862.945 554.995 863.342 556.547 863.342 558.25C863.342 559.522 863.114 560.712 862.659 561.82C862.204 562.928 861.574 563.908 860.769 564.76C859.976 565.6 859.048 566.259 857.987 566.737C856.937 567.216 855.805 567.455 854.592 567.455ZM854.592 563.185C855.443 563.185 856.207 562.957 856.884 562.503C857.561 562.047 858.092 561.447 858.477 560.7C858.873 559.953 859.072 559.137 859.072 558.25C859.072 557.34 858.867 556.512 858.459 555.765C858.062 555.007 857.52 554.406 856.832 553.962C856.155 553.507 855.408 553.28 854.592 553.28C853.752 553.28 852.993 553.507 852.317 553.962C851.64 554.417 851.103 555.024 850.707 555.782C850.31 556.541 850.112 557.363 850.112 558.25C850.112 559.172 850.316 560.006 850.724 560.752C851.132 561.499 851.675 562.094 852.352 562.537C853.04 562.969 853.787 563.185 854.592 563.185ZM881.57 549.5H885.84V567.333C885.84 568.593 885.583 569.736 885.07 570.763C884.556 571.801 883.856 572.688 882.97 573.423C882.083 574.169 881.068 574.741 879.925 575.138C878.781 575.546 877.58 575.75 876.32 575.75C875.095 575.75 873.916 575.499 872.785 574.998C871.653 574.496 870.65 573.808 869.775 572.933C868.911 572.069 868.252 571.083 867.797 569.975L871.7 568.208C871.933 568.849 872.283 569.409 872.75 569.888C873.228 570.378 873.776 570.757 874.395 571.025C875.013 571.305 875.655 571.445 876.32 571.445C876.996 571.445 877.644 571.352 878.262 571.165C878.892 570.978 879.458 570.704 879.96 570.343C880.461 569.993 880.852 569.561 881.132 569.048C881.424 568.546 881.57 567.974 881.57 567.333V564.865C881.021 565.635 880.333 566.259 879.505 566.737C878.676 567.216 877.72 567.455 876.635 567.455C875.375 567.455 874.196 567.216 873.1 566.737C872.003 566.259 871.035 565.6 870.195 564.76C869.366 563.908 868.713 562.928 868.235 561.82C867.768 560.712 867.535 559.522 867.535 558.25C867.535 556.978 867.768 555.788 868.235 554.68C868.713 553.572 869.366 552.597 870.195 551.757C871.035 550.906 872.003 550.241 873.1 549.762C874.196 549.284 875.375 549.045 876.635 549.045C877.72 549.045 878.676 549.284 879.505 549.762C880.333 550.229 881.021 550.847 881.57 551.617V549.5ZM876.687 563.342C877.586 563.342 878.379 563.115 879.067 562.66C879.767 562.193 880.316 561.575 880.712 560.805C881.109 560.023 881.307 559.172 881.307 558.25C881.307 557.317 881.103 556.465 880.695 555.695C880.298 554.925 879.75 554.307 879.05 553.84C878.361 553.373 877.574 553.14 876.687 553.14C875.812 553.14 875.013 553.373 874.29 553.84C873.566 554.295 872.989 554.907 872.557 555.677C872.126 556.447 871.91 557.305 871.91 558.25C871.91 559.195 872.126 560.052 872.557 560.822C872.989 561.592 873.566 562.205 874.29 562.66C875.013 563.115 875.812 563.342 876.687 563.342ZM899.789 567.455C898.179 567.455 896.709 567.041 895.379 566.212C894.061 565.384 893.005 564.27 892.212 562.87C891.43 561.47 891.039 559.924 891.039 558.232C891.039 556.961 891.267 555.771 891.722 554.662C892.177 553.542 892.801 552.562 893.594 551.722C894.399 550.871 895.333 550.206 896.394 549.727C897.456 549.249 898.588 549.01 899.789 549.01C901.154 549.01 902.403 549.302 903.534 549.885C904.678 550.457 905.646 551.244 906.439 552.247C907.233 553.251 907.81 554.394 908.172 555.677C908.534 556.961 908.615 558.302 908.417 559.702H895.624C895.788 560.356 896.056 560.945 896.429 561.47C896.803 561.983 897.275 562.397 897.847 562.712C898.419 563.016 899.066 563.173 899.789 563.185C900.536 563.197 901.213 563.022 901.819 562.66C902.438 562.287 902.951 561.785 903.359 561.155L907.717 562.17C907.005 563.722 905.944 564.993 904.532 565.985C903.12 566.965 901.539 567.455 899.789 567.455ZM895.484 556.5H904.094C903.966 555.8 903.692 555.17 903.272 554.61C902.864 554.038 902.356 553.583 901.749 553.245C901.143 552.907 900.489 552.737 899.789 552.737C899.089 552.737 898.442 552.907 897.847 553.245C897.252 553.572 896.744 554.021 896.324 554.592C895.916 555.152 895.636 555.788 895.484 556.5ZM923.094 553.77H919.699V567H915.429V553.77H912.839V549.5H915.429V544.005H919.699V549.5H923.094V553.77ZM944.738 555.94V567H940.468V557.06C940.468 556.372 940.299 555.747 939.961 555.187C939.622 554.616 939.167 554.167 938.596 553.84C938.036 553.502 937.412 553.332 936.723 553.332C936.035 553.332 935.405 553.502 934.833 553.84C934.273 554.167 933.824 554.616 933.486 555.187C933.159 555.747 932.996 556.372 932.996 557.06V567H928.726L928.708 540.75H932.978L932.996 551.057C933.591 550.427 934.302 549.932 935.131 549.57C935.959 549.197 936.852 549.01 937.808 549.01C939.08 549.01 940.241 549.325 941.291 549.955C942.341 550.573 943.175 551.407 943.793 552.457C944.423 553.496 944.738 554.657 944.738 555.94ZM958.033 567.455C956.423 567.455 954.953 567.041 953.623 566.212C952.305 565.384 951.249 564.27 950.456 562.87C949.674 561.47 949.283 559.924 949.283 558.232C949.283 556.961 949.511 555.771 949.966 554.662C950.421 553.542 951.045 552.562 951.838 551.722C952.643 550.871 953.576 550.206 954.638 549.727C955.7 549.249 956.831 549.01 958.033 549.01C959.398 549.01 960.646 549.302 961.778 549.885C962.921 550.457 963.89 551.244 964.683 552.247C965.476 553.251 966.054 554.394 966.416 555.677C966.777 556.961 966.859 558.302 966.661 559.702H953.868C954.031 560.356 954.3 560.945 954.673 561.47C955.046 561.983 955.519 562.397 956.091 562.712C956.662 563.016 957.31 563.173 958.033 563.185C958.78 563.197 959.456 563.022 960.063 562.66C960.681 562.287 961.195 561.785 961.603 561.155L965.961 562.17C965.249 563.722 964.187 564.993 962.776 565.985C961.364 566.965 959.783 567.455 958.033 567.455ZM953.728 556.5H962.338C962.21 555.8 961.936 555.17 961.516 554.61C961.107 554.038 960.6 553.583 959.993 553.245C959.386 552.907 958.733 552.737 958.033 552.737C957.333 552.737 956.686 552.907 956.091 553.245C955.496 553.572 954.988 554.021 954.568 554.592C954.16 555.152 953.88 555.788 953.728 556.5ZM971.975 567L971.958 549.5H976.228L976.245 551.057C976.84 550.427 977.552 549.932 978.38 549.57C979.209 549.197 980.101 549.01 981.058 549.01C981.699 549.01 982.341 549.103 982.983 549.29L981.303 553.595C980.859 553.42 980.416 553.332 979.973 553.332C979.284 553.332 978.654 553.502 978.083 553.84C977.523 554.167 977.074 554.616 976.735 555.187C976.409 555.747 976.245 556.372 976.245 557.06V567H971.975ZM645.13 609H640.895L635.05 591.5H639.233L643.03 602.822L646.81 591.5H651.028L654.808 602.822L658.605 591.5H662.788L656.943 609H652.708L648.91 597.625L645.13 609ZM667.842 591.5H672.112V609H667.842V591.5ZM670.012 589.242C669.382 589.242 668.851 589.038 668.419 588.63C667.988 588.21 667.772 587.685 667.772 587.055C667.772 586.437 667.988 585.917 668.419 585.497C668.851 585.077 669.376 584.867 669.994 584.867C670.613 584.867 671.132 585.077 671.552 585.497C671.984 585.917 672.199 586.437 672.199 587.055C672.199 587.685 671.989 588.21 671.569 588.63C671.149 589.038 670.63 589.242 670.012 589.242ZM678.649 609L678.632 591.5H682.902L682.919 593.057C683.514 592.427 684.226 591.932 685.054 591.57C685.883 591.197 686.775 591.01 687.732 591.01C688.374 591.01 689.015 591.103 689.657 591.29L687.977 595.595C687.534 595.42 687.09 595.332 686.647 595.332C685.959 595.332 685.329 595.502 684.757 595.84C684.197 596.167 683.748 596.616 683.409 597.187C683.083 597.747 682.919 598.372 682.919 599.06V609H678.649ZM700.95 609.455C699.34 609.455 697.87 609.041 696.54 608.212C695.221 607.384 694.166 606.27 693.372 604.87C692.591 603.47 692.2 601.924 692.2 600.232C692.2 598.961 692.427 597.771 692.882 596.662C693.337 595.542 693.961 594.562 694.755 593.722C695.56 592.871 696.493 592.206 697.555 591.727C698.616 591.249 699.748 591.01 700.95 591.01C702.315 591.01 703.563 591.302 704.695 591.885C705.838 592.457 706.806 593.244 707.6 594.247C708.393 595.251 708.971 596.394 709.332 597.677C709.694 598.961 709.776 600.302 709.577 601.702H696.785C696.948 602.356 697.216 602.945 697.59 603.47C697.963 603.983 698.436 604.397 699.007 604.712C699.579 605.016 700.226 605.173 700.95 605.185C701.696 605.197 702.373 605.022 702.98 604.66C703.598 604.287 704.111 603.785 704.52 603.155L708.877 604.17C708.166 605.722 707.104 606.993 705.692 607.985C704.281 608.965 702.7 609.455 700.95 609.455ZM696.645 598.5H705.255C705.126 597.8 704.852 597.17 704.432 596.61C704.024 596.038 703.516 595.583 702.91 595.245C702.303 594.907 701.65 594.737 700.95 594.737C700.25 594.737 699.602 594.907 699.007 595.245C698.412 595.572 697.905 596.021 697.485 596.592C697.076 597.152 696.796 597.788 696.645 598.5ZM720.174 609.315C719.264 609.257 718.383 609.076 717.531 608.772C716.691 608.457 715.945 608.032 715.291 607.495C714.638 606.958 714.136 606.317 713.786 605.57L717.391 604.03C717.531 604.263 717.759 604.514 718.074 604.782C718.389 605.039 718.762 605.255 719.194 605.43C719.637 605.605 720.121 605.692 720.646 605.692C721.09 605.692 721.51 605.634 721.906 605.517C722.315 605.389 722.641 605.197 722.886 604.94C723.143 604.683 723.271 604.351 723.271 603.942C723.271 603.511 723.12 603.178 722.816 602.945C722.525 602.7 722.151 602.519 721.696 602.402C721.253 602.274 720.821 602.157 720.401 602.052C719.293 601.831 718.26 601.487 717.304 601.02C716.359 600.553 715.595 599.952 715.011 599.217C714.44 598.471 714.154 597.572 714.154 596.522C714.154 595.367 714.457 594.37 715.064 593.53C715.682 592.69 716.481 592.042 717.461 591.587C718.453 591.132 719.52 590.905 720.664 590.905C722.052 590.905 723.324 591.197 724.479 591.78C725.645 592.352 726.567 593.162 727.244 594.212L723.866 596.207C723.703 595.927 723.475 595.671 723.184 595.437C722.892 595.192 722.56 594.994 722.186 594.842C721.813 594.679 721.422 594.586 721.014 594.562C720.489 594.539 720.01 594.586 719.579 594.702C719.147 594.819 718.797 595.017 718.529 595.297C718.272 595.577 718.144 595.951 718.144 596.417C718.144 596.861 718.319 597.193 718.669 597.415C719.019 597.625 719.439 597.788 719.929 597.905C720.43 598.022 720.909 598.15 721.364 598.29C722.39 598.628 723.353 599.042 724.251 599.532C725.161 600.022 725.89 600.623 726.439 601.335C726.987 602.047 727.25 602.898 727.226 603.89C727.226 605.022 726.888 606.013 726.211 606.865C725.535 607.705 724.66 608.347 723.586 608.79C722.525 609.233 721.387 609.408 720.174 609.315ZM752.909 595.77H749.514V609H745.244V595.77H742.654V591.5H745.244V586.005H749.514V591.5H752.909V595.77ZM765.813 609.455C764.203 609.455 762.733 609.041 761.403 608.212C760.085 607.384 759.029 606.276 758.236 604.887C757.454 603.487 757.063 601.942 757.063 600.25C757.063 598.967 757.291 597.771 757.746 596.662C758.201 595.542 758.825 594.562 759.618 593.722C760.423 592.871 761.357 592.206 762.418 591.727C763.48 591.249 764.612 591.01 765.813 591.01C767.423 591.01 768.887 591.424 770.206 592.252C771.536 593.081 772.592 594.195 773.373 595.595C774.167 596.995 774.563 598.547 774.563 600.25C774.563 601.522 774.336 602.712 773.881 603.82C773.426 604.928 772.796 605.908 771.991 606.76C771.197 607.6 770.27 608.259 769.208 608.737C768.158 609.216 767.027 609.455 765.813 609.455ZM765.813 605.185C766.665 605.185 767.429 604.957 768.106 604.503C768.782 604.047 769.313 603.447 769.698 602.7C770.095 601.953 770.293 601.137 770.293 600.25C770.293 599.34 770.089 598.512 769.681 597.765C769.284 597.007 768.742 596.406 768.053 595.962C767.377 595.507 766.63 595.28 765.813 595.28C764.973 595.28 764.215 595.507 763.538 595.962C762.862 596.417 762.325 597.024 761.928 597.782C761.532 598.541 761.333 599.363 761.333 600.25C761.333 601.172 761.537 602.006 761.946 602.752C762.354 603.499 762.897 604.094 763.573 604.537C764.262 604.969 765.008 605.185 765.813 605.185ZM792.791 591.5H797.061V609.333C797.061 610.593 796.805 611.736 796.291 612.763C795.778 613.801 795.078 614.688 794.191 615.423C793.305 616.169 792.29 616.741 791.146 617.138C790.003 617.546 788.801 617.75 787.541 617.75C786.316 617.75 785.138 617.499 784.006 616.998C782.875 616.496 781.871 615.808 780.996 614.933C780.133 614.069 779.474 613.083 779.019 611.975L782.921 610.208C783.155 610.849 783.505 611.409 783.971 611.888C784.45 612.378 784.998 612.757 785.616 613.025C786.235 613.305 786.876 613.445 787.541 613.445C788.218 613.445 788.866 613.352 789.484 613.165C790.114 612.978 790.68 612.704 791.181 612.343C791.683 611.993 792.074 611.561 792.354 611.048C792.646 610.546 792.791 609.974 792.791 609.333V606.865C792.243 607.635 791.555 608.259 790.726 608.737C789.898 609.216 788.941 609.455 787.856 609.455C786.596 609.455 785.418 609.216 784.321 608.737C783.225 608.259 782.256 607.6 781.416 606.76C780.588 605.908 779.935 604.928 779.456 603.82C778.99 602.712 778.756 601.522 778.756 600.25C778.756 598.978 778.99 597.788 779.456 596.68C779.935 595.572 780.588 594.597 781.416 593.757C782.256 592.906 783.225 592.241 784.321 591.762C785.418 591.284 786.596 591.045 787.856 591.045C788.941 591.045 789.898 591.284 790.726 591.762C791.555 592.229 792.243 592.847 792.791 593.617V591.5ZM787.909 605.342C788.807 605.342 789.601 605.115 790.289 604.66C790.989 604.193 791.537 603.575 791.934 602.805C792.331 602.023 792.529 601.172 792.529 600.25C792.529 599.317 792.325 598.465 791.916 597.695C791.52 596.925 790.971 596.307 790.271 595.84C789.583 595.373 788.796 595.14 787.909 595.14C787.034 595.14 786.235 595.373 785.511 595.84C784.788 596.295 784.211 596.907 783.779 597.677C783.347 598.447 783.131 599.305 783.131 600.25C783.131 601.195 783.347 602.052 783.779 602.822C784.211 603.592 784.788 604.205 785.511 604.66C786.235 605.115 787.034 605.342 787.909 605.342ZM811.011 609.455C809.401 609.455 807.931 609.041 806.601 608.212C805.283 607.384 804.227 606.27 803.434 604.87C802.652 603.47 802.261 601.924 802.261 600.232C802.261 598.961 802.489 597.771 802.944 596.662C803.399 595.542 804.023 594.562 804.816 593.722C805.621 592.871 806.554 592.206 807.616 591.727C808.678 591.249 809.809 591.01 811.011 591.01C812.376 591.01 813.624 591.302 814.756 591.885C815.899 592.457 816.868 593.244 817.661 594.247C818.454 595.251 819.032 596.394 819.394 597.677C819.755 598.961 819.837 600.302 819.639 601.702H806.846C807.009 602.356 807.278 602.945 807.651 603.47C808.024 603.983 808.497 604.397 809.069 604.712C809.64 605.016 810.288 605.173 811.011 605.185C811.758 605.197 812.434 605.022 813.041 604.66C813.659 604.287 814.173 603.785 814.581 603.155L818.939 604.17C818.227 605.722 817.165 606.993 815.754 607.985C814.342 608.965 812.761 609.455 811.011 609.455ZM806.706 598.5H815.316C815.188 597.8 814.914 597.17 814.494 596.61C814.085 596.038 813.578 595.583 812.971 595.245C812.364 594.907 811.711 594.737 811.011 594.737C810.311 594.737 809.664 594.907 809.069 595.245C808.474 595.572 807.966 596.021 807.546 596.592C807.138 597.152 806.858 597.788 806.706 598.5ZM834.316 595.77H830.921V609H826.651V595.77H824.061V591.5H826.651V586.005H830.921V591.5H834.316V595.77ZM855.96 597.94V609H851.69V599.06C851.69 598.372 851.521 597.747 851.182 597.187C850.844 596.616 850.389 596.167 849.817 595.84C849.257 595.502 848.633 595.332 847.945 595.332C847.257 595.332 846.627 595.502 846.055 595.84C845.495 596.167 845.046 596.616 844.707 597.187C844.381 597.747 844.217 598.372 844.217 599.06V609H839.947L839.93 582.75H844.2L844.217 593.057C844.812 592.427 845.524 591.932 846.352 591.57C847.181 591.197 848.073 591.01 849.03 591.01C850.302 591.01 851.462 591.325 852.512 591.955C853.562 592.573 854.397 593.407 855.015 594.457C855.645 595.496 855.96 596.657 855.96 597.94ZM869.255 609.455C867.645 609.455 866.175 609.041 864.845 608.212C863.526 607.384 862.471 606.27 861.677 604.87C860.896 603.47 860.505 601.924 860.505 600.232C860.505 598.961 860.732 597.771 861.187 596.662C861.642 595.542 862.266 594.562 863.06 593.722C863.865 592.871 864.798 592.206 865.86 591.727C866.921 591.249 868.053 591.01 869.255 591.01C870.62 591.01 871.868 591.302 873 591.885C874.143 592.457 875.111 593.244 875.905 594.247C876.698 595.251 877.276 596.394 877.637 597.677C877.999 598.961 878.081 600.302 877.882 601.702H865.09C865.253 602.356 865.521 602.945 865.895 603.47C866.268 603.983 866.741 604.397 867.312 604.712C867.884 605.016 868.531 605.173 869.255 605.185C870.001 605.197 870.678 605.022 871.285 604.66C871.903 604.287 872.416 603.785 872.825 603.155L877.182 604.17C876.471 605.722 875.409 606.993 873.997 607.985C872.586 608.965 871.005 609.455 869.255 609.455ZM864.95 598.5H873.56C873.431 597.8 873.157 597.17 872.737 596.61C872.329 596.038 871.821 595.583 871.215 595.245C870.608 594.907 869.955 594.737 869.255 594.737C868.555 594.737 867.907 594.907 867.312 595.245C866.717 595.572 866.21 596.021 865.79 596.592C865.381 597.152 865.101 597.788 864.95 598.5ZM883.197 609L883.179 591.5H887.449L887.467 593.057C888.062 592.427 888.774 591.932 889.602 591.57C890.43 591.197 891.323 591.01 892.279 591.01C892.921 591.01 893.563 591.103 894.204 591.29L892.524 595.595C892.081 595.42 891.638 595.332 891.194 595.332C890.506 595.332 889.876 595.502 889.304 595.84C888.744 596.167 888.295 596.616 887.957 597.187C887.63 597.747 887.467 598.372 887.467 599.06V609H883.197Z" fill="black"/>
<path d="M644.308 768L635.418 743.5H639.95L647.038 763.012L654.143 743.5H658.658L649.768 768H644.308ZM663.159 750.5H667.429V768H663.159V750.5ZM665.329 748.242C664.699 748.242 664.169 748.038 663.737 747.63C663.305 747.21 663.089 746.685 663.089 746.055C663.089 745.437 663.305 744.917 663.737 744.497C664.169 744.077 664.694 743.867 665.312 743.867C665.93 743.867 666.449 744.077 666.869 744.497C667.301 744.917 667.517 745.437 667.517 746.055C667.517 746.685 667.307 747.21 666.887 747.63C666.467 748.038 665.948 748.242 665.329 748.242ZM674.154 768V741.75H678.424V768H674.154ZM698.037 741.75H702.307V768H698.037V765.812C697.477 766.594 696.772 767.23 695.92 767.72C695.068 768.21 694.082 768.455 692.962 768.455C691.691 768.455 690.501 768.216 689.392 767.737C688.284 767.259 687.304 766.6 686.452 765.76C685.612 764.908 684.953 763.928 684.475 762.82C683.997 761.712 683.757 760.522 683.757 759.25C683.757 757.978 683.997 756.788 684.475 755.68C684.953 754.572 685.612 753.597 686.452 752.757C687.304 751.906 688.284 751.241 689.392 750.762C690.501 750.284 691.691 750.045 692.962 750.045C694.082 750.045 695.068 750.29 695.92 750.78C696.772 751.258 697.477 751.894 698.037 752.687V741.75ZM693.015 764.342C693.925 764.342 694.73 764.115 695.43 763.66C696.13 763.205 696.678 762.592 697.075 761.822C697.472 761.041 697.67 760.183 697.67 759.25C697.67 758.305 697.472 757.447 697.075 756.677C696.678 755.896 696.124 755.277 695.412 754.822C694.712 754.367 693.913 754.14 693.015 754.14C692.117 754.14 691.294 754.373 690.547 754.84C689.812 755.295 689.223 755.907 688.78 756.677C688.348 757.447 688.132 758.305 688.132 759.25C688.132 760.195 688.354 761.052 688.797 761.822C689.241 762.592 689.83 763.205 690.565 763.66C691.312 764.115 692.128 764.342 693.015 764.342ZM719.82 768V750.5H724.09V752.057C724.685 751.427 725.396 750.932 726.225 750.57C727.053 750.197 727.946 750.01 728.902 750.01C730.116 750.01 731.23 750.296 732.245 750.867C733.271 751.439 734.088 752.203 734.695 753.16C735.313 752.203 736.13 751.439 737.145 750.867C738.16 750.296 739.274 750.01 740.487 750.01C741.771 750.01 742.931 750.325 743.97 750.955C745.02 751.573 745.854 752.407 746.472 753.457C747.102 754.496 747.417 755.657 747.417 756.94V768H743.147V758.077C743.147 757.401 742.978 756.782 742.64 756.222C742.313 755.651 741.87 755.196 741.31 754.857C740.761 754.507 740.143 754.332 739.455 754.332C738.766 754.332 738.142 754.502 737.582 754.84C737.034 755.167 736.591 755.61 736.252 756.17C735.914 756.73 735.745 757.366 735.745 758.077V768H731.475V758.077C731.475 757.366 731.311 756.73 730.985 756.17C730.658 755.61 730.215 755.167 729.655 754.84C729.095 754.502 728.471 754.332 727.782 754.332C727.106 754.332 726.487 754.507 725.927 754.857C725.367 755.196 724.918 755.651 724.58 756.222C724.253 756.782 724.09 757.401 724.09 758.077V768H719.82ZM760.731 768.455C759.121 768.455 757.651 768.041 756.321 767.212C755.003 766.384 753.947 765.27 753.154 763.87C752.372 762.47 751.981 760.924 751.981 759.232C751.981 757.961 752.209 756.771 752.664 755.662C753.119 754.542 753.743 753.562 754.536 752.722C755.341 751.871 756.275 751.206 757.336 750.727C758.398 750.249 759.53 750.01 760.731 750.01C762.096 750.01 763.345 750.302 764.476 750.885C765.62 751.457 766.588 752.244 767.381 753.247C768.175 754.251 768.752 755.394 769.114 756.677C769.476 757.961 769.557 759.302 769.359 760.702H756.566C756.73 761.356 756.998 761.945 757.371 762.47C757.745 762.983 758.217 763.397 758.789 763.712C759.361 764.016 760.008 764.173 760.731 764.185C761.478 764.197 762.155 764.022 762.761 763.66C763.38 763.287 763.893 762.785 764.301 762.155L768.659 763.17C767.947 764.722 766.886 765.993 765.474 766.985C764.062 767.965 762.481 768.455 760.731 768.455ZM756.426 757.5H765.036C764.908 756.8 764.634 756.17 764.214 755.61C763.806 755.038 763.298 754.583 762.691 754.245C762.085 753.907 761.431 753.737 760.731 753.737C760.031 753.737 759.384 753.907 758.789 754.245C758.194 754.572 757.686 755.021 757.266 755.592C756.858 756.152 756.578 756.788 756.426 757.5ZM787.955 741.75H792.225V768H787.955V765.812C787.395 766.594 786.689 767.23 785.837 767.72C784.985 768.21 784 768.455 782.88 768.455C781.608 768.455 780.418 768.216 779.31 767.737C778.201 767.259 777.221 766.6 776.37 765.76C775.53 764.908 774.87 763.928 774.392 762.82C773.914 761.712 773.675 760.522 773.675 759.25C773.675 757.978 773.914 756.788 774.392 755.68C774.87 754.572 775.53 753.597 776.37 752.757C777.221 751.906 778.201 751.241 779.31 750.762C780.418 750.284 781.608 750.045 782.88 750.045C784 750.045 784.985 750.29 785.837 750.78C786.689 751.258 787.395 751.894 787.955 752.687V741.75ZM782.932 764.342C783.842 764.342 784.647 764.115 785.347 763.66C786.047 763.205 786.595 762.592 786.992 761.822C787.389 761.041 787.587 760.183 787.587 759.25C787.587 758.305 787.389 757.447 786.992 756.677C786.595 755.896 786.041 755.277 785.33 754.822C784.63 754.367 783.83 754.14 782.932 754.14C782.034 754.14 781.211 754.373 780.465 754.84C779.73 755.295 779.14 755.907 778.697 756.677C778.265 757.447 778.05 758.305 778.05 759.25C778.05 760.195 778.271 761.052 778.715 761.822C779.158 762.592 779.747 763.205 780.482 763.66C781.229 764.115 782.045 764.342 782.932 764.342ZM809.737 768V750.5H814.007V752.057C814.602 751.427 815.314 750.932 816.142 750.57C816.97 750.197 817.863 750.01 818.819 750.01C820.033 750.01 821.147 750.296 822.162 750.867C823.189 751.439 824.005 752.203 824.612 753.16C825.23 752.203 826.047 751.439 827.062 750.867C828.077 750.296 829.191 750.01 830.404 750.01C831.688 750.01 832.849 750.325 833.887 750.955C834.937 751.573 835.771 752.407 836.389 753.457C837.019 754.496 837.334 755.657 837.334 756.94V768H833.064V758.077C833.064 757.401 832.895 756.782 832.557 756.222C832.23 755.651 831.787 755.196 831.227 754.857C830.679 754.507 830.06 754.332 829.372 754.332C828.684 754.332 828.059 754.502 827.499 754.84C826.951 755.167 826.508 755.61 826.169 756.17C825.831 756.73 825.662 757.366 825.662 758.077V768H821.392V758.077C821.392 757.366 821.229 756.73 820.902 756.17C820.575 755.61 820.132 755.167 819.572 754.84C819.012 754.502 818.388 754.332 817.699 754.332C817.023 754.332 816.404 754.507 815.844 754.857C815.284 755.196 814.835 755.651 814.497 756.222C814.17 756.782 814.007 757.401 814.007 758.077V768H809.737ZM843.29 750.5H847.56V768H843.29V750.5ZM845.46 748.242C844.83 748.242 844.3 748.038 843.868 747.63C843.436 747.21 843.22 746.685 843.22 746.055C843.22 745.437 843.436 744.917 843.868 744.497C844.3 744.077 844.825 743.867 845.443 743.867C846.061 743.867 846.58 744.077 847 744.497C847.432 744.917 847.648 745.437 847.648 746.055C847.648 746.685 847.438 747.21 847.018 747.63C846.598 748.038 846.079 748.242 845.46 748.242ZM866.792 750.5H871.062V768.333C871.062 769.593 870.805 770.736 870.292 771.763C869.778 772.801 869.078 773.688 868.192 774.423C867.305 775.169 866.29 775.741 865.147 776.138C864.003 776.546 862.802 776.75 861.542 776.75C860.317 776.75 859.138 776.499 858.007 775.998C856.875 775.496 855.872 774.808 854.997 773.933C854.133 773.069 853.474 772.083 853.019 770.975L856.922 769.208C857.155 769.849 857.505 770.409 857.972 770.888C858.45 771.378 858.998 771.757 859.617 772.025C860.235 772.305 860.877 772.445 861.542 772.445C862.218 772.445 862.866 772.352 863.484 772.165C864.114 771.978 864.68 771.704 865.182 771.343C865.684 770.993 866.074 770.561 866.354 770.048C866.646 769.546 866.792 768.974 866.792 768.333V765.865C866.244 766.635 865.555 767.259 864.727 767.737C863.899 768.216 862.942 768.455 861.857 768.455C860.597 768.455 859.419 768.216 858.322 767.737C857.225 767.259 856.257 766.6 855.417 765.76C854.588 764.908 853.935 763.928 853.457 762.82C852.99 761.712 852.757 760.522 852.757 759.25C852.757 757.978 852.99 756.788 853.457 755.68C853.935 754.572 854.588 753.597 855.417 752.757C856.257 751.906 857.225 751.241 858.322 750.762C859.419 750.284 860.597 750.045 861.857 750.045C862.942 750.045 863.899 750.284 864.727 750.762C865.555 751.229 866.244 751.847 866.792 752.617V750.5ZM861.909 764.342C862.808 764.342 863.601 764.115 864.289 763.66C864.989 763.193 865.538 762.575 865.934 761.805C866.331 761.023 866.529 760.172 866.529 759.25C866.529 758.317 866.325 757.465 865.917 756.695C865.52 755.925 864.972 755.307 864.272 754.84C863.584 754.373 862.796 754.14 861.909 754.14C861.034 754.14 860.235 754.373 859.512 754.84C858.788 755.295 858.211 755.907 857.779 756.677C857.348 757.447 857.132 758.305 857.132 759.25C857.132 760.195 857.348 761.052 857.779 761.822C858.211 762.592 858.788 763.205 859.512 763.66C860.235 764.115 861.034 764.342 861.909 764.342Z" fill="black"/>
<path d="M644.308 399L635.418 374.5H639.95L647.038 394.012L654.143 374.5H658.658L649.768 399H644.308ZM663.159 381.5H667.429V399H663.159V381.5ZM665.329 379.242C664.699 379.242 664.169 379.038 663.737 378.63C663.305 378.21 663.089 377.685 663.089 377.055C663.089 376.437 663.305 375.917 663.737 375.497C664.169 375.077 664.694 374.867 665.312 374.867C665.93 374.867 666.449 375.077 666.869 375.497C667.301 375.917 667.517 376.437 667.517 377.055C667.517 377.685 667.307 378.21 666.887 378.63C666.467 379.038 665.948 379.242 665.329 379.242ZM674.154 399V372.75H678.424V399H674.154ZM698.037 372.75H702.307V399H698.037V396.812C697.477 397.594 696.772 398.23 695.92 398.72C695.068 399.21 694.082 399.455 692.962 399.455C691.691 399.455 690.501 399.216 689.392 398.737C688.284 398.259 687.304 397.6 686.452 396.76C685.612 395.908 684.953 394.928 684.475 393.82C683.997 392.712 683.757 391.522 683.757 390.25C683.757 388.978 683.997 387.788 684.475 386.68C684.953 385.572 685.612 384.597 686.452 383.757C687.304 382.906 688.284 382.241 689.392 381.762C690.501 381.284 691.691 381.045 692.962 381.045C694.082 381.045 695.068 381.29 695.92 381.78C696.772 382.258 697.477 382.894 698.037 383.687V372.75ZM693.015 395.342C693.925 395.342 694.73 395.115 695.43 394.66C696.13 394.205 696.678 393.592 697.075 392.822C697.472 392.041 697.67 391.183 697.67 390.25C697.67 389.305 697.472 388.447 697.075 387.677C696.678 386.896 696.124 386.277 695.412 385.822C694.712 385.367 693.913 385.14 693.015 385.14C692.117 385.14 691.294 385.373 690.547 385.84C689.812 386.295 689.223 386.907 688.78 387.677C688.348 388.447 688.132 389.305 688.132 390.25C688.132 391.195 688.354 392.052 688.797 392.822C689.241 393.592 689.83 394.205 690.565 394.66C691.312 395.115 692.128 395.342 693.015 395.342ZM719.82 399V381.5H724.09V383.057C724.685 382.427 725.396 381.932 726.225 381.57C727.053 381.197 727.946 381.01 728.902 381.01C730.116 381.01 731.23 381.296 732.245 381.867C733.271 382.439 734.088 383.203 734.695 384.16C735.313 383.203 736.13 382.439 737.145 381.867C738.16 381.296 739.274 381.01 740.487 381.01C741.771 381.01 742.931 381.325 743.97 381.955C745.02 382.573 745.854 383.407 746.472 384.457C747.102 385.496 747.417 386.657 747.417 387.94V399H743.147V389.077C743.147 388.401 742.978 387.782 742.64 387.222C742.313 386.651 741.87 386.196 741.31 385.857C740.761 385.507 740.143 385.332 739.455 385.332C738.766 385.332 738.142 385.502 737.582 385.84C737.034 386.167 736.591 386.61 736.252 387.17C735.914 387.73 735.745 388.366 735.745 389.077V399H731.475V389.077C731.475 388.366 731.311 387.73 730.985 387.17C730.658 386.61 730.215 386.167 729.655 385.84C729.095 385.502 728.471 385.332 727.782 385.332C727.106 385.332 726.487 385.507 725.927 385.857C725.367 386.196 724.918 386.651 724.58 387.222C724.253 387.782 724.09 388.401 724.09 389.077V399H719.82ZM760.731 399.455C759.121 399.455 757.651 399.041 756.321 398.212C755.003 397.384 753.947 396.27 753.154 394.87C752.372 393.47 751.981 391.924 751.981 390.232C751.981 388.961 752.209 387.771 752.664 386.662C753.119 385.542 753.743 384.562 754.536 383.722C755.341 382.871 756.275 382.206 757.336 381.727C758.398 381.249 759.53 381.01 760.731 381.01C762.096 381.01 763.345 381.302 764.476 381.885C765.62 382.457 766.588 383.244 767.381 384.247C768.175 385.251 768.752 386.394 769.114 387.677C769.476 388.961 769.557 390.302 769.359 391.702H756.566C756.73 392.356 756.998 392.945 757.371 393.47C757.745 393.983 758.217 394.397 758.789 394.712C759.361 395.016 760.008 395.173 760.731 395.185C761.478 395.197 762.155 395.022 762.761 394.66C763.38 394.287 763.893 393.785 764.301 393.155L768.659 394.17C767.947 395.722 766.886 396.993 765.474 397.985C764.062 398.965 762.481 399.455 760.731 399.455ZM756.426 388.5H765.036C764.908 387.8 764.634 387.17 764.214 386.61C763.806 386.038 763.298 385.583 762.691 385.245C762.085 384.907 761.431 384.737 760.731 384.737C760.031 384.737 759.384 384.907 758.789 385.245C758.194 385.572 757.686 386.021 757.266 386.592C756.858 387.152 756.578 387.788 756.426 388.5ZM787.955 372.75H792.225V399H787.955V396.812C787.395 397.594 786.689 398.23 785.837 398.72C784.985 399.21 784 399.455 782.88 399.455C781.608 399.455 780.418 399.216 779.31 398.737C778.201 398.259 777.221 397.6 776.37 396.76C775.53 395.908 774.87 394.928 774.392 393.82C773.914 392.712 773.675 391.522 773.675 390.25C773.675 388.978 773.914 387.788 774.392 386.68C774.87 385.572 775.53 384.597 776.37 383.757C777.221 382.906 778.201 382.241 779.31 381.762C780.418 381.284 781.608 381.045 782.88 381.045C784 381.045 784.985 381.29 785.837 381.78C786.689 382.258 787.395 382.894 787.955 383.687V372.75ZM782.932 395.342C783.842 395.342 784.647 395.115 785.347 394.66C786.047 394.205 786.595 393.592 786.992 392.822C787.389 392.041 787.587 391.183 787.587 390.25C787.587 389.305 787.389 388.447 786.992 387.677C786.595 386.896 786.041 386.277 785.33 385.822C784.63 385.367 783.83 385.14 782.932 385.14C782.034 385.14 781.211 385.373 780.465 385.84C779.73 386.295 779.14 386.907 778.697 387.677C778.265 388.447 778.05 389.305 778.05 390.25C778.05 391.195 778.271 392.052 778.715 392.822C779.158 393.592 779.747 394.205 780.482 394.66C781.229 395.115 782.045 395.342 782.932 395.342ZM809.737 399V381.5H814.007V383.057C814.602 382.427 815.314 381.932 816.142 381.57C816.97 381.197 817.863 381.01 818.819 381.01C820.033 381.01 821.147 381.296 822.162 381.867C823.189 382.439 824.005 383.203 824.612 384.16C825.23 383.203 826.047 382.439 827.062 381.867C828.077 381.296 829.191 381.01 830.404 381.01C831.688 381.01 832.849 381.325 833.887 381.955C834.937 382.573 835.771 383.407 836.389 384.457C837.019 385.496 837.334 386.657 837.334 387.94V399H833.064V389.077C833.064 388.401 832.895 387.782 832.557 387.222C832.23 386.651 831.787 386.196 831.227 385.857C830.679 385.507 830.06 385.332 829.372 385.332C828.684 385.332 828.059 385.502 827.499 385.84C826.951 386.167 826.508 386.61 826.169 387.17C825.831 387.73 825.662 388.366 825.662 389.077V399H821.392V389.077C821.392 388.366 821.229 387.73 820.902 387.17C820.575 386.61 820.132 386.167 819.572 385.84C819.012 385.502 818.388 385.332 817.699 385.332C817.023 385.332 816.404 385.507 815.844 385.857C815.284 386.196 814.835 386.651 814.497 387.222C814.17 387.782 814.007 388.401 814.007 389.077V399H809.737ZM843.29 381.5H847.56V399H843.29V381.5ZM845.46 379.242C844.83 379.242 844.3 379.038 843.868 378.63C843.436 378.21 843.22 377.685 843.22 377.055C843.22 376.437 843.436 375.917 843.868 375.497C844.3 375.077 844.825 374.867 845.443 374.867C846.061 374.867 846.58 375.077 847 375.497C847.432 375.917 847.648 376.437 847.648 377.055C847.648 377.685 847.438 378.21 847.018 378.63C846.598 379.038 846.079 379.242 845.46 379.242ZM866.792 381.5H871.062V399.333C871.062 400.593 870.805 401.736 870.292 402.763C869.778 403.801 869.078 404.688 868.192 405.423C867.305 406.169 866.29 406.741 865.147 407.138C864.003 407.546 862.802 407.75 861.542 407.75C860.317 407.75 859.138 407.499 858.007 406.998C856.875 406.496 855.872 405.808 854.997 404.933C854.133 404.069 853.474 403.083 853.019 401.975L856.922 400.208C857.155 400.849 857.505 401.409 857.972 401.888C858.45 402.378 858.998 402.757 859.617 403.025C860.235 403.305 860.877 403.445 861.542 403.445C862.218 403.445 862.866 403.352 863.484 403.165C864.114 402.978 864.68 402.704 865.182 402.343C865.684 401.993 866.074 401.561 866.354 401.048C866.646 400.546 866.792 399.974 866.792 399.333V396.865C866.244 397.635 865.555 398.259 864.727 398.737C863.899 399.216 862.942 399.455 861.857 399.455C860.597 399.455 859.419 399.216 858.322 398.737C857.225 398.259 856.257 397.6 855.417 396.76C854.588 395.908 853.935 394.928 853.457 393.82C852.99 392.712 852.757 391.522 852.757 390.25C852.757 388.978 852.99 387.788 853.457 386.68C853.935 385.572 854.588 384.597 855.417 383.757C856.257 382.906 857.225 382.241 858.322 381.762C859.419 381.284 860.597 381.045 861.857 381.045C862.942 381.045 863.899 381.284 864.727 381.762C865.555 382.229 866.244 382.847 866.792 383.617V381.5ZM861.909 395.342C862.808 395.342 863.601 395.115 864.289 394.66C864.989 394.193 865.538 393.575 865.934 392.805C866.331 392.023 866.529 391.172 866.529 390.25C866.529 389.317 866.325 388.465 865.917 387.695C865.52 386.925 864.972 386.307 864.272 385.84C863.584 385.373 862.796 385.14 861.909 385.14C861.034 385.14 860.235 385.373 859.512 385.84C858.788 386.295 858.211 386.907 857.779 387.677C857.348 388.447 857.132 389.305 857.132 390.25C857.132 391.195 857.348 392.052 857.779 392.822C858.211 393.592 858.788 394.205 859.512 394.66C860.235 395.115 861.034 395.342 861.909 395.342Z" fill="black"/>
<line x1="54" y1="486.5" x2="1003" y2="486.5" stroke="#691616"/>
<line x1="54" y1="672.5" x2="1003" y2="672.5" stroke="#691616"/>
<line x1="54" y1="314.5" x2="1003" y2="314.5" stroke="#691616"/>
<defs>
<linearGradient id="paint0_linear_55_5024" x1="539" y1="0" x2="539" y2="970" gradientUnits="userSpaceOnUse">
<stop stop-color="#FFF1E2"/>
<stop offset="1" stop-color="#BF374B"/>
</linearGradient>
</defs>
</svg>
