<svg width="1078" height="794" viewBox="0 0 1078 794" fill="none" xmlns="http://www.w3.org/2000/svg">
<rect width="1078" height="794" fill="url(#paint0_linear_55_3418)"/>
<path d="M450.259 73.855V62.875H426.53V75.502C436.412 75.502 436.534 76.051 436.534 101.854H440.316C440.316 74.465 440.316 73.855 450.259 73.855ZM460.428 65.498C460.428 63.79 460.184 61.899 456.585 61.899C452.986 61.899 452.376 63.546 452.376 65.498C452.376 67.45 453.352 68.914 456.585 68.914C459.757 68.914 460.428 67.206 460.428 65.498ZM453.84 99.719H458.781V72.818H453.84V99.719ZM475.021 82.944V73.062C470.019 73.062 469.531 72.452 469.531 69.768H463.919V101.366H467.884V95.449C467.884 83.737 468.616 82.944 475.021 82.944ZM496.63 81.846V71.415C481.014 71.415 477.293 74.404 477.293 81.846C477.293 87.763 479.855 89.471 485.65 89.471C490.53 89.471 491.811 89.471 491.811 91.484C491.811 93.192 490.042 93.558 477.598 93.558V101.549C493.336 101.549 495.654 99.109 495.654 91.85C495.654 86.848 493.275 85.75 486.748 85.75C482.539 85.75 481.929 85.262 481.929 83.798C481.929 82.395 484.552 81.846 496.63 81.846ZM517.082 104.721H519.522L518.851 59.947H513.056C513.056 72.208 512.019 71.964 508.359 71.964C502.442 71.964 499.453 74.038 499.453 84.835C499.453 98.682 501.954 100.634 510.616 100.634C516.045 100.634 517.082 100.939 517.082 104.721ZM516.472 88.617C516.472 92.521 516.045 95.327 510.006 95.327C503.967 95.327 502.93 93.131 502.93 88.617C502.93 84.103 504.638 81.785 510.006 81.785C515.374 81.785 516.472 84.713 516.472 88.617ZM539.064 104.172H542.968V87.519C542.968 71.964 542.114 70.134 525.522 70.134V78.857C534.062 78.857 537.6 79.65 537.6 81.175C537.6 82.212 536.746 82.578 533.391 82.578C527.23 82.578 524.241 83.92 524.241 92.46C524.241 99.231 526.681 100.817 532.537 100.817C538.576 100.817 539.064 101.793 539.064 104.172ZM539.857 89.349C539.857 91.667 538.942 92.887 534.123 92.887C529.365 92.887 527.84 92.033 527.84 89.349C527.84 86.665 528.816 85.689 534.123 85.689C539.491 85.689 539.857 87.031 539.857 89.349ZM565.852 88.739V68.731H561.948C561.948 72.147 559.752 72.452 554.689 72.452C548.528 72.452 546.393 77.698 546.393 85.323C546.393 95.754 549.748 97.706 555.116 97.706C558.715 97.706 559.325 98.072 559.325 99.414C559.325 100.573 558.105 101 547.857 101V108.442C564.449 108.442 565.852 106.917 565.852 88.739ZM562.802 88.434C562.802 91.789 562.436 94.229 556.763 94.229C551.151 94.229 550.114 92.338 550.114 88.434C550.114 84.591 551.7 83.188 556.763 83.188C561.826 83.188 562.802 85.079 562.802 88.434ZM606.047 74.77C606.047 64.522 602.57 62.204 583.05 62.204V75.624C596.592 75.319 600.801 76.234 600.801 78.064C600.801 79.711 600.008 80.626 594.762 81.297C585.246 82.578 582.989 84.774 582.989 92.155V100.512H605.62V90.569H599.032C589.882 90.569 589.272 90.203 589.272 89.166C589.272 86.848 590.37 86.177 595.189 85.567C602.814 84.591 606.047 82.09 606.047 74.77ZM610.828 100.329L623.333 62.631H620.1L607.595 100.329H610.828ZM651.443 74.77C651.443 67.145 649.674 60.984 637.962 60.984C626.311 60.984 624.542 67.145 624.542 74.77C624.542 78.552 626.128 82.7 629.91 83.249C627.104 84.286 626.128 86.726 626.128 90.325C626.128 95.327 627.714 100.634 637.962 100.634C648.271 100.634 649.857 95.327 649.857 90.325C649.857 86.726 648.881 84.286 646.075 83.249C649.857 82.7 651.443 78.552 651.443 74.77ZM645.831 77.271C645.831 79.223 644.55 80.809 638.145 80.809C631.679 80.809 629.666 79.528 629.666 77.271C629.666 75.014 630.947 73.733 638.145 73.733C645.282 73.733 645.831 75.258 645.831 77.271ZM645.282 87.824C645.282 89.593 644.245 90.935 638.938 90.935C633.631 90.935 631.984 89.837 631.984 87.824C631.984 85.811 633.021 84.774 638.938 84.774C644.855 84.774 645.282 86.055 645.282 87.824Z" fill="black"/>
<path d="M126.757 396V391.73L140.809 375.77H126.757V371.5H146.567V375.77L132.514 391.73H146.567V396H126.757ZM159.448 396.455C157.838 396.455 156.368 396.041 155.038 395.212C153.719 394.384 152.663 393.27 151.87 391.87C151.088 390.47 150.698 388.924 150.698 387.232C150.698 385.961 150.925 384.771 151.38 383.662C151.835 382.542 152.459 381.562 153.253 380.722C154.058 379.871 154.991 379.206 156.053 378.727C157.114 378.249 158.246 378.01 159.448 378.01C160.813 378.01 162.061 378.302 163.193 378.885C164.336 379.457 165.304 380.244 166.098 381.247C166.891 382.251 167.468 383.394 167.83 384.677C168.192 385.961 168.273 387.302 168.075 388.702H155.283C155.446 389.356 155.714 389.945 156.088 390.47C156.461 390.983 156.933 391.397 157.505 391.712C158.077 392.016 158.724 392.173 159.448 392.185C160.194 392.197 160.871 392.022 161.478 391.66C162.096 391.287 162.609 390.785 163.018 390.155L167.375 391.17C166.663 392.722 165.602 393.993 164.19 394.985C162.778 395.965 161.198 396.455 159.448 396.455ZM155.143 385.5H163.753C163.624 384.8 163.35 384.17 162.93 383.61C162.522 383.038 162.014 382.583 161.408 382.245C160.801 381.907 160.148 381.737 159.448 381.737C158.748 381.737 158.1 381.907 157.505 382.245C156.91 382.572 156.403 383.021 155.983 383.592C155.574 384.152 155.294 384.788 155.143 385.5ZM173.099 396V371.5H182.024C183.319 371.5 184.486 371.768 185.524 372.305C186.574 372.83 187.402 373.588 188.009 374.58C188.627 375.56 188.936 376.721 188.936 378.062C188.936 378.657 188.849 379.258 188.674 379.865C188.499 380.472 188.231 381.02 187.869 381.51C187.507 381.988 187.041 382.344 186.469 382.577C187.227 382.764 187.846 383.102 188.324 383.592C188.802 384.082 189.176 384.66 189.444 385.325C189.712 385.978 189.893 386.649 189.986 387.337C190.091 388.014 190.144 388.644 190.144 389.227C190.144 390.522 189.823 391.677 189.181 392.692C188.54 393.707 187.676 394.512 186.591 395.107C185.518 395.702 184.328 396 183.021 396H173.099ZM177.369 392.342H182.584C183.284 392.342 183.914 392.173 184.474 391.835C185.034 391.497 185.483 391.03 185.821 390.435C186.16 389.84 186.329 389.163 186.329 388.405C186.329 387.752 186.16 387.133 185.821 386.55C185.483 385.967 185.034 385.494 184.474 385.132C183.914 384.771 183.284 384.59 182.584 384.59H177.369V392.342ZM177.369 380.985H181.534C182.397 380.985 183.132 380.717 183.739 380.18C184.357 379.643 184.666 378.932 184.666 378.045C184.666 377.1 184.357 376.388 183.739 375.91C183.132 375.42 182.397 375.175 181.534 375.175H177.369V380.985ZM205.772 396.455C203.812 396.455 202.091 395.977 200.609 395.02C199.139 394.063 197.996 392.78 197.179 391.17C196.363 389.548 195.954 387.752 195.954 385.78V371.5H200.224V385.78C200.224 386.947 200.44 388.02 200.872 389C201.315 389.968 201.945 390.744 202.762 391.327C203.59 391.899 204.593 392.185 205.772 392.185C206.962 392.185 207.965 391.899 208.782 391.327C209.598 390.744 210.217 389.968 210.637 389C211.068 388.02 211.284 386.947 211.284 385.78V371.5H215.554V385.78C215.554 387.262 215.321 388.65 214.854 389.945C214.388 391.228 213.723 392.36 212.859 393.34C211.996 394.32 210.963 395.084 209.762 395.632C208.572 396.181 207.242 396.455 205.772 396.455Z" fill="black"/>
<path d="M135.025 581L126.135 556.5H130.667L137.755 576.012L144.86 556.5H149.375L140.485 581H135.025ZM165.628 581.455C163.971 581.455 162.413 581.128 160.955 580.475C159.497 579.81 158.213 578.894 157.105 577.727C155.997 576.561 155.128 575.213 154.498 573.685C153.868 572.145 153.553 570.5 153.553 568.75C153.553 567 153.868 565.361 154.498 563.832C155.128 562.292 155.997 560.939 157.105 559.772C158.213 558.606 159.497 557.696 160.955 557.042C162.413 556.377 163.971 556.045 165.628 556.045C167.296 556.045 168.859 556.377 170.318 557.042C171.776 557.696 173.059 558.606 174.168 559.772C175.276 560.939 176.139 562.292 176.758 563.832C177.388 565.361 177.703 567 177.703 568.75C177.703 570.5 177.388 572.145 176.758 573.685C176.139 575.213 175.276 576.561 174.168 577.727C173.059 578.894 171.776 579.81 170.318 580.475C168.859 581.128 167.296 581.455 165.628 581.455ZM165.628 577.185C166.701 577.185 167.71 576.963 168.655 576.52C169.6 576.077 170.428 575.47 171.14 574.7C171.863 573.918 172.423 573.02 172.82 572.005C173.228 570.99 173.433 569.905 173.433 568.75C173.433 567.595 173.228 566.51 172.82 565.495C172.412 564.468 171.846 563.57 171.123 562.8C170.411 562.03 169.583 561.423 168.638 560.98C167.704 560.537 166.701 560.315 165.628 560.315C164.554 560.315 163.545 560.537 162.6 560.98C161.655 561.423 160.821 562.036 160.098 562.817C159.386 563.587 158.826 564.48 158.418 565.495C158.021 566.51 157.823 567.595 157.823 568.75C157.823 569.917 158.027 571.007 158.435 572.022C158.843 573.037 159.403 573.936 160.115 574.717C160.838 575.487 161.667 576.094 162.6 576.537C163.545 576.969 164.554 577.185 165.628 577.185ZM181.253 581L190.213 568.68L181.358 556.5H186.626L192.856 565.075L199.103 556.5H204.371L195.516 568.68L204.476 581H199.173L192.856 572.32L186.556 581H181.253ZM209.38 582.96L210.465 577.045H214.735L212.233 582.96H209.38ZM85.9615 598.5V602.77H78.4715V623H74.2015V602.77H66.7115V598.5H85.9615ZM96.9414 623.455C95.3314 623.455 93.8614 623.041 92.5314 622.212C91.2131 621.384 90.1572 620.27 89.3639 618.87C88.5822 617.47 88.1914 615.924 88.1914 614.232C88.1914 612.961 88.4189 611.771 88.8739 610.662C89.3289 609.542 89.9531 608.562 90.7464 607.722C91.5514 606.871 92.4847 606.206 93.5464 605.727C94.6081 605.249 95.7397 605.01 96.9414 605.01C98.3064 605.01 99.5547 605.302 100.686 605.885C101.83 606.457 102.798 607.244 103.591 608.247C104.385 609.251 104.962 610.394 105.324 611.677C105.686 612.961 105.767 614.302 105.569 615.702H92.7764C92.9397 616.356 93.2081 616.945 93.5814 617.47C93.9547 617.983 94.4272 618.397 94.9989 618.712C95.5706 619.016 96.2181 619.173 96.9414 619.185C97.6881 619.197 98.3647 619.022 98.9714 618.66C99.5897 618.287 100.103 617.785 100.511 617.155L104.869 618.17C104.157 619.722 103.096 620.993 101.684 621.985C100.272 622.965 98.6914 623.455 96.9414 623.455ZM92.6364 612.5H101.246C101.118 611.8 100.844 611.17 100.424 610.61C100.016 610.038 99.5081 609.583 98.9014 609.245C98.2947 608.907 97.6414 608.737 96.9414 608.737C96.2414 608.737 95.5939 608.907 94.9989 609.245C94.4039 609.572 93.8964 610.021 93.4764 610.592C93.0681 611.152 92.7881 611.788 92.6364 612.5ZM124.13 605.5H128.4V623H124.13L123.937 620.83C123.459 621.612 122.823 622.247 122.03 622.737C121.248 623.216 120.32 623.455 119.247 623.455C117.952 623.455 116.739 623.21 115.607 622.72C114.475 622.23 113.478 621.553 112.615 620.69C111.763 619.827 111.092 618.829 110.602 617.697C110.124 616.566 109.885 615.352 109.885 614.057C109.885 612.809 110.112 611.637 110.567 610.54C111.034 609.443 111.681 608.481 112.51 607.652C113.338 606.824 114.295 606.177 115.38 605.71C116.465 605.243 117.631 605.01 118.88 605.01C120.035 605.01 121.067 605.267 121.977 605.78C122.899 606.293 123.68 606.947 124.322 607.74L124.13 605.5ZM119.142 619.342C120.052 619.342 120.857 619.115 121.557 618.66C122.257 618.205 122.805 617.592 123.202 616.822C123.599 616.041 123.797 615.183 123.797 614.25C123.797 613.305 123.599 612.447 123.202 611.677C122.805 610.896 122.251 610.277 121.54 609.822C120.84 609.367 120.04 609.14 119.142 609.14C118.244 609.14 117.421 609.373 116.675 609.84C115.94 610.295 115.35 610.907 114.907 611.677C114.475 612.447 114.26 613.305 114.26 614.25C114.26 615.195 114.481 616.052 114.925 616.822C115.368 617.592 115.957 618.205 116.692 618.66C117.439 619.115 118.255 619.342 119.142 619.342ZM143.717 609.77H140.322V623H136.052V609.77H133.462V605.5H136.052V600.005H140.322V605.5H143.717V609.77ZM156.621 623.455C155.011 623.455 153.541 623.041 152.211 622.212C150.892 621.384 149.836 620.27 149.043 618.87C148.261 617.47 147.871 615.924 147.871 614.232C147.871 612.961 148.098 611.771 148.553 610.662C149.008 609.542 149.632 608.562 150.426 607.722C151.231 606.871 152.164 606.206 153.226 605.727C154.287 605.249 155.419 605.01 156.621 605.01C157.986 605.01 159.234 605.302 160.366 605.885C161.509 606.457 162.477 607.244 163.271 608.247C164.064 609.251 164.641 610.394 165.003 611.677C165.365 612.961 165.446 614.302 165.248 615.702H152.456C152.619 616.356 152.887 616.945 153.261 617.47C153.634 617.983 154.106 618.397 154.678 618.712C155.25 619.016 155.897 619.173 156.621 619.185C157.367 619.197 158.044 619.022 158.651 618.66C159.269 618.287 159.782 617.785 160.191 617.155L164.548 618.17C163.836 619.722 162.775 620.993 161.363 621.985C159.951 622.965 158.371 623.455 156.621 623.455ZM152.316 612.5H160.926C160.797 611.8 160.523 611.17 160.103 610.61C159.695 610.038 159.187 609.583 158.581 609.245C157.974 608.907 157.321 608.737 156.621 608.737C155.921 608.737 155.273 608.907 154.678 609.245C154.083 609.572 153.576 610.021 153.156 610.592C152.747 611.152 152.467 611.788 152.316 612.5ZM170.563 623L170.545 605.5H174.815L174.833 607.057C175.428 606.427 176.139 605.932 176.968 605.57C177.796 605.197 178.689 605.01 179.645 605.01C180.287 605.01 180.929 605.103 181.57 605.29L179.89 609.595C179.447 609.42 179.004 609.332 178.56 609.332C177.872 609.332 177.242 609.502 176.67 609.84C176.11 610.167 175.661 610.616 175.323 611.187C174.996 611.747 174.833 612.372 174.833 613.06V623H170.563ZM202.014 611.94V623H197.744V613.06C197.744 612.372 197.574 611.747 197.236 611.187C196.898 610.616 196.443 610.167 195.871 609.84C195.311 609.502 194.687 609.332 193.999 609.332C193.31 609.332 192.68 609.502 192.109 609.84C191.549 610.167 191.099 610.616 190.761 611.187C190.434 611.747 190.271 612.372 190.271 613.06V623H186.001L185.984 596.75H190.254L190.271 607.057C190.866 606.427 191.578 605.932 192.406 605.57C193.234 605.197 194.127 605.01 195.084 605.01C196.355 605.01 197.516 605.325 198.566 605.955C199.616 606.573 200.45 607.407 201.069 608.457C201.699 609.496 202.014 610.657 202.014 611.94ZM207.25 616.525V605.5H211.52V615.405C211.52 616.093 211.689 616.723 212.028 617.295C212.366 617.855 212.815 618.304 213.375 618.642C213.947 618.969 214.571 619.132 215.248 619.132C215.948 619.132 216.578 618.969 217.138 618.642C217.698 618.304 218.147 617.855 218.485 617.295C218.824 616.723 218.993 616.093 218.993 615.405V605.5H223.263L223.28 623H219.01L218.993 621.407C218.386 622.037 217.669 622.539 216.84 622.912C216.012 623.274 215.125 623.455 214.18 623.455C212.909 623.455 211.748 623.146 210.698 622.527C209.648 621.897 208.808 621.063 208.178 620.025C207.559 618.975 207.25 617.808 207.25 616.525ZM234.396 623.315C233.486 623.257 232.605 623.076 231.753 622.772C230.913 622.457 230.167 622.032 229.513 621.495C228.86 620.958 228.358 620.317 228.008 619.57L231.613 618.03C231.753 618.263 231.981 618.514 232.296 618.782C232.611 619.039 232.984 619.255 233.416 619.43C233.859 619.605 234.343 619.692 234.868 619.692C235.312 619.692 235.732 619.634 236.128 619.517C236.537 619.389 236.863 619.197 237.108 618.94C237.365 618.683 237.493 618.351 237.493 617.942C237.493 617.511 237.342 617.178 237.038 616.945C236.747 616.7 236.373 616.519 235.918 616.402C235.475 616.274 235.043 616.157 234.623 616.052C233.515 615.831 232.482 615.487 231.526 615.02C230.581 614.553 229.817 613.952 229.233 613.217C228.662 612.471 228.376 611.572 228.376 610.522C228.376 609.367 228.679 608.37 229.286 607.53C229.904 606.69 230.703 606.042 231.683 605.587C232.675 605.132 233.742 604.905 234.886 604.905C236.274 604.905 237.546 605.197 238.701 605.78C239.867 606.352 240.789 607.162 241.466 608.212L238.088 610.207C237.925 609.927 237.697 609.671 237.406 609.437C237.114 609.192 236.782 608.994 236.408 608.842C236.035 608.679 235.644 608.586 235.236 608.562C234.711 608.539 234.232 608.586 233.801 608.702C233.369 608.819 233.019 609.017 232.751 609.297C232.494 609.577 232.366 609.951 232.366 610.417C232.366 610.861 232.541 611.193 232.891 611.415C233.241 611.625 233.661 611.788 234.151 611.905C234.652 612.022 235.131 612.15 235.586 612.29C236.612 612.628 237.575 613.042 238.473 613.532C239.383 614.022 240.112 614.623 240.661 615.335C241.209 616.047 241.472 616.898 241.448 617.89C241.448 619.022 241.11 620.013 240.433 620.865C239.757 621.705 238.882 622.347 237.808 622.79C236.747 623.233 235.609 623.408 234.396 623.315ZM254.32 623.455C252.71 623.455 251.24 623.041 249.91 622.212C248.591 621.384 247.536 620.27 246.742 618.87C245.961 617.47 245.57 615.924 245.57 614.232C245.57 612.961 245.797 611.771 246.252 610.662C246.707 609.542 247.331 608.562 248.125 607.722C248.93 606.871 249.863 606.206 250.925 605.727C251.986 605.249 253.118 605.01 254.32 605.01C255.685 605.01 256.933 605.302 258.065 605.885C259.208 606.457 260.176 607.244 260.97 608.247C261.763 609.251 262.341 610.394 262.702 611.677C263.064 612.961 263.146 614.302 262.947 615.702H250.155C250.318 616.356 250.586 616.945 250.96 617.47C251.333 617.983 251.806 618.397 252.377 618.712C252.949 619.016 253.596 619.173 254.32 619.185C255.066 619.197 255.743 619.022 256.35 618.66C256.968 618.287 257.481 617.785 257.89 617.155L262.247 618.17C261.536 619.722 260.474 620.993 259.062 621.985C257.651 622.965 256.07 623.455 254.32 623.455ZM250.015 612.5H258.625C258.496 611.8 258.222 611.17 257.802 610.61C257.394 610.038 256.886 609.583 256.28 609.245C255.673 608.907 255.02 608.737 254.32 608.737C253.62 608.737 252.972 608.907 252.377 609.245C251.782 609.572 251.275 610.021 250.855 610.592C250.446 611.152 250.166 611.788 250.015 612.5ZM277.625 609.77H274.23V623H269.96V609.77H267.37V605.5H269.96V600.005H274.23V605.5H277.625V609.77Z" fill="black"/>
<path d="M405.835 401L409.295 376.36H406.155L407.555 373H413.115L409.195 401H405.835ZM423.004 401.52C421.23 401.52 419.67 401.08 418.324 400.2C416.977 399.32 415.964 398.147 415.284 396.68C414.617 395.2 414.41 393.567 414.664 391.78C414.81 390.78 415.05 389.907 415.384 389.16C415.73 388.413 416.197 387.607 416.784 386.74L426.624 373H430.524L423.484 382.82C424.684 382.46 425.844 382.333 426.964 382.44C428.084 382.547 429.11 382.853 430.044 383.36C430.99 383.867 431.797 384.533 432.464 385.36C433.144 386.187 433.637 387.147 433.944 388.24C434.25 389.32 434.31 390.5 434.124 391.78C433.937 393.127 433.504 394.387 432.824 395.56C432.157 396.733 431.31 397.767 430.284 398.66C429.27 399.553 428.137 400.253 426.884 400.76C425.63 401.267 424.337 401.52 423.004 401.52ZM423.464 398.16C424.69 398.16 425.83 397.86 426.884 397.26C427.937 396.66 428.804 395.873 429.484 394.9C430.177 393.927 430.604 392.887 430.764 391.78C430.924 390.62 430.79 389.56 430.364 388.6C429.937 387.64 429.277 386.873 428.384 386.3C427.504 385.713 426.477 385.42 425.304 385.42C424.077 385.42 422.944 385.72 421.904 386.32C420.864 386.92 419.997 387.7 419.304 388.66C418.61 389.62 418.184 390.66 418.024 391.78C417.864 392.993 418.004 394.08 418.444 395.04C418.897 396 419.564 396.76 420.444 397.32C421.337 397.88 422.344 398.16 423.464 398.16ZM437.364 401.52C436.858 401.52 436.451 401.34 436.144 400.98C435.851 400.62 435.738 400.18 435.804 399.66C435.871 399.167 436.104 398.74 436.504 398.38C436.918 398.02 437.384 397.84 437.904 397.84C438.424 397.84 438.838 398.02 439.144 398.38C439.451 398.74 439.564 399.167 439.484 399.66C439.418 400.18 439.178 400.62 438.764 400.98C438.351 401.34 437.884 401.52 437.364 401.52ZM453.62 401.52C451.953 401.52 450.506 401.147 449.28 400.4C448.066 399.64 447.08 398.593 446.32 397.26C445.573 395.927 445.073 394.387 444.82 392.64C444.58 390.88 444.6 389 444.88 387C445.16 385 445.666 383.12 446.4 381.36C447.146 379.6 448.086 378.06 449.22 376.74C450.353 375.407 451.633 374.367 453.06 373.62C454.486 372.86 456.033 372.48 457.7 372.48C459.353 372.48 460.786 372.86 462 373.62C463.226 374.367 464.206 375.407 464.94 376.74C465.686 378.06 466.186 379.6 466.44 381.36C466.693 383.12 466.68 385 466.4 387C466.12 389 465.606 390.88 464.86 392.64C464.113 394.387 463.18 395.927 462.06 397.26C460.953 398.593 459.68 399.64 458.24 400.4C456.813 401.147 455.273 401.52 453.62 401.52ZM454.08 398.16C455.76 398.16 457.233 397.647 458.5 396.62C459.766 395.58 460.8 394.213 461.6 392.52C462.4 390.827 462.94 388.987 463.22 387C463.526 384.907 463.506 383.02 463.16 381.34C462.813 379.647 462.14 378.307 461.14 377.32C460.153 376.333 458.846 375.84 457.22 375.84C455.94 375.84 454.78 376.14 453.74 376.74C452.713 377.34 451.806 378.16 451.02 379.2C450.246 380.24 449.613 381.433 449.12 382.78C448.626 384.113 448.273 385.52 448.06 387C447.78 388.987 447.806 390.833 448.14 392.54C448.473 394.233 449.126 395.593 450.1 396.62C451.086 397.647 452.413 398.16 454.08 398.16ZM476.979 401.52C475.312 401.52 473.866 401.147 472.639 400.4C471.426 399.64 470.439 398.593 469.679 397.26C468.932 395.927 468.432 394.387 468.179 392.64C467.939 390.88 467.959 389 468.239 387C468.519 385 469.026 383.12 469.759 381.36C470.506 379.6 471.446 378.06 472.579 376.74C473.712 375.407 474.992 374.367 476.419 373.62C477.846 372.86 479.392 372.48 481.059 372.48C482.712 372.48 484.146 372.86 485.359 373.62C486.586 374.367 487.566 375.407 488.299 376.74C489.046 378.06 489.546 379.6 489.799 381.36C490.052 383.12 490.039 385 489.759 387C489.479 389 488.966 390.88 488.219 392.64C487.472 394.387 486.539 395.927 485.419 397.26C484.312 398.593 483.039 399.64 481.599 400.4C480.172 401.147 478.632 401.52 476.979 401.52ZM477.439 398.16C479.119 398.16 480.592 397.647 481.859 396.62C483.126 395.58 484.159 394.213 484.959 392.52C485.759 390.827 486.299 388.987 486.579 387C486.886 384.907 486.866 383.02 486.519 381.34C486.172 379.647 485.499 378.307 484.499 377.32C483.512 376.333 482.206 375.84 480.579 375.84C479.299 375.84 478.139 376.14 477.099 376.74C476.072 377.34 475.166 378.16 474.379 379.2C473.606 380.24 472.972 381.433 472.479 382.78C471.986 384.113 471.632 385.52 471.419 387C471.139 388.987 471.166 390.833 471.499 392.54C471.832 394.233 472.486 395.593 473.459 396.62C474.446 397.647 475.772 398.16 477.439 398.16Z" fill="black"/>
<path d="M404.268 600L407.728 575.36H404.588L405.988 572H411.548L407.628 600H404.268ZM421.357 600.52C419.691 600.52 418.224 600.14 416.957 599.38C415.704 598.62 414.764 597.607 414.137 596.34C413.511 595.06 413.304 593.647 413.517 592.1C413.717 590.66 414.284 589.34 415.217 588.14C416.151 586.927 417.277 585.967 418.597 585.26C417.677 584.62 416.971 583.773 416.477 582.72C415.984 581.653 415.824 580.5 415.997 579.26C416.197 577.82 416.751 576.513 417.657 575.34C418.577 574.167 419.717 573.233 421.077 572.54C422.451 571.833 423.904 571.48 425.437 571.48C426.971 571.48 428.317 571.833 429.477 572.54C430.637 573.233 431.511 574.167 432.097 575.34C432.684 576.513 432.877 577.82 432.677 579.26C432.504 580.5 432.017 581.653 431.217 582.72C430.431 583.773 429.484 584.62 428.377 585.26C429.537 585.967 430.411 586.927 430.997 588.14C431.584 589.34 431.777 590.66 431.577 592.1C431.364 593.633 430.757 595.04 429.757 596.32C428.771 597.6 427.537 598.62 426.057 599.38C424.591 600.14 423.024 600.52 421.357 600.52ZM421.817 597.16C422.831 597.16 423.784 596.933 424.677 596.48C425.571 596.027 426.317 595.42 426.917 594.66C427.517 593.887 427.884 593.033 428.017 592.1C428.151 591.153 428.024 590.3 427.637 589.54C427.251 588.78 426.677 588.173 425.917 587.72C425.157 587.267 424.271 587.04 423.257 587.04C422.257 587.04 421.311 587.267 420.417 587.72C419.524 588.173 418.777 588.78 418.177 589.54C417.577 590.3 417.211 591.153 417.077 592.1C416.944 593.033 417.071 593.887 417.457 594.66C417.844 595.42 418.417 596.027 419.177 596.48C419.937 596.933 420.817 597.16 421.817 597.16ZM423.717 583.68C424.597 583.68 425.424 583.48 426.197 583.08C426.984 582.68 427.637 582.147 428.157 581.48C428.691 580.813 429.011 580.073 429.117 579.26C429.237 578.433 429.131 577.693 428.797 577.04C428.464 576.373 427.964 575.84 427.297 575.44C426.631 575.04 425.857 574.84 424.977 574.84C424.084 574.84 423.251 575.04 422.477 575.44C421.704 575.84 421.051 576.373 420.517 577.04C419.997 577.693 419.677 578.433 419.557 579.26C419.451 580.073 419.564 580.813 419.897 581.48C420.231 582.147 420.731 582.68 421.397 583.08C422.064 583.48 422.837 583.68 423.717 583.68ZM435.407 600.52C434.901 600.52 434.494 600.34 434.187 599.98C433.894 599.62 433.781 599.18 433.847 598.66C433.914 598.167 434.147 597.74 434.547 597.38C434.961 597.02 435.427 596.84 435.947 596.84C436.467 596.84 436.881 597.02 437.187 597.38C437.494 597.74 437.607 598.167 437.527 598.66C437.461 599.18 437.221 599.62 436.807 599.98C436.394 600.34 435.927 600.52 435.407 600.52ZM449.603 600.52C447.909 600.52 446.456 600.14 445.243 599.38C444.043 598.607 443.163 597.58 442.603 596.3C442.043 595.007 441.869 593.573 442.083 592H445.443C445.309 592.947 445.409 593.813 445.743 594.6C446.076 595.373 446.609 595.993 447.343 596.46C448.076 596.927 448.989 597.16 450.083 597.16C451.029 597.16 451.943 596.927 452.823 596.46C453.703 595.993 454.449 595.373 455.063 594.6C455.689 593.813 456.069 592.947 456.203 592C456.363 590.813 456.189 589.827 455.683 589.04C455.189 588.24 454.436 587.647 453.423 587.26C452.423 586.86 451.229 586.66 449.843 586.66L450.223 583.96C452.116 583.96 453.689 583.567 454.943 582.78C456.209 581.993 456.943 580.833 457.143 579.3C457.263 578.487 457.149 577.74 456.803 577.06C456.456 576.38 455.956 575.84 455.303 575.44C454.649 575.027 453.916 574.82 453.103 574.82C452.263 574.82 451.436 575.027 450.623 575.44C449.809 575.84 449.116 576.38 448.543 577.06C447.969 577.74 447.623 578.487 447.503 579.3H444.143C444.289 578.22 444.656 577.207 445.243 576.26C445.829 575.313 446.556 574.48 447.423 573.76C448.303 573.04 449.263 572.48 450.303 572.08C451.356 571.667 452.429 571.46 453.523 571.46C454.949 571.46 456.229 571.813 457.363 572.52C458.496 573.227 459.356 574.173 459.943 575.36C460.529 576.547 460.716 577.86 460.503 579.3C460.316 580.593 459.823 581.787 459.023 582.88C458.223 583.973 457.223 584.74 456.023 585.18C456.956 585.513 457.703 586.033 458.263 586.74C458.836 587.433 459.229 588.233 459.443 589.14C459.656 590.047 459.696 591 459.563 592C459.336 593.56 458.729 594.987 457.743 596.28C456.756 597.573 455.543 598.607 454.103 599.38C452.676 600.14 451.176 600.52 449.603 600.52ZM471.545 600.52C469.879 600.52 468.432 600.147 467.205 599.4C465.992 598.64 465.005 597.593 464.245 596.26C463.499 594.927 462.999 593.387 462.745 591.64C462.505 589.88 462.525 588 462.805 586C463.085 584 463.592 582.12 464.325 580.36C465.072 578.6 466.012 577.06 467.145 575.74C468.279 574.407 469.559 573.367 470.985 572.62C472.412 571.86 473.959 571.48 475.625 571.48C477.279 571.48 478.712 571.86 479.925 572.62C481.152 573.367 482.132 574.407 482.865 575.74C483.612 577.06 484.112 578.6 484.365 580.36C484.619 582.12 484.605 584 484.325 586C484.045 588 483.532 589.88 482.785 591.64C482.039 593.387 481.105 594.927 479.985 596.26C478.879 597.593 477.605 598.64 476.165 599.4C474.739 600.147 473.199 600.52 471.545 600.52ZM472.005 597.16C473.685 597.16 475.159 596.647 476.425 595.62C477.692 594.58 478.725 593.213 479.525 591.52C480.325 589.827 480.865 587.987 481.145 586C481.452 583.907 481.432 582.02 481.085 580.34C480.739 578.647 480.065 577.307 479.065 576.32C478.079 575.333 476.772 574.84 475.145 574.84C473.865 574.84 472.705 575.14 471.665 575.74C470.639 576.34 469.732 577.16 468.945 578.2C468.172 579.24 467.539 580.433 467.045 581.78C466.552 583.113 466.199 584.52 465.985 586C465.705 587.987 465.732 589.833 466.065 591.54C466.399 593.233 467.052 594.593 468.025 595.62C469.012 596.647 470.339 597.16 472.005 597.16Z" fill="black"/>
<path d="M132.203 281.835L139.518 246.47H135.888C131.928 267.15 130.443 268.25 126.813 268.25C123.623 268.25 122.743 267.205 118.948 247.9H115.153L121.808 281.835H132.203ZM157.566 263.685C157.566 258.185 155.366 254.28 150.086 254.28C142.001 254.28 139.526 259.34 139.526 267.645C139.526 281.285 140.956 283.76 156.521 283.76V276.61C147.006 276.61 144.806 275.785 144.806 274.41C144.806 273.365 145.411 272.98 149.591 272.98C155.751 272.98 157.566 271 157.566 263.685ZM154.156 266.38C154.156 268.635 153.276 269.68 148.161 269.68C143.101 269.68 142.771 268.305 142.771 266.38C142.771 264.455 143.651 263.08 148.161 263.08C152.726 263.08 154.156 264.18 154.156 266.38ZM175.648 281.56H178.948C178.948 261.1 178.618 257.03 171.853 256.425C166.683 255.985 164.703 256.425 164.703 252.96H161.843V282.55H165.638C165.638 268.36 165.968 265.5 170.808 265.5C174.988 265.5 175.648 268.195 175.648 281.56ZM196.742 284.695H200.757V254.72H196.742C196.742 268.635 196.412 272.595 191.297 272.595C186.842 272.595 186.182 268.8 186.182 255.655H182.662C182.662 276.115 183.047 280.955 190.197 281.615C195.587 282.11 196.742 282.715 196.742 284.695ZM222.824 263.685C222.824 258.185 220.624 254.28 215.344 254.28C207.259 254.28 204.784 259.34 204.784 267.645C204.784 281.285 206.214 283.76 221.779 283.76V276.61C212.264 276.61 210.064 275.785 210.064 274.41C210.064 273.365 210.669 272.98 214.849 272.98C221.009 272.98 222.824 271 222.824 263.685ZM219.414 266.38C219.414 268.635 218.534 269.68 213.419 269.68C208.359 269.68 208.029 268.305 208.029 266.38C208.029 264.455 208.909 263.08 213.419 263.08C217.984 263.08 219.414 264.18 219.414 266.38Z" fill="black"/>
<path d="M381.57 257.525V247.625H360.175V259.01C369.085 259.01 369.195 259.505 369.195 282.77H372.605C372.605 258.075 372.605 257.525 381.57 257.525ZM390.739 249.99C390.739 248.45 390.519 246.745 387.274 246.745C384.029 246.745 383.479 248.23 383.479 249.99C383.479 251.75 384.359 253.07 387.274 253.07C390.134 253.07 390.739 251.53 390.739 249.99ZM384.799 280.845H389.254V256.59H384.799V280.845ZM408.627 285.355H410.827L410.222 244.985H404.997C404.997 256.04 404.062 255.82 400.762 255.82C395.427 255.82 392.732 257.69 392.732 267.425C392.732 279.91 394.987 281.67 402.797 281.67C407.692 281.67 408.627 281.945 408.627 285.355ZM408.077 270.835C408.077 274.355 407.692 276.885 402.247 276.885C396.802 276.885 395.867 274.905 395.867 270.835C395.867 266.765 397.407 264.675 402.247 264.675C407.087 264.675 408.077 267.315 408.077 270.835ZM432.242 264.73V255.325C418.162 255.325 414.807 258.02 414.807 264.73C414.807 270.065 417.117 271.605 422.342 271.605C426.742 271.605 427.897 271.605 427.897 273.42C427.897 274.96 426.302 275.29 415.082 275.29V282.495C429.272 282.495 431.362 280.295 431.362 273.75C431.362 269.24 429.217 268.25 423.332 268.25C419.537 268.25 418.987 267.81 418.987 266.49C418.987 265.225 421.352 264.73 432.242 264.73ZM453.872 269.845C453.872 258.02 451.617 256.37 443.917 256.37C439.022 256.37 438.087 256.095 438.087 252.85H435.942V290.635H440.892C440.892 281.395 441.772 280.845 445.952 280.845C451.177 280.845 453.872 279.085 453.872 269.845ZM450.792 270.34C450.792 274.41 449.252 276.555 444.412 276.555C439.627 276.555 438.637 273.86 438.637 270.34C438.637 266.765 439.022 264.235 444.412 264.235C449.802 264.235 450.792 266.215 450.792 270.34ZM471.432 284.695H475.447V254.72H471.432C471.432 268.635 471.102 272.595 465.987 272.595C461.532 272.595 460.872 268.8 460.872 255.655H457.352C457.352 276.115 457.737 280.955 464.887 281.615C470.277 282.11 471.432 282.715 471.432 284.695ZM494.435 281.56H497.735C497.735 261.1 497.405 257.03 490.64 256.425C485.47 255.985 483.49 256.425 483.49 252.96H480.63V282.55H484.425C484.425 268.36 484.755 265.5 489.595 265.5C493.775 265.5 494.435 268.195 494.435 281.56ZM514.759 282.44H519.984C518.389 271.55 518.224 267.81 513.274 266.82L519.599 255.05H514.319C511.404 261.54 509.919 264.29 508.214 264.29C506.234 264.29 505.849 262.695 505.849 244.93H502.329V281.23H504.914C504.914 275.18 505.409 274.08 508.984 274.08C512.284 274.08 513.879 275.07 514.759 282.44ZM534.389 261.54V258.515C527.459 258.515 526.744 257.91 526.744 248.89H522.894V270.01C522.894 278.425 522.894 282.495 533.289 282.495V274.63C527.679 274.63 526.744 274.245 526.744 267.205C526.744 262.2 527.734 261.54 534.389 261.54Z" fill="black"/>
<path d="M687.351 259.395V247.735H669.806V281.34H673.876C673.876 270.56 674.481 269.735 686.746 269.735V265.775C673.876 265.775 673.161 264.95 673.161 262.365C673.161 260.275 673.876 259.395 687.351 259.395ZM708.239 269.57C708.239 256.425 705.709 254.61 698.449 254.61C691.739 254.61 690.144 259.505 690.144 266.215C690.144 278.37 691.684 281.725 699.934 281.725C704.884 281.725 708.239 279.745 708.239 269.57ZM705.269 270.89C705.269 274.795 703.784 276.83 698.999 276.83C694.269 276.83 693.334 274.245 693.334 270.89C693.334 267.48 693.719 265.005 698.999 265.005C704.334 265.005 705.269 266.985 705.269 270.89ZM722.518 265.72V256.81C718.008 256.81 717.568 256.26 717.568 253.84H712.508V282.33H716.083V276.995C716.083 266.435 716.743 265.72 722.518 265.72ZM742.606 263.685C742.606 258.185 740.406 254.28 735.126 254.28C727.041 254.28 724.566 259.34 724.566 267.645C724.566 281.285 725.996 283.76 741.561 283.76V276.61C732.046 276.61 729.846 275.785 729.846 274.41C729.846 273.365 730.451 272.98 734.631 272.98C740.791 272.98 742.606 271 742.606 263.685ZM739.196 266.38C739.196 268.635 738.316 269.68 733.201 269.68C728.141 269.68 727.811 268.305 727.811 266.38C727.811 264.455 728.691 263.08 733.201 263.08C737.766 263.08 739.196 264.18 739.196 266.38ZM763.163 264.73V255.325C749.083 255.325 745.728 258.02 745.728 264.73C745.728 270.065 748.038 271.605 753.263 271.605C757.663 271.605 758.818 271.605 758.818 273.42C758.818 274.96 757.223 275.29 746.003 275.29V282.495C760.193 282.495 762.283 280.295 762.283 273.75C762.283 269.24 760.138 268.25 754.253 268.25C750.458 268.25 749.908 267.81 749.908 266.49C749.908 265.225 752.273 264.73 763.163 264.73ZM778.084 261.54V258.515C771.154 258.515 770.439 257.91 770.439 248.89H766.589V270.01C766.589 278.425 766.589 282.495 776.984 282.495V274.63C771.374 274.63 770.439 274.245 770.439 267.205C770.439 262.2 771.429 261.54 778.084 261.54ZM786.705 249.99C786.705 248.45 786.485 246.745 783.24 246.745C779.995 246.745 779.445 248.23 779.445 249.99C779.445 251.75 780.325 253.07 783.24 253.07C786.1 253.07 786.705 251.53 786.705 249.99ZM780.765 280.845H785.22V256.59H780.765V280.845ZM797.112 282.275V274.08C793.592 274.08 793.427 273.2 793.427 260.44V245.095H789.852V269.515C789.852 281.065 790.732 282.275 797.112 282.275ZM807.532 282.275V274.08C804.012 274.08 803.847 273.2 803.847 260.44V245.095H800.272V269.515C800.272 281.065 801.152 282.275 807.532 282.275ZM816.192 249.99C816.192 248.45 815.972 246.745 812.727 246.745C809.482 246.745 808.932 248.23 808.932 249.99C808.932 251.75 809.812 253.07 812.727 253.07C815.587 253.07 816.192 251.53 816.192 249.99ZM810.252 280.845H814.707V256.59H810.252V280.845ZM833.144 281.56H836.444C836.444 261.1 836.114 257.03 829.349 256.425C824.179 255.985 822.199 256.425 822.199 252.96H819.339V282.55H823.134C823.134 268.36 823.464 265.5 828.304 265.5C832.484 265.5 833.144 268.195 833.144 281.56ZM857.374 270.945V252.905H853.854C853.854 255.985 851.874 256.26 847.309 256.26C841.754 256.26 839.829 260.99 839.829 267.865C839.829 277.27 842.854 279.03 847.694 279.03C850.939 279.03 851.489 279.36 851.489 280.57C851.489 281.615 850.389 282 841.149 282V288.71C856.109 288.71 857.374 287.335 857.374 270.945ZM854.624 270.67C854.624 273.695 854.294 275.895 849.179 275.895C844.119 275.895 843.184 274.19 843.184 270.67C843.184 267.205 844.614 265.94 849.179 265.94C853.744 265.94 854.624 267.645 854.624 270.67Z" fill="black"/>
<path d="M634.683 387L628.418 362.5H632.828L637.098 379.247L641.368 362.5H645.27L649.54 379.247L653.793 362.5H658.203L651.973 387H647.125L643.31 372.16L639.548 387H634.683ZM679.846 375.94V387H675.576V377.06C675.576 376.372 675.406 375.747 675.068 375.187C674.73 374.616 674.275 374.167 673.703 373.84C673.143 373.502 672.519 373.332 671.831 373.332C671.142 373.332 670.512 373.502 669.941 373.84C669.381 374.167 668.931 374.616 668.593 375.187C668.266 375.747 668.103 376.372 668.103 377.06V387H663.833L663.816 360.75H668.086L668.103 371.057C668.698 370.427 669.41 369.932 670.238 369.57C671.066 369.197 671.959 369.01 672.916 369.01C674.187 369.01 675.348 369.325 676.398 369.955C677.448 370.573 678.282 371.407 678.901 372.457C679.531 373.496 679.846 374.657 679.846 375.94ZM698.635 369.5H702.905V387H698.635L698.443 384.83C697.965 385.612 697.329 386.247 696.535 386.737C695.754 387.216 694.826 387.455 693.753 387.455C692.458 387.455 691.245 387.21 690.113 386.72C688.981 386.23 687.984 385.553 687.12 384.69C686.269 383.827 685.598 382.829 685.108 381.697C684.63 380.566 684.39 379.352 684.39 378.057C684.39 376.809 684.618 375.637 685.073 374.54C685.54 373.443 686.187 372.481 687.015 371.652C687.844 370.824 688.8 370.177 689.885 369.71C690.97 369.243 692.137 369.01 693.385 369.01C694.54 369.01 695.573 369.267 696.483 369.78C697.405 370.293 698.186 370.947 698.828 371.74L698.635 369.5ZM693.648 383.342C694.558 383.342 695.363 383.115 696.063 382.66C696.763 382.205 697.311 381.592 697.708 380.822C698.105 380.041 698.303 379.183 698.303 378.25C698.303 377.305 698.105 376.447 697.708 375.677C697.311 374.896 696.757 374.277 696.045 373.822C695.345 373.367 694.546 373.14 693.648 373.14C692.75 373.14 691.927 373.373 691.18 373.84C690.445 374.295 689.856 374.907 689.413 375.677C688.981 376.447 688.765 377.305 688.765 378.25C688.765 379.195 688.987 380.052 689.43 380.822C689.874 381.592 690.463 382.205 691.198 382.66C691.945 383.115 692.761 383.342 693.648 383.342ZM718.223 373.77H714.828V387H710.558V373.77H707.968V369.5H710.558V364.005H714.828V369.5H718.223V373.77ZM739.647 365.825V369.5H744.425V373.77H739.647V387H735.377V373.77H733.47V369.5H735.377V365.825C735.377 364.822 735.622 363.906 736.112 363.077C736.614 362.237 737.285 361.572 738.125 361.082C738.965 360.581 739.892 360.33 740.907 360.33C741.642 360.33 742.371 360.482 743.095 360.785C743.818 361.088 744.46 361.555 745.02 362.185L741.94 365.195C741.835 364.997 741.683 364.851 741.485 364.757C741.298 364.652 741.106 364.6 740.907 364.6C740.569 364.6 740.271 364.722 740.015 364.967C739.77 365.201 739.647 365.487 739.647 365.825ZM749.62 369.5H753.89V387H749.62V369.5ZM751.79 367.242C751.16 367.242 750.629 367.038 750.198 366.63C749.766 366.21 749.55 365.685 749.55 365.055C749.55 364.437 749.766 363.917 750.198 363.497C750.629 363.077 751.154 362.867 751.773 362.867C752.391 362.867 752.91 363.077 753.33 363.497C753.762 363.917 753.978 364.437 753.978 365.055C753.978 365.685 753.768 366.21 753.348 366.63C752.928 367.038 752.409 367.242 751.79 367.242ZM760.428 387L760.41 369.5H764.68L764.698 371.057C765.293 370.427 766.004 369.932 766.833 369.57C767.661 369.197 768.553 369.01 769.51 369.01C770.152 369.01 770.793 369.103 771.435 369.29L769.755 373.595C769.312 373.42 768.868 373.332 768.425 373.332C767.737 373.332 767.107 373.502 766.535 373.84C765.975 374.167 765.526 374.616 765.188 375.187C764.861 375.747 764.698 376.372 764.698 377.06V387H760.428ZM782.728 387.455C781.118 387.455 779.648 387.041 778.318 386.212C777 385.384 775.944 384.27 775.151 382.87C774.369 381.47 773.978 379.924 773.978 378.232C773.978 376.961 774.206 375.771 774.661 374.662C775.116 373.542 775.74 372.562 776.533 371.722C777.338 370.871 778.271 370.206 779.333 369.727C780.395 369.249 781.526 369.01 782.728 369.01C784.093 369.01 785.341 369.302 786.473 369.885C787.616 370.457 788.585 371.244 789.378 372.247C790.171 373.251 790.749 374.394 791.111 375.677C791.472 376.961 791.554 378.302 791.356 379.702H778.563C778.726 380.356 778.995 380.945 779.368 381.47C779.741 381.983 780.214 382.397 780.786 382.712C781.357 383.016 782.005 383.173 782.728 383.185C783.475 383.197 784.151 383.022 784.758 382.66C785.376 382.287 785.89 381.785 786.298 381.155L790.656 382.17C789.944 383.722 788.882 384.993 787.471 385.985C786.059 386.965 784.478 387.455 782.728 387.455ZM778.423 376.5H787.033C786.905 375.8 786.631 375.17 786.211 374.61C785.802 374.038 785.295 373.583 784.688 373.245C784.081 372.907 783.428 372.737 782.728 372.737C782.028 372.737 781.381 372.907 780.786 373.245C780.191 373.572 779.683 374.021 779.263 374.592C778.855 375.152 778.575 375.788 778.423 376.5ZM801.952 387.315C801.042 387.257 800.161 387.076 799.31 386.772C798.47 386.457 797.723 386.032 797.07 385.495C796.416 384.958 795.915 384.317 795.565 383.57L799.17 382.03C799.31 382.263 799.537 382.514 799.852 382.782C800.167 383.039 800.54 383.255 800.972 383.43C801.415 383.605 801.9 383.692 802.425 383.692C802.868 383.692 803.288 383.634 803.685 383.517C804.093 383.389 804.42 383.197 804.665 382.94C804.921 382.683 805.05 382.351 805.05 381.942C805.05 381.511 804.898 381.178 804.595 380.945C804.303 380.7 803.93 380.519 803.475 380.402C803.031 380.274 802.6 380.157 802.18 380.052C801.071 379.831 800.039 379.487 799.082 379.02C798.137 378.553 797.373 377.952 796.79 377.217C796.218 376.471 795.932 375.572 795.932 374.522C795.932 373.367 796.235 372.37 796.842 371.53C797.46 370.69 798.26 370.042 799.24 369.587C800.231 369.132 801.299 368.905 802.442 368.905C803.83 368.905 805.102 369.197 806.257 369.78C807.424 370.352 808.345 371.162 809.022 372.212L805.645 374.207C805.481 373.927 805.254 373.671 804.962 373.437C804.67 373.192 804.338 372.994 803.965 372.842C803.591 372.679 803.2 372.586 802.792 372.562C802.267 372.539 801.789 372.586 801.357 372.702C800.925 372.819 800.575 373.017 800.307 373.297C800.05 373.577 799.922 373.951 799.922 374.417C799.922 374.861 800.097 375.193 800.447 375.415C800.797 375.625 801.217 375.788 801.707 375.905C802.209 376.022 802.687 376.15 803.142 376.29C804.169 376.628 805.131 377.042 806.03 377.532C806.94 378.022 807.669 378.623 808.217 379.335C808.765 380.047 809.028 380.898 809.005 381.89C809.005 383.022 808.666 384.013 807.99 384.865C807.313 385.705 806.438 386.347 805.365 386.79C804.303 387.233 803.165 387.408 801.952 387.315ZM834.688 373.77H831.293V387H827.023V373.77H824.433V369.5H827.023V364.005H831.293V369.5H834.688V373.77ZM847.592 387.455C845.982 387.455 844.512 387.041 843.182 386.212C841.863 385.384 840.807 384.276 840.014 382.887C839.232 381.487 838.842 379.942 838.842 378.25C838.842 376.967 839.069 375.771 839.524 374.662C839.979 373.542 840.603 372.562 841.397 371.722C842.202 370.871 843.135 370.206 844.197 369.727C845.258 369.249 846.39 369.01 847.592 369.01C849.202 369.01 850.666 369.424 851.984 370.252C853.314 371.081 854.37 372.195 855.152 373.595C855.945 374.995 856.342 376.547 856.342 378.25C856.342 379.522 856.114 380.712 855.659 381.82C855.204 382.928 854.574 383.908 853.769 384.76C852.976 385.6 852.048 386.259 850.987 386.737C849.937 387.216 848.805 387.455 847.592 387.455ZM847.592 383.185C848.443 383.185 849.207 382.957 849.884 382.503C850.561 382.047 851.092 381.447 851.477 380.7C851.873 379.953 852.072 379.137 852.072 378.25C852.072 377.34 851.867 376.512 851.459 375.765C851.062 375.007 850.52 374.406 849.832 373.962C849.155 373.507 848.408 373.28 847.592 373.28C846.752 373.28 845.993 373.507 845.317 373.962C844.64 374.417 844.103 375.024 843.707 375.782C843.31 376.541 843.112 377.363 843.112 378.25C843.112 379.172 843.316 380.006 843.724 380.752C844.132 381.499 844.675 382.094 845.352 382.537C846.04 382.969 846.787 383.185 847.592 383.185ZM874.57 369.5H878.84V387.333C878.84 388.593 878.583 389.736 878.07 390.763C877.556 391.801 876.856 392.688 875.97 393.423C875.083 394.169 874.068 394.741 872.925 395.138C871.781 395.546 870.58 395.75 869.32 395.75C868.095 395.75 866.916 395.499 865.785 394.998C864.653 394.496 863.65 393.808 862.775 392.933C861.911 392.069 861.252 391.083 860.797 389.975L864.7 388.208C864.933 388.849 865.283 389.409 865.75 389.888C866.228 390.378 866.776 390.757 867.395 391.025C868.013 391.305 868.655 391.445 869.32 391.445C869.996 391.445 870.644 391.352 871.262 391.165C871.892 390.978 872.458 390.704 872.96 390.343C873.461 389.993 873.852 389.561 874.132 389.048C874.424 388.546 874.57 387.974 874.57 387.333V384.865C874.021 385.635 873.333 386.259 872.505 386.737C871.676 387.216 870.72 387.455 869.635 387.455C868.375 387.455 867.196 387.216 866.1 386.737C865.003 386.259 864.035 385.6 863.195 384.76C862.366 383.908 861.713 382.928 861.235 381.82C860.768 380.712 860.535 379.522 860.535 378.25C860.535 376.978 860.768 375.788 861.235 374.68C861.713 373.572 862.366 372.597 863.195 371.757C864.035 370.906 865.003 370.241 866.1 369.762C867.196 369.284 868.375 369.045 869.635 369.045C870.72 369.045 871.676 369.284 872.505 369.762C873.333 370.229 874.021 370.847 874.57 371.617V369.5ZM869.687 383.342C870.586 383.342 871.379 383.115 872.067 382.66C872.767 382.193 873.316 381.575 873.712 380.805C874.109 380.023 874.307 379.172 874.307 378.25C874.307 377.317 874.103 376.465 873.695 375.695C873.298 374.925 872.75 374.307 872.05 373.84C871.361 373.373 870.574 373.14 869.687 373.14C868.812 373.14 868.013 373.373 867.29 373.84C866.566 374.295 865.989 374.907 865.557 375.677C865.126 376.447 864.91 377.305 864.91 378.25C864.91 379.195 865.126 380.052 865.557 380.822C865.989 381.592 866.566 382.205 867.29 382.66C868.013 383.115 868.812 383.342 869.687 383.342ZM892.789 387.455C891.179 387.455 889.709 387.041 888.379 386.212C887.061 385.384 886.005 384.27 885.212 382.87C884.43 381.47 884.039 379.924 884.039 378.232C884.039 376.961 884.267 375.771 884.722 374.662C885.177 373.542 885.801 372.562 886.594 371.722C887.399 370.871 888.333 370.206 889.394 369.727C890.456 369.249 891.588 369.01 892.789 369.01C894.154 369.01 895.403 369.302 896.534 369.885C897.678 370.457 898.646 371.244 899.439 372.247C900.233 373.251 900.81 374.394 901.172 375.677C901.534 376.961 901.615 378.302 901.417 379.702H888.624C888.788 380.356 889.056 380.945 889.429 381.47C889.803 381.983 890.275 382.397 890.847 382.712C891.419 383.016 892.066 383.173 892.789 383.185C893.536 383.197 894.213 383.022 894.819 382.66C895.438 382.287 895.951 381.785 896.359 381.155L900.717 382.17C900.005 383.722 898.944 384.993 897.532 385.985C896.12 386.965 894.539 387.455 892.789 387.455ZM888.484 376.5H897.094C896.966 375.8 896.692 375.17 896.272 374.61C895.864 374.038 895.356 373.583 894.749 373.245C894.143 372.907 893.489 372.737 892.789 372.737C892.089 372.737 891.442 372.907 890.847 373.245C890.252 373.572 889.744 374.021 889.324 374.592C888.916 375.152 888.636 375.788 888.484 376.5ZM916.094 373.77H912.699V387H908.429V373.77H905.839V369.5H908.429V364.005H912.699V369.5H916.094V373.77ZM937.738 375.94V387H933.468V377.06C933.468 376.372 933.299 375.747 932.961 375.187C932.622 374.616 932.167 374.167 931.596 373.84C931.036 373.502 930.412 373.332 929.723 373.332C929.035 373.332 928.405 373.502 927.833 373.84C927.273 374.167 926.824 374.616 926.486 375.187C926.159 375.747 925.996 376.372 925.996 377.06V387H921.726L921.708 360.75H925.978L925.996 371.057C926.591 370.427 927.302 369.932 928.131 369.57C928.959 369.197 929.852 369.01 930.808 369.01C932.08 369.01 933.241 369.325 934.291 369.955C935.341 370.573 936.175 371.407 936.793 372.457C937.423 373.496 937.738 374.657 937.738 375.94ZM951.033 387.455C949.423 387.455 947.953 387.041 946.623 386.212C945.305 385.384 944.249 384.27 943.456 382.87C942.674 381.47 942.283 379.924 942.283 378.232C942.283 376.961 942.511 375.771 942.966 374.662C943.421 373.542 944.045 372.562 944.838 371.722C945.643 370.871 946.576 370.206 947.638 369.727C948.7 369.249 949.831 369.01 951.033 369.01C952.398 369.01 953.646 369.302 954.778 369.885C955.921 370.457 956.89 371.244 957.683 372.247C958.476 373.251 959.054 374.394 959.416 375.677C959.777 376.961 959.859 378.302 959.661 379.702H946.868C947.031 380.356 947.3 380.945 947.673 381.47C948.046 381.983 948.519 382.397 949.091 382.712C949.662 383.016 950.31 383.173 951.033 383.185C951.78 383.197 952.456 383.022 953.063 382.66C953.681 382.287 954.195 381.785 954.603 381.155L958.961 382.17C958.249 383.722 957.187 384.993 955.776 385.985C954.364 386.965 952.783 387.455 951.033 387.455ZM946.728 376.5H955.338C955.21 375.8 954.936 375.17 954.516 374.61C954.107 374.038 953.6 373.583 952.993 373.245C952.386 372.907 951.733 372.737 951.033 372.737C950.333 372.737 949.686 372.907 949.091 373.245C948.496 373.572 947.988 374.021 947.568 374.592C947.16 375.152 946.88 375.788 946.728 376.5ZM964.975 387L964.958 369.5H969.228L969.245 371.057C969.84 370.427 970.552 369.932 971.38 369.57C972.209 369.197 973.101 369.01 974.058 369.01C974.699 369.01 975.341 369.103 975.983 369.29L974.303 373.595C973.859 373.42 973.416 373.332 972.973 373.332C972.284 373.332 971.654 373.502 971.083 373.84C970.523 374.167 970.074 374.616 969.735 375.187C969.409 375.747 969.245 376.372 969.245 377.06V387H964.975ZM638.13 429H633.895L628.05 411.5H632.233L636.03 422.822L639.81 411.5H644.028L647.808 422.822L651.605 411.5H655.788L649.943 429H645.708L641.91 417.625L638.13 429ZM660.842 411.5H665.112V429H660.842V411.5ZM663.012 409.242C662.382 409.242 661.851 409.038 661.419 408.63C660.988 408.21 660.772 407.685 660.772 407.055C660.772 406.437 660.988 405.917 661.419 405.497C661.851 405.077 662.376 404.867 662.994 404.867C663.613 404.867 664.132 405.077 664.552 405.497C664.984 405.917 665.199 406.437 665.199 407.055C665.199 407.685 664.989 408.21 664.569 408.63C664.149 409.038 663.63 409.242 663.012 409.242ZM671.649 429L671.632 411.5H675.902L675.919 413.057C676.514 412.427 677.226 411.932 678.054 411.57C678.883 411.197 679.775 411.01 680.732 411.01C681.374 411.01 682.015 411.103 682.657 411.29L680.977 415.595C680.534 415.42 680.09 415.332 679.647 415.332C678.959 415.332 678.329 415.502 677.757 415.84C677.197 416.167 676.748 416.616 676.409 417.187C676.083 417.747 675.919 418.372 675.919 419.06V429H671.649ZM693.95 429.455C692.34 429.455 690.87 429.041 689.54 428.212C688.221 427.384 687.166 426.27 686.372 424.87C685.591 423.47 685.2 421.924 685.2 420.232C685.2 418.961 685.427 417.771 685.882 416.662C686.337 415.542 686.961 414.562 687.755 413.722C688.56 412.871 689.493 412.206 690.555 411.727C691.616 411.249 692.748 411.01 693.95 411.01C695.315 411.01 696.563 411.302 697.695 411.885C698.838 412.457 699.806 413.244 700.6 414.247C701.393 415.251 701.971 416.394 702.332 417.677C702.694 418.961 702.776 420.302 702.577 421.702H689.785C689.948 422.356 690.216 422.945 690.59 423.47C690.963 423.983 691.436 424.397 692.007 424.712C692.579 425.016 693.226 425.173 693.95 425.185C694.696 425.197 695.373 425.022 695.98 424.66C696.598 424.287 697.111 423.785 697.52 423.155L701.877 424.17C701.166 425.722 700.104 426.993 698.692 427.985C697.281 428.965 695.7 429.455 693.95 429.455ZM689.645 418.5H698.255C698.126 417.8 697.852 417.17 697.432 416.61C697.024 416.038 696.516 415.583 695.91 415.245C695.303 414.907 694.65 414.737 693.95 414.737C693.25 414.737 692.602 414.907 692.007 415.245C691.412 415.572 690.905 416.021 690.485 416.592C690.076 417.152 689.796 417.788 689.645 418.5ZM713.174 429.315C712.264 429.257 711.383 429.076 710.531 428.772C709.691 428.457 708.945 428.032 708.291 427.495C707.638 426.958 707.136 426.317 706.786 425.57L710.391 424.03C710.531 424.263 710.759 424.514 711.074 424.782C711.389 425.039 711.762 425.255 712.194 425.43C712.637 425.605 713.121 425.692 713.646 425.692C714.09 425.692 714.51 425.634 714.906 425.517C715.315 425.389 715.641 425.197 715.886 424.94C716.143 424.683 716.271 424.351 716.271 423.942C716.271 423.511 716.12 423.178 715.816 422.945C715.525 422.7 715.151 422.519 714.696 422.402C714.253 422.274 713.821 422.157 713.401 422.052C712.293 421.831 711.26 421.487 710.304 421.02C709.359 420.553 708.595 419.952 708.011 419.217C707.44 418.471 707.154 417.572 707.154 416.522C707.154 415.367 707.457 414.37 708.064 413.53C708.682 412.69 709.481 412.042 710.461 411.587C711.453 411.132 712.52 410.905 713.664 410.905C715.052 410.905 716.324 411.197 717.479 411.78C718.645 412.352 719.567 413.162 720.244 414.212L716.866 416.207C716.703 415.927 716.475 415.671 716.184 415.437C715.892 415.192 715.56 414.994 715.186 414.842C714.813 414.679 714.422 414.586 714.014 414.562C713.489 414.539 713.01 414.586 712.579 414.702C712.147 414.819 711.797 415.017 711.529 415.297C711.272 415.577 711.144 415.951 711.144 416.417C711.144 416.861 711.319 417.193 711.669 417.415C712.019 417.625 712.439 417.788 712.929 417.905C713.43 418.022 713.909 418.15 714.364 418.29C715.39 418.628 716.353 419.042 717.251 419.532C718.161 420.022 718.89 420.623 719.439 421.335C719.987 422.047 720.25 422.898 720.226 423.89C720.226 425.022 719.888 426.013 719.211 426.865C718.535 427.705 717.66 428.347 716.586 428.79C715.525 429.233 714.387 429.408 713.174 429.315ZM745.909 415.77H742.514V429H738.244V415.77H735.654V411.5H738.244V406.005H742.514V411.5H745.909V415.77ZM758.813 429.455C757.203 429.455 755.733 429.041 754.403 428.212C753.085 427.384 752.029 426.276 751.236 424.887C750.454 423.487 750.063 421.942 750.063 420.25C750.063 418.967 750.291 417.771 750.746 416.662C751.201 415.542 751.825 414.562 752.618 413.722C753.423 412.871 754.357 412.206 755.418 411.727C756.48 411.249 757.612 411.01 758.813 411.01C760.423 411.01 761.887 411.424 763.206 412.252C764.536 413.081 765.592 414.195 766.373 415.595C767.167 416.995 767.563 418.547 767.563 420.25C767.563 421.522 767.336 422.712 766.881 423.82C766.426 424.928 765.796 425.908 764.991 426.76C764.197 427.6 763.27 428.259 762.208 428.737C761.158 429.216 760.027 429.455 758.813 429.455ZM758.813 425.185C759.665 425.185 760.429 424.957 761.106 424.503C761.782 424.047 762.313 423.447 762.698 422.7C763.095 421.953 763.293 421.137 763.293 420.25C763.293 419.34 763.089 418.512 762.681 417.765C762.284 417.007 761.742 416.406 761.053 415.962C760.377 415.507 759.63 415.28 758.813 415.28C757.973 415.28 757.215 415.507 756.538 415.962C755.862 416.417 755.325 417.024 754.928 417.782C754.532 418.541 754.333 419.363 754.333 420.25C754.333 421.172 754.537 422.006 754.946 422.752C755.354 423.499 755.897 424.094 756.573 424.537C757.262 424.969 758.008 425.185 758.813 425.185ZM785.791 411.5H790.061V429.333C790.061 430.593 789.805 431.736 789.291 432.763C788.778 433.801 788.078 434.688 787.191 435.423C786.305 436.169 785.29 436.741 784.146 437.138C783.003 437.546 781.801 437.75 780.541 437.75C779.316 437.75 778.138 437.499 777.006 436.998C775.875 436.496 774.871 435.808 773.996 434.933C773.133 434.069 772.474 433.083 772.019 431.975L775.921 430.208C776.155 430.849 776.505 431.409 776.971 431.888C777.45 432.378 777.998 432.757 778.616 433.025C779.235 433.305 779.876 433.445 780.541 433.445C781.218 433.445 781.866 433.352 782.484 433.165C783.114 432.978 783.68 432.704 784.181 432.343C784.683 431.993 785.074 431.561 785.354 431.048C785.646 430.546 785.791 429.974 785.791 429.333V426.865C785.243 427.635 784.555 428.259 783.726 428.737C782.898 429.216 781.941 429.455 780.856 429.455C779.596 429.455 778.418 429.216 777.321 428.737C776.225 428.259 775.256 427.6 774.416 426.76C773.588 425.908 772.935 424.928 772.456 423.82C771.99 422.712 771.756 421.522 771.756 420.25C771.756 418.978 771.99 417.788 772.456 416.68C772.935 415.572 773.588 414.597 774.416 413.757C775.256 412.906 776.225 412.241 777.321 411.762C778.418 411.284 779.596 411.045 780.856 411.045C781.941 411.045 782.898 411.284 783.726 411.762C784.555 412.229 785.243 412.847 785.791 413.617V411.5ZM780.909 425.342C781.807 425.342 782.601 425.115 783.289 424.66C783.989 424.193 784.537 423.575 784.934 422.805C785.331 422.023 785.529 421.172 785.529 420.25C785.529 419.317 785.325 418.465 784.916 417.695C784.52 416.925 783.971 416.307 783.271 415.84C782.583 415.373 781.796 415.14 780.909 415.14C780.034 415.14 779.235 415.373 778.511 415.84C777.788 416.295 777.211 416.907 776.779 417.677C776.347 418.447 776.131 419.305 776.131 420.25C776.131 421.195 776.347 422.052 776.779 422.822C777.211 423.592 777.788 424.205 778.511 424.66C779.235 425.115 780.034 425.342 780.909 425.342ZM804.011 429.455C802.401 429.455 800.931 429.041 799.601 428.212C798.283 427.384 797.227 426.27 796.434 424.87C795.652 423.47 795.261 421.924 795.261 420.232C795.261 418.961 795.489 417.771 795.944 416.662C796.399 415.542 797.023 414.562 797.816 413.722C798.621 412.871 799.554 412.206 800.616 411.727C801.678 411.249 802.809 411.01 804.011 411.01C805.376 411.01 806.624 411.302 807.756 411.885C808.899 412.457 809.868 413.244 810.661 414.247C811.454 415.251 812.032 416.394 812.394 417.677C812.755 418.961 812.837 420.302 812.639 421.702H799.846C800.009 422.356 800.278 422.945 800.651 423.47C801.024 423.983 801.497 424.397 802.069 424.712C802.64 425.016 803.288 425.173 804.011 425.185C804.758 425.197 805.434 425.022 806.041 424.66C806.659 424.287 807.173 423.785 807.581 423.155L811.939 424.17C811.227 425.722 810.165 426.993 808.754 427.985C807.342 428.965 805.761 429.455 804.011 429.455ZM799.706 418.5H808.316C808.188 417.8 807.914 417.17 807.494 416.61C807.085 416.038 806.578 415.583 805.971 415.245C805.364 414.907 804.711 414.737 804.011 414.737C803.311 414.737 802.664 414.907 802.069 415.245C801.474 415.572 800.966 416.021 800.546 416.592C800.138 417.152 799.858 417.788 799.706 418.5ZM827.316 415.77H823.921V429H819.651V415.77H817.061V411.5H819.651V406.005H823.921V411.5H827.316V415.77ZM848.96 417.94V429H844.69V419.06C844.69 418.372 844.521 417.747 844.182 417.187C843.844 416.616 843.389 416.167 842.817 415.84C842.257 415.502 841.633 415.332 840.945 415.332C840.257 415.332 839.627 415.502 839.055 415.84C838.495 416.167 838.046 416.616 837.707 417.187C837.381 417.747 837.217 418.372 837.217 419.06V429H832.947L832.93 402.75H837.2L837.217 413.057C837.812 412.427 838.524 411.932 839.352 411.57C840.181 411.197 841.073 411.01 842.03 411.01C843.302 411.01 844.462 411.325 845.512 411.955C846.562 412.573 847.397 413.407 848.015 414.457C848.645 415.496 848.96 416.657 848.96 417.94ZM862.255 429.455C860.645 429.455 859.175 429.041 857.845 428.212C856.526 427.384 855.471 426.27 854.677 424.87C853.896 423.47 853.505 421.924 853.505 420.232C853.505 418.961 853.732 417.771 854.187 416.662C854.642 415.542 855.266 414.562 856.06 413.722C856.865 412.871 857.798 412.206 858.86 411.727C859.921 411.249 861.053 411.01 862.255 411.01C863.62 411.01 864.868 411.302 866 411.885C867.143 412.457 868.111 413.244 868.905 414.247C869.698 415.251 870.276 416.394 870.637 417.677C870.999 418.961 871.081 420.302 870.882 421.702H858.09C858.253 422.356 858.521 422.945 858.895 423.47C859.268 423.983 859.741 424.397 860.312 424.712C860.884 425.016 861.531 425.173 862.255 425.185C863.001 425.197 863.678 425.022 864.285 424.66C864.903 424.287 865.416 423.785 865.825 423.155L870.182 424.17C869.471 425.722 868.409 426.993 866.997 427.985C865.586 428.965 864.005 429.455 862.255 429.455ZM857.95 418.5H866.56C866.431 417.8 866.157 417.17 865.737 416.61C865.329 416.038 864.821 415.583 864.215 415.245C863.608 414.907 862.955 414.737 862.255 414.737C861.555 414.737 860.907 414.907 860.312 415.245C859.717 415.572 859.21 416.021 858.79 416.592C858.381 417.152 858.101 417.788 857.95 418.5ZM876.197 429L876.179 411.5H880.449L880.467 413.057C881.062 412.427 881.774 411.932 882.602 411.57C883.43 411.197 884.323 411.01 885.279 411.01C885.921 411.01 886.563 411.103 887.204 411.29L885.524 415.595C885.081 415.42 884.638 415.332 884.194 415.332C883.506 415.332 882.876 415.502 882.304 415.84C881.744 416.167 881.295 416.616 880.957 417.187C880.63 417.747 880.467 418.372 880.467 419.06V429H876.197Z" fill="black"/>
<path d="M637.308 598L628.418 573.5H632.95L640.038 593.012L647.143 573.5H651.658L642.768 598H637.308ZM656.159 580.5H660.429V598H656.159V580.5ZM658.329 578.242C657.699 578.242 657.169 578.038 656.737 577.63C656.305 577.21 656.089 576.685 656.089 576.055C656.089 575.437 656.305 574.917 656.737 574.497C657.169 574.077 657.694 573.867 658.312 573.867C658.93 573.867 659.449 574.077 659.869 574.497C660.301 574.917 660.517 575.437 660.517 576.055C660.517 576.685 660.307 577.21 659.887 577.63C659.467 578.038 658.948 578.242 658.329 578.242ZM667.154 598V571.75H671.424V598H667.154ZM691.037 571.75H695.307V598H691.037V595.812C690.477 596.594 689.772 597.23 688.92 597.72C688.068 598.21 687.082 598.455 685.962 598.455C684.691 598.455 683.501 598.216 682.392 597.737C681.284 597.259 680.304 596.6 679.452 595.76C678.612 594.908 677.953 593.928 677.475 592.82C676.997 591.712 676.757 590.522 676.757 589.25C676.757 587.978 676.997 586.788 677.475 585.68C677.953 584.572 678.612 583.597 679.452 582.757C680.304 581.906 681.284 581.241 682.392 580.762C683.501 580.284 684.691 580.045 685.962 580.045C687.082 580.045 688.068 580.29 688.92 580.78C689.772 581.258 690.477 581.894 691.037 582.687V571.75ZM686.015 594.342C686.925 594.342 687.73 594.115 688.43 593.66C689.13 593.205 689.678 592.592 690.075 591.822C690.472 591.041 690.67 590.183 690.67 589.25C690.67 588.305 690.472 587.447 690.075 586.677C689.678 585.896 689.124 585.277 688.412 584.822C687.712 584.367 686.913 584.14 686.015 584.14C685.117 584.14 684.294 584.373 683.547 584.84C682.812 585.295 682.223 585.907 681.78 586.677C681.348 587.447 681.132 588.305 681.132 589.25C681.132 590.195 681.354 591.052 681.797 591.822C682.241 592.592 682.83 593.205 683.565 593.66C684.312 594.115 685.128 594.342 686.015 594.342ZM712.82 598V580.5H717.09V582.057C717.685 581.427 718.396 580.932 719.225 580.57C720.053 580.197 720.946 580.01 721.902 580.01C723.116 580.01 724.23 580.296 725.245 580.867C726.271 581.439 727.088 582.203 727.695 583.16C728.313 582.203 729.13 581.439 730.145 580.867C731.16 580.296 732.274 580.01 733.487 580.01C734.771 580.01 735.931 580.325 736.97 580.955C738.02 581.573 738.854 582.407 739.472 583.457C740.102 584.496 740.417 585.657 740.417 586.94V598H736.147V588.077C736.147 587.401 735.978 586.782 735.64 586.222C735.313 585.651 734.87 585.196 734.31 584.857C733.761 584.507 733.143 584.332 732.455 584.332C731.766 584.332 731.142 584.502 730.582 584.84C730.034 585.167 729.591 585.61 729.252 586.17C728.914 586.73 728.745 587.366 728.745 588.077V598H724.475V588.077C724.475 587.366 724.311 586.73 723.985 586.17C723.658 585.61 723.215 585.167 722.655 584.84C722.095 584.502 721.471 584.332 720.782 584.332C720.106 584.332 719.487 584.507 718.927 584.857C718.367 585.196 717.918 585.651 717.58 586.222C717.253 586.782 717.09 587.401 717.09 588.077V598H712.82ZM753.731 598.455C752.121 598.455 750.651 598.041 749.321 597.212C748.003 596.384 746.947 595.27 746.154 593.87C745.372 592.47 744.981 590.924 744.981 589.232C744.981 587.961 745.209 586.771 745.664 585.662C746.119 584.542 746.743 583.562 747.536 582.722C748.341 581.871 749.275 581.206 750.336 580.727C751.398 580.249 752.53 580.01 753.731 580.01C755.096 580.01 756.345 580.302 757.476 580.885C758.62 581.457 759.588 582.244 760.381 583.247C761.175 584.251 761.752 585.394 762.114 586.677C762.476 587.961 762.557 589.302 762.359 590.702H749.566C749.73 591.356 749.998 591.945 750.371 592.47C750.745 592.983 751.217 593.397 751.789 593.712C752.361 594.016 753.008 594.173 753.731 594.185C754.478 594.197 755.155 594.022 755.761 593.66C756.38 593.287 756.893 592.785 757.301 592.155L761.659 593.17C760.947 594.722 759.886 595.993 758.474 596.985C757.062 597.965 755.481 598.455 753.731 598.455ZM749.426 587.5H758.036C757.908 586.8 757.634 586.17 757.214 585.61C756.806 585.038 756.298 584.583 755.691 584.245C755.085 583.907 754.431 583.737 753.731 583.737C753.031 583.737 752.384 583.907 751.789 584.245C751.194 584.572 750.686 585.021 750.266 585.592C749.858 586.152 749.578 586.788 749.426 587.5ZM780.955 571.75H785.225V598H780.955V595.812C780.395 596.594 779.689 597.23 778.837 597.72C777.985 598.21 777 598.455 775.88 598.455C774.608 598.455 773.418 598.216 772.31 597.737C771.201 597.259 770.221 596.6 769.37 595.76C768.53 594.908 767.87 593.928 767.392 592.82C766.914 591.712 766.675 590.522 766.675 589.25C766.675 587.978 766.914 586.788 767.392 585.68C767.87 584.572 768.53 583.597 769.37 582.757C770.221 581.906 771.201 581.241 772.31 580.762C773.418 580.284 774.608 580.045 775.88 580.045C777 580.045 777.985 580.29 778.837 580.78C779.689 581.258 780.395 581.894 780.955 582.687V571.75ZM775.932 594.342C776.842 594.342 777.647 594.115 778.347 593.66C779.047 593.205 779.595 592.592 779.992 591.822C780.389 591.041 780.587 590.183 780.587 589.25C780.587 588.305 780.389 587.447 779.992 586.677C779.595 585.896 779.041 585.277 778.33 584.822C777.63 584.367 776.83 584.14 775.932 584.14C775.034 584.14 774.211 584.373 773.465 584.84C772.73 585.295 772.14 585.907 771.697 586.677C771.265 587.447 771.05 588.305 771.05 589.25C771.05 590.195 771.271 591.052 771.715 591.822C772.158 592.592 772.747 593.205 773.482 593.66C774.229 594.115 775.045 594.342 775.932 594.342ZM802.737 598V580.5H807.007V582.057C807.602 581.427 808.314 580.932 809.142 580.57C809.97 580.197 810.863 580.01 811.819 580.01C813.033 580.01 814.147 580.296 815.162 580.867C816.189 581.439 817.005 582.203 817.612 583.16C818.23 582.203 819.047 581.439 820.062 580.867C821.077 580.296 822.191 580.01 823.404 580.01C824.688 580.01 825.849 580.325 826.887 580.955C827.937 581.573 828.771 582.407 829.389 583.457C830.019 584.496 830.334 585.657 830.334 586.94V598H826.064V588.077C826.064 587.401 825.895 586.782 825.557 586.222C825.23 585.651 824.787 585.196 824.227 584.857C823.679 584.507 823.06 584.332 822.372 584.332C821.684 584.332 821.059 584.502 820.499 584.84C819.951 585.167 819.508 585.61 819.169 586.17C818.831 586.73 818.662 587.366 818.662 588.077V598H814.392V588.077C814.392 587.366 814.229 586.73 813.902 586.17C813.575 585.61 813.132 585.167 812.572 584.84C812.012 584.502 811.388 584.332 810.699 584.332C810.023 584.332 809.404 584.507 808.844 584.857C808.284 585.196 807.835 585.651 807.497 586.222C807.17 586.782 807.007 587.401 807.007 588.077V598H802.737ZM836.29 580.5H840.56V598H836.29V580.5ZM838.46 578.242C837.83 578.242 837.3 578.038 836.868 577.63C836.436 577.21 836.22 576.685 836.22 576.055C836.22 575.437 836.436 574.917 836.868 574.497C837.3 574.077 837.825 573.867 838.443 573.867C839.061 573.867 839.58 574.077 840 574.497C840.432 574.917 840.648 575.437 840.648 576.055C840.648 576.685 840.438 577.21 840.018 577.63C839.598 578.038 839.079 578.242 838.46 578.242ZM859.792 580.5H864.062V598.333C864.062 599.593 863.805 600.736 863.292 601.763C862.778 602.801 862.078 603.688 861.192 604.423C860.305 605.169 859.29 605.741 858.147 606.138C857.003 606.546 855.802 606.75 854.542 606.75C853.317 606.75 852.138 606.499 851.007 605.998C849.875 605.496 848.872 604.808 847.997 603.933C847.133 603.069 846.474 602.083 846.019 600.975L849.922 599.208C850.155 599.849 850.505 600.409 850.972 600.888C851.45 601.378 851.998 601.757 852.617 602.025C853.235 602.305 853.877 602.445 854.542 602.445C855.218 602.445 855.866 602.352 856.484 602.165C857.114 601.978 857.68 601.704 858.182 601.343C858.684 600.993 859.074 600.561 859.354 600.048C859.646 599.546 859.792 598.974 859.792 598.333V595.865C859.244 596.635 858.555 597.259 857.727 597.737C856.899 598.216 855.942 598.455 854.857 598.455C853.597 598.455 852.419 598.216 851.322 597.737C850.225 597.259 849.257 596.6 848.417 595.76C847.588 594.908 846.935 593.928 846.457 592.82C845.99 591.712 845.757 590.522 845.757 589.25C845.757 587.978 845.99 586.788 846.457 585.68C846.935 584.572 847.588 583.597 848.417 582.757C849.257 581.906 850.225 581.241 851.322 580.762C852.419 580.284 853.597 580.045 854.857 580.045C855.942 580.045 856.899 580.284 857.727 580.762C858.555 581.229 859.244 581.847 859.792 582.617V580.5ZM854.909 594.342C855.808 594.342 856.601 594.115 857.289 593.66C857.989 593.193 858.538 592.575 858.934 591.805C859.331 591.023 859.529 590.172 859.529 589.25C859.529 588.317 859.325 587.465 858.917 586.695C858.52 585.925 857.972 585.307 857.272 584.84C856.584 584.373 855.796 584.14 854.909 584.14C854.034 584.14 853.235 584.373 852.512 584.84C851.788 585.295 851.211 585.907 850.779 586.677C850.348 587.447 850.132 588.305 850.132 589.25C850.132 590.195 850.348 591.052 850.779 591.822C851.211 592.592 851.788 593.205 852.512 593.66C853.235 594.115 854.034 594.342 854.909 594.342Z" fill="black"/>
<line x1="60" y1="486.5" x2="1009" y2="486.5" stroke="#691616"/>
<line x1="60" y1="314.5" x2="1009" y2="314.5" stroke="#691616"/>
<defs>
<linearGradient id="paint0_linear_55_3418" x1="539" y1="0" x2="539" y2="794" gradientUnits="userSpaceOnUse">
<stop stop-color="#FFF1E2"/>
<stop offset="1" stop-color="#BF374B"/>
</linearGradient>
</defs>
</svg>
